<svg width="223" height="383" viewBox="0 0 223 383" fill="none" xmlns="http://www.w3.org/2000/svg">
<rect y="0.150391" width="223" height="382.85" rx="4" fill="white"/>
<path d="M0.18 300L3.915 289.5H5.19L8.925 300H7.665L6.63 297.075H2.475L1.44 300H0.18ZM2.91 295.875H6.195L4.56 291.255L2.91 295.875ZM4.125 288.465V287.445C4.455 287.445 4.74 287.4 4.98 287.31C5.23 287.21 5.355 287.04 5.355 286.8C5.355 286.6 5.215 286.455 4.935 286.365C4.665 286.275 4.365 286.245 4.035 286.275V285.465C4.435 285.435 4.805 285.46 5.145 285.54C5.485 285.61 5.76 285.75 5.97 285.96C6.18 286.16 6.285 286.44 6.285 286.8C6.285 287.14 6.165 287.42 5.925 287.64C5.685 287.86 5.405 287.99 5.085 288.03V288.465H4.125ZM10.4913 300V292.5H11.7513V293.91C11.8013 293.73 11.9163 293.515 12.0963 293.265C12.2763 293.015 12.5413 292.795 12.8913 292.605C13.2413 292.415 13.6963 292.32 14.2563 292.32C14.9863 292.32 15.5863 292.555 16.0563 293.025C16.5363 293.495 16.7763 294.18 16.7763 295.08V300H15.5163V295.26C15.5163 294.61 15.3613 294.15 15.0513 293.88C14.7413 293.6 14.3363 293.46 13.8363 293.46C13.1463 293.46 12.6263 293.695 12.2763 294.165C11.9263 294.635 11.7513 295.23 11.7513 295.95V300H10.4913ZM19.4415 300V289.32H20.7015V293.91C20.7515 293.73 20.8665 293.515 21.0465 293.265C21.2265 293.015 21.4915 292.795 21.8415 292.605C22.1915 292.415 22.6465 292.32 23.2065 292.32C23.9365 292.32 24.5365 292.555 25.0065 293.025C25.4865 293.495 25.7265 294.18 25.7265 295.08V300H24.4665V295.26C24.4665 294.61 24.3115 294.15 24.0015 293.88C23.6915 293.6 23.2865 293.46 22.7865 293.46C22.0965 293.46 21.5765 293.695 21.2265 294.165C20.8765 294.635 20.7015 295.23 20.7015 295.95V300H19.4415ZM35.4054 300.195C34.7754 300.195 34.1854 300.04 33.6354 299.73C33.0954 299.41 32.6604 298.955 32.3304 298.365C32.0004 297.775 31.8354 297.08 31.8354 296.28C31.8354 295.46 32.0004 294.755 32.3304 294.165C32.6604 293.575 33.0954 293.12 33.6354 292.8C34.1854 292.48 34.7754 292.32 35.4054 292.32C36.0654 292.32 36.6604 292.495 37.1904 292.845C37.7204 293.185 38.1154 293.665 38.3754 294.285L37.2354 294.735C37.0754 294.355 36.8354 294.05 36.5154 293.82C36.2054 293.58 35.8254 293.46 35.3754 293.46C34.8654 293.46 34.4404 293.585 34.1004 293.835C33.7704 294.075 33.5204 294.405 33.3504 294.825C33.1804 295.245 33.0954 295.715 33.0954 296.235C33.0954 296.755 33.1804 297.23 33.3504 297.66C33.5204 298.08 33.7704 298.42 34.1004 298.68C34.4404 298.93 34.8654 299.055 35.3754 299.055C35.8254 299.055 36.2054 298.94 36.5154 298.71C36.8354 298.47 37.0754 298.16 37.2354 297.78L38.3754 298.23C38.1154 298.85 37.7154 299.335 37.1754 299.685C36.6454 300.025 36.0554 300.195 35.4054 300.195ZM40.4474 300V289.32H41.7074V293.91C41.7574 293.73 41.8724 293.515 42.0524 293.265C42.2324 293.015 42.4974 292.795 42.8474 292.605C43.1974 292.415 43.6524 292.32 44.2124 292.32C44.9424 292.32 45.5424 292.555 46.0124 293.025C46.4924 293.495 46.7324 294.18 46.7324 295.08V300H45.4724V295.26C45.4724 294.61 45.3174 294.15 45.0074 293.88C44.6974 293.6 44.2924 293.46 43.7924 293.46C43.1024 293.46 42.5824 293.695 42.2324 294.165C41.8824 294.635 41.7074 295.23 41.7074 295.95V300H40.4474ZM51.8276 300.18C51.0976 300.18 50.4926 299.945 50.0126 299.475C49.5426 299.005 49.3076 298.32 49.3076 297.42V292.5H50.5676V297.24C50.5676 297.89 50.7226 298.355 51.0326 298.635C51.3426 298.905 51.7476 299.04 52.2476 299.04C52.9376 299.04 53.4576 298.805 53.8076 298.335C54.1576 297.865 54.3326 297.27 54.3326 296.55V292.5H55.5926V300H54.3326V298.59C54.2926 298.76 54.1776 298.975 53.9876 299.235C53.8076 299.485 53.5426 299.705 53.1926 299.895C52.8426 300.085 52.3876 300.18 51.8276 300.18ZM52.2476 302.79C52.0276 302.79 51.8326 302.705 51.6626 302.535C51.5026 302.375 51.4226 302.185 51.4226 301.965C51.4226 301.735 51.5026 301.54 51.6626 301.38C51.8326 301.22 52.0276 301.14 52.2476 301.14C52.4776 301.14 52.6676 301.22 52.8176 301.38C52.9776 301.54 53.0576 301.735 53.0576 301.965C53.0576 302.185 52.9776 302.375 52.8176 302.535C52.6676 302.705 52.4776 302.79 52.2476 302.79ZM58.3478 303.45V292.5H59.5628V293.97C59.6728 293.69 59.8328 293.425 60.0428 293.175C60.2528 292.925 60.5178 292.72 60.8378 292.56C61.1578 292.4 61.5378 292.32 61.9778 292.32C62.6378 292.32 63.2228 292.475 63.7328 292.785C64.2428 293.085 64.6428 293.525 64.9328 294.105C65.2228 294.685 65.3678 295.4 65.3678 296.25C65.3678 297.07 65.2278 297.775 64.9478 298.365C64.6678 298.945 64.2778 299.395 63.7778 299.715C63.2878 300.025 62.7128 300.18 62.0528 300.18C61.7128 300.18 61.3728 300.12 61.0328 300C60.6928 299.87 60.3978 299.685 60.1478 299.445C59.8978 299.195 59.7178 298.9 59.6078 298.56V303.45H58.3478ZM61.8728 299.04C62.3828 299.04 62.8028 298.915 63.1328 298.665C63.4628 298.415 63.7078 298.075 63.8678 297.645C64.0278 297.215 64.1078 296.74 64.1078 296.22C64.1078 295.7 64.0278 295.23 63.8678 294.81C63.7078 294.39 63.4628 294.06 63.1328 293.82C62.8128 293.57 62.4078 293.445 61.9178 293.445C61.1778 293.445 60.6078 293.705 60.2078 294.225C59.8178 294.745 59.6228 295.42 59.6228 296.25C59.6228 296.76 59.7078 297.225 59.8778 297.645C60.0578 298.065 60.3128 298.4 60.6428 298.65C60.9828 298.9 61.3928 299.03 61.8728 299.04ZM71.5753 300V289.32H72.8353V295.71L76.0453 292.5H77.6053L74.5303 295.635L77.8453 300H76.2553L73.5403 296.43L72.8353 297.12V300H71.5753ZM79.4562 300V289.32H80.7162V293.91C80.7662 293.73 80.8812 293.515 81.0612 293.265C81.2412 293.015 81.5062 292.795 81.8562 292.605C82.2062 292.415 82.6612 292.32 83.2212 292.32C83.9512 292.32 84.5512 292.555 85.0212 293.025C85.5012 293.495 85.7412 294.18 85.7412 295.08V300H84.4812V295.26C84.4812 294.61 84.3262 294.15 84.0162 293.88C83.7062 293.6 83.3012 293.46 82.8012 293.46C82.1112 293.46 81.5912 293.695 81.2412 294.165C80.8912 294.635 80.7162 295.23 80.7162 295.95V300H79.4562ZM91.3764 300.18C90.7564 300.18 90.1764 300.035 89.6364 299.745C89.0964 299.445 88.6614 299.005 88.3314 298.425C88.0014 297.835 87.8364 297.11 87.8364 296.25C87.8364 295.39 88.0014 294.67 88.3314 294.09C88.6614 293.5 89.0964 293.06 89.6364 292.77C90.1764 292.47 90.7564 292.32 91.3764 292.32C91.9964 292.32 92.5764 292.47 93.1164 292.77C93.6564 293.06 94.0914 293.5 94.4214 294.09C94.7514 294.67 94.9164 295.39 94.9164 296.25C94.9164 297.11 94.7514 297.835 94.4214 298.425C94.0914 299.005 93.6564 299.445 93.1164 299.745C92.5764 300.035 91.9964 300.18 91.3764 300.18ZM91.3764 299.04C92.1264 299.04 92.6914 298.795 93.0714 298.305C93.4614 297.815 93.6564 297.13 93.6564 296.25C93.6564 295.37 93.4614 294.685 93.0714 294.195C92.6914 293.705 92.1264 293.46 91.3764 293.46C90.6264 293.46 90.0564 293.705 89.6664 294.195C89.2864 294.685 89.0964 295.37 89.0964 296.25C89.0964 297.13 89.2864 297.815 89.6664 298.305C90.0564 298.795 90.6264 299.04 91.3764 299.04ZM88.9914 291.585L91.0314 289.26H91.7814L93.8064 291.585H92.5764L91.4064 290.22L90.2364 291.585H88.9914ZM97.1075 300V292.5H98.3675V293.91C98.4175 293.73 98.5325 293.515 98.7125 293.265C98.8925 293.015 99.1575 292.795 99.5075 292.605C99.8575 292.415 100.313 292.32 100.873 292.32C101.603 292.32 102.203 292.555 102.673 293.025C103.153 293.495 103.393 294.18 103.393 295.08V300H102.133V295.26C102.133 294.61 101.978 294.15 101.668 293.88C101.358 293.6 100.953 293.46 100.453 293.46C99.7625 293.46 99.2425 293.695 98.8925 294.165C98.5425 294.635 98.3675 295.23 98.3675 295.95V300H97.1075ZM108.878 303.45C108.228 303.44 107.618 303.295 107.048 303.015C106.478 302.735 106.048 302.265 105.758 301.605L106.748 300.99C106.938 301.43 107.218 301.765 107.588 301.995C107.958 302.225 108.393 302.34 108.893 302.34C109.723 302.34 110.323 302.12 110.693 301.68C111.063 301.24 111.248 300.595 111.248 299.745V298.56C111.148 298.9 110.968 299.195 110.708 299.445C110.458 299.685 110.163 299.87 109.823 300C109.493 300.12 109.153 300.18 108.803 300.18C108.153 300.18 107.578 300.025 107.078 299.715C106.578 299.395 106.188 298.945 105.908 298.365C105.628 297.775 105.488 297.07 105.488 296.25C105.488 295.4 105.633 294.685 105.923 294.105C106.213 293.525 106.613 293.085 107.123 292.785C107.643 292.475 108.228 292.32 108.878 292.32C109.318 292.32 109.698 292.4 110.018 292.56C110.338 292.72 110.603 292.925 110.813 293.175C111.033 293.425 111.193 293.69 111.293 293.97V292.5H112.493V299.745C112.493 300.685 112.328 301.425 111.998 301.965C111.678 302.515 111.243 302.9 110.693 303.12C110.143 303.35 109.538 303.46 108.878 303.45ZM108.983 299.04C109.463 299.04 109.868 298.915 110.198 298.665C110.538 298.405 110.793 298.065 110.963 297.645C111.143 297.225 111.233 296.76 111.233 296.25C111.233 295.42 111.033 294.745 110.633 294.225C110.243 293.705 109.678 293.445 108.938 293.445C108.448 293.445 108.038 293.57 107.708 293.82C107.388 294.06 107.148 294.39 106.988 294.81C106.828 295.23 106.748 295.7 106.748 296.22C106.748 296.74 106.828 297.215 106.988 297.645C107.148 298.065 107.393 298.405 107.723 298.665C108.063 298.915 108.483 299.04 108.983 299.04ZM125.783 303.45C125.393 303.45 125.058 303.335 124.778 303.105C124.508 302.875 124.373 302.46 124.373 301.86V298.56C124.273 298.9 124.093 299.195 123.833 299.445C123.583 299.685 123.288 299.87 122.948 300C122.618 300.12 122.278 300.18 121.928 300.18C121.278 300.18 120.703 300.025 120.203 299.715C119.703 299.395 119.313 298.945 119.033 298.365C118.753 297.775 118.613 297.07 118.613 296.25C118.613 295.4 118.758 294.685 119.048 294.105C119.338 293.525 119.738 293.085 120.248 292.785C120.768 292.475 121.353 292.32 122.003 292.32C122.443 292.32 122.823 292.4 123.143 292.56C123.463 292.72 123.728 292.925 123.938 293.175C124.158 293.425 124.318 293.69 124.418 293.97V292.5H125.618V301.545C125.618 301.845 125.683 302.055 125.813 302.175C125.943 302.305 126.193 302.33 126.563 302.25V303.27C126.463 303.33 126.353 303.375 126.233 303.405C126.123 303.435 125.973 303.45 125.783 303.45ZM122.108 299.04C122.588 299.04 122.993 298.915 123.323 298.665C123.663 298.405 123.918 298.065 124.088 297.645C124.268 297.225 124.358 296.76 124.358 296.25C124.358 295.42 124.158 294.745 123.758 294.225C123.368 293.705 122.803 293.445 122.063 293.445C121.573 293.445 121.163 293.57 120.833 293.82C120.513 294.06 120.273 294.39 120.113 294.81C119.953 295.23 119.873 295.7 119.873 296.22C119.873 296.74 119.953 297.215 120.113 297.645C120.273 298.065 120.518 298.405 120.848 298.665C121.188 298.915 121.608 299.04 122.108 299.04ZM130.827 300.18C130.097 300.18 129.492 299.945 129.012 299.475C128.542 299.005 128.307 298.32 128.307 297.42V292.5H129.567V297.24C129.567 297.89 129.722 298.355 130.032 298.635C130.342 298.905 130.747 299.04 131.247 299.04C131.937 299.04 132.457 298.805 132.807 298.335C133.157 297.865 133.332 297.27 133.332 296.55V292.5H134.592V300H133.332V298.59C133.292 298.76 133.177 298.975 132.987 299.235C132.807 299.485 132.542 299.705 132.192 299.895C131.842 300.085 131.387 300.18 130.827 300.18ZM140.092 300.18C139.442 300.18 138.867 300.025 138.367 299.715C137.867 299.395 137.477 298.945 137.197 298.365C136.917 297.775 136.777 297.07 136.777 296.25C136.777 295.4 136.922 294.685 137.212 294.105C137.502 293.525 137.902 293.085 138.412 292.785C138.932 292.475 139.517 292.32 140.167 292.32C140.607 292.32 140.987 292.4 141.307 292.56C141.627 292.72 141.892 292.925 142.102 293.175C142.322 293.425 142.482 293.69 142.582 293.97V292.5H143.782V300H142.537V298.56C142.437 298.9 142.257 299.195 141.997 299.445C141.747 299.685 141.452 299.87 141.112 300C140.782 300.12 140.442 300.18 140.092 300.18ZM140.272 299.04C140.752 299.04 141.157 298.915 141.487 298.665C141.827 298.405 142.082 298.065 142.252 297.645C142.432 297.225 142.522 296.76 142.522 296.25C142.522 295.42 142.322 294.745 141.922 294.225C141.532 293.705 140.967 293.445 140.227 293.445C139.737 293.445 139.327 293.57 138.997 293.82C138.677 294.06 138.437 294.39 138.277 294.81C138.117 295.23 138.037 295.7 138.037 296.22C138.037 296.74 138.117 297.215 138.277 297.645C138.437 298.065 138.682 298.405 139.012 298.665C139.352 298.915 139.772 299.04 140.272 299.04ZM139.972 291.585L141.232 289.26H142.882L141.052 291.585H139.972ZM153.697 300.18C152.977 300.18 152.357 300.025 151.837 299.715C151.317 299.405 150.917 298.98 150.637 298.44C150.367 297.9 150.232 297.285 150.232 296.595C150.232 296.105 150.327 295.635 150.517 295.185C150.707 294.725 150.912 294.31 151.132 293.94L153.757 289.5H155.242L152.632 293.595C152.722 293.485 152.882 293.395 153.112 293.325C153.352 293.255 153.587 293.22 153.817 293.22C154.407 293.22 154.952 293.37 155.452 293.67C155.952 293.97 156.352 294.375 156.652 294.885C156.962 295.385 157.117 295.955 157.117 296.595C157.117 297.285 156.977 297.9 156.697 298.44C156.417 298.98 156.022 299.405 155.512 299.715C155.002 300.025 154.397 300.18 153.697 300.18ZM153.712 298.98C154.362 298.98 154.872 298.755 155.242 298.305C155.612 297.855 155.797 297.28 155.797 296.58C155.797 296.22 155.712 295.87 155.542 295.53C155.372 295.19 155.127 294.91 154.807 294.69C154.497 294.47 154.112 294.36 153.652 294.36C153.192 294.36 152.802 294.47 152.482 294.69C152.172 294.91 151.937 295.19 151.777 295.53C151.617 295.87 151.537 296.22 151.537 296.58C151.537 297.02 151.617 297.425 151.777 297.795C151.937 298.155 152.177 298.445 152.497 298.665C152.827 298.875 153.232 298.98 153.712 298.98ZM166.016 300.18C165.196 300.18 164.616 299.995 164.276 299.625C163.936 299.255 163.766 298.72 163.766 298.02V293.655H162.416V292.5H162.761C163.171 292.5 163.441 292.435 163.571 292.305C163.701 292.165 163.766 291.88 163.766 291.45V290.595H165.026V292.515H166.961V293.655H165.026V298.02C165.026 298.42 165.121 298.7 165.311 298.86C165.501 299.02 165.781 299.1 166.151 299.1C166.251 299.1 166.361 299.095 166.481 299.085C166.601 299.075 166.721 299.06 166.841 299.04V300.06C166.571 300.14 166.296 300.18 166.016 300.18ZM168.9 300V289.32H170.16V293.91C170.21 293.73 170.325 293.515 170.505 293.265C170.685 293.015 170.95 292.795 171.3 292.605C171.65 292.415 172.105 292.32 172.665 292.32C173.395 292.32 173.995 292.555 174.465 293.025C174.945 293.495 175.185 294.18 175.185 295.08V300H173.925V295.26C173.925 294.61 173.77 294.15 173.46 293.88C173.15 293.6 172.745 293.46 172.245 293.46C171.555 293.46 171.035 293.695 170.685 294.165C170.335 294.635 170.16 295.23 170.16 295.95V300H168.9ZM180.595 300.18C179.945 300.18 179.37 300.025 178.87 299.715C178.37 299.395 177.98 298.945 177.7 298.365C177.42 297.775 177.28 297.07 177.28 296.25C177.28 295.4 177.425 294.685 177.715 294.105C178.005 293.525 178.405 293.085 178.915 292.785C179.435 292.475 180.02 292.32 180.67 292.32C181.11 292.32 181.49 292.4 181.81 292.56C182.13 292.72 182.395 292.925 182.605 293.175C182.825 293.425 182.985 293.69 183.085 293.97V292.5H184.285V300H183.04V298.56C182.94 298.9 182.76 299.195 182.5 299.445C182.25 299.685 181.955 299.87 181.615 300C181.285 300.12 180.945 300.18 180.595 300.18ZM180.775 299.04C181.255 299.04 181.66 298.915 181.99 298.665C182.33 298.405 182.585 298.065 182.755 297.645C182.935 297.225 183.025 296.76 183.025 296.25C183.025 295.42 182.825 294.745 182.425 294.225C182.035 293.705 181.47 293.445 180.73 293.445C180.24 293.445 179.83 293.57 179.5 293.82C179.18 294.06 178.94 294.39 178.78 294.81C178.62 295.23 178.54 295.7 178.54 296.22C178.54 296.74 178.62 297.215 178.78 297.645C178.94 298.065 179.185 298.405 179.515 298.665C179.855 298.915 180.275 299.04 180.775 299.04ZM180.475 291.585L181.735 289.26H183.385L181.555 291.585H180.475ZM186.961 300V292.5H188.221V293.91C188.271 293.73 188.386 293.515 188.566 293.265C188.746 293.015 189.011 292.795 189.361 292.605C189.711 292.415 190.166 292.32 190.726 292.32C191.456 292.32 192.056 292.555 192.526 293.025C193.006 293.495 193.246 294.18 193.246 295.08V300H191.986V295.26C191.986 294.61 191.831 294.15 191.521 293.88C191.211 293.6 190.806 293.46 190.306 293.46C189.616 293.46 189.096 293.695 188.746 294.165C188.396 294.635 188.221 295.23 188.221 295.95V300H186.961ZM198.731 303.45C198.081 303.44 197.471 303.295 196.901 303.015C196.331 302.735 195.901 302.265 195.611 301.605L196.601 300.99C196.791 301.43 197.071 301.765 197.441 301.995C197.811 302.225 198.246 302.34 198.746 302.34C199.576 302.34 200.176 302.12 200.546 301.68C200.916 301.24 201.101 300.595 201.101 299.745V298.56C201.001 298.9 200.821 299.195 200.561 299.445C200.311 299.685 200.016 299.87 199.676 300C199.346 300.12 199.006 300.18 198.656 300.18C198.006 300.18 197.431 300.025 196.931 299.715C196.431 299.395 196.041 298.945 195.761 298.365C195.481 297.775 195.341 297.07 195.341 296.25C195.341 295.4 195.486 294.685 195.776 294.105C196.066 293.525 196.466 293.085 196.976 292.785C197.496 292.475 198.081 292.32 198.731 292.32C199.171 292.32 199.551 292.4 199.871 292.56C200.191 292.72 200.456 292.925 200.666 293.175C200.886 293.425 201.046 293.69 201.146 293.97V292.5H202.346V299.745C202.346 300.685 202.181 301.425 201.851 301.965C201.531 302.515 201.096 302.9 200.546 303.12C199.996 303.35 199.391 303.46 198.731 303.45ZM198.836 299.04C199.316 299.04 199.721 298.915 200.051 298.665C200.391 298.405 200.646 298.065 200.816 297.645C200.996 297.225 201.086 296.76 201.086 296.25C201.086 295.42 200.886 294.745 200.486 294.225C200.096 293.705 199.531 293.445 198.791 293.445C198.301 293.445 197.891 293.57 197.561 293.82C197.241 294.06 197.001 294.39 196.841 294.81C196.681 295.23 196.601 295.7 196.601 296.22C196.601 296.74 196.681 297.215 196.841 297.645C197.001 298.065 197.246 298.405 197.576 298.665C197.916 298.915 198.336 299.04 198.836 299.04ZM205.323 300.18C205.063 300.18 204.838 300.085 204.648 299.895C204.458 299.705 204.363 299.485 204.363 299.235C204.363 298.975 204.458 298.75 204.648 298.56C204.838 298.37 205.063 298.275 205.323 298.275C205.583 298.275 205.803 298.37 205.983 298.56C206.163 298.75 206.253 298.975 206.253 299.235C206.253 299.485 206.163 299.705 205.983 299.895C205.803 300.085 205.583 300.18 205.323 300.18ZM5.46 318.195C4.64 318.195 3.935 318.04 3.345 317.73C2.755 317.42 2.275 317 1.905 316.47C1.535 315.94 1.26 315.35 1.08 314.7C0.91 314.04 0.825 313.365 0.825 312.675C0.825 311.955 0.91 311.27 1.08 310.62C1.26 309.97 1.535 309.4 1.905 308.91C2.285 308.41 2.765 308.02 3.345 307.74C3.935 307.45 4.64 307.305 5.46 307.305C6.26 307.305 6.955 307.44 7.545 307.71C8.145 307.98 8.635 308.355 9.015 308.835C9.395 309.305 9.655 309.85 9.795 310.47L8.46 310.74C8.29 310.09 7.945 309.555 7.425 309.135C6.905 308.715 6.25 308.505 5.46 308.505C4.74 308.505 4.135 308.69 3.645 309.06C3.165 309.42 2.8 309.915 2.55 310.545C2.3 311.165 2.175 311.865 2.175 312.645C2.175 313.455 2.3 314.19 2.55 314.85C2.8 315.51 3.165 316.035 3.645 316.425C4.135 316.805 4.74 316.995 5.46 316.995C6.25 316.995 6.905 316.785 7.425 316.365C7.945 315.935 8.29 315.4 8.46 314.76L9.795 315.03C9.655 315.64 9.395 316.185 9.015 316.665C8.635 317.145 8.145 317.52 7.545 317.79C6.955 318.06 6.26 318.195 5.46 318.195ZM11.839 318V307.32H13.099V311.91C13.149 311.73 13.264 311.515 13.444 311.265C13.624 311.015 13.889 310.795 14.239 310.605C14.589 310.415 15.044 310.32 15.604 310.32C16.334 310.32 16.934 310.555 17.404 311.025C17.884 311.495 18.124 312.18 18.124 313.08V318H16.864V313.26C16.864 312.61 16.709 312.15 16.399 311.88C16.089 311.6 15.684 311.46 15.184 311.46C14.494 311.46 13.974 311.695 13.624 312.165C13.274 312.635 13.099 313.23 13.099 313.95V318H11.839ZM23.5342 318.18C22.8842 318.18 22.3092 318.025 21.8092 317.715C21.3092 317.395 20.9192 316.945 20.6392 316.365C20.3592 315.775 20.2192 315.07 20.2192 314.25C20.2192 313.4 20.3642 312.685 20.6542 312.105C20.9442 311.525 21.3442 311.085 21.8542 310.785C22.3742 310.475 22.9592 310.32 23.6092 310.32C24.0492 310.32 24.4292 310.4 24.7492 310.56C25.0692 310.72 25.3342 310.925 25.5442 311.175C25.7642 311.425 25.9242 311.69 26.0242 311.97V310.5H27.2242V318H25.9792V316.56C25.8792 316.9 25.6992 317.195 25.4392 317.445C25.1892 317.685 24.8942 317.87 24.5542 318C24.2242 318.12 23.8842 318.18 23.5342 318.18ZM23.7142 317.04C24.1942 317.04 24.5992 316.915 24.9292 316.665C25.2692 316.405 25.5242 316.065 25.6942 315.645C25.8742 315.225 25.9642 314.76 25.9642 314.25C25.9642 313.42 25.7642 312.745 25.3642 312.225C24.9742 311.705 24.4092 311.445 23.6692 311.445C23.1792 311.445 22.7692 311.57 22.4392 311.82C22.1192 312.06 21.8792 312.39 21.7192 312.81C21.5592 313.23 21.4792 313.7 21.4792 314.22C21.4792 314.74 21.5592 315.215 21.7192 315.645C21.8792 316.065 22.1242 316.405 22.4542 316.665C22.7942 316.915 23.2142 317.04 23.7142 317.04ZM21.5092 309.585L23.5492 307.26H24.2992L26.3242 309.585H25.0942L23.9242 308.22L22.7542 309.585H21.5092ZM25.8742 308.115L27.1342 305.79H28.7842L26.9542 308.115H25.8742ZM29.9005 321.45V310.5H31.1155V311.97C31.2255 311.69 31.3855 311.425 31.5955 311.175C31.8055 310.925 32.0705 310.72 32.3905 310.56C32.7105 310.4 33.0905 310.32 33.5305 310.32C34.1905 310.32 34.7755 310.475 35.2855 310.785C35.7955 311.085 36.1955 311.525 36.4855 312.105C36.7755 312.685 36.9205 313.4 36.9205 314.25C36.9205 315.07 36.7805 315.775 36.5005 316.365C36.2205 316.945 35.8305 317.395 35.3305 317.715C34.8405 318.025 34.2655 318.18 33.6055 318.18C33.2655 318.18 32.9255 318.12 32.5855 318C32.2455 317.87 31.9505 317.685 31.7005 317.445C31.4505 317.195 31.2705 316.9 31.1605 316.56V321.45H29.9005ZM33.4255 317.04C33.9355 317.04 34.3555 316.915 34.6855 316.665C35.0155 316.415 35.2605 316.075 35.4205 315.645C35.5805 315.215 35.6605 314.74 35.6605 314.22C35.6605 313.7 35.5805 313.23 35.4205 312.81C35.2605 312.39 35.0155 312.06 34.6855 311.82C34.3655 311.57 33.9605 311.445 33.4705 311.445C32.7305 311.445 32.1605 311.705 31.7605 312.225C31.3705 312.745 31.1755 313.42 31.1755 314.25C31.1755 314.76 31.2605 315.225 31.4305 315.645C31.6105 316.065 31.8655 316.4 32.1955 316.65C32.5355 316.9 32.9455 317.03 33.4255 317.04ZM43.128 318V310.5H44.388V311.91C44.438 311.73 44.553 311.515 44.733 311.265C44.913 311.015 45.178 310.795 45.528 310.605C45.878 310.415 46.333 310.32 46.893 310.32C47.623 310.32 48.223 310.555 48.693 311.025C49.173 311.495 49.413 312.18 49.413 313.08V318H48.153V313.26C48.153 312.61 47.998 312.15 47.688 311.88C47.378 311.6 46.973 311.46 46.473 311.46C45.783 311.46 45.263 311.695 44.913 312.165C44.563 312.635 44.388 313.23 44.388 313.95V318H43.128ZM52.0782 318V307.32H53.3382V311.91C53.3882 311.73 53.5032 311.515 53.6832 311.265C53.8632 311.015 54.1282 310.795 54.4782 310.605C54.8282 310.415 55.2832 310.32 55.8432 310.32C56.5732 310.32 57.1732 310.555 57.6432 311.025C58.1232 311.495 58.3632 312.18 58.3632 313.08V318H57.1032V313.26C57.1032 312.61 56.9482 312.15 56.6382 311.88C56.3282 311.6 55.9232 311.46 55.4232 311.46C54.7332 311.46 54.2132 311.695 53.8632 312.165C53.5132 312.635 53.3382 313.23 53.3382 313.95V318H52.0782ZM63.7734 318.18C63.1234 318.18 62.5484 318.025 62.0484 317.715C61.5484 317.395 61.1584 316.945 60.8784 316.365C60.5984 315.775 60.4584 315.07 60.4584 314.25C60.4584 313.4 60.6034 312.685 60.8934 312.105C61.1834 311.525 61.5834 311.085 62.0934 310.785C62.6134 310.475 63.1984 310.32 63.8484 310.32C64.2884 310.32 64.6684 310.4 64.9884 310.56C65.3084 310.72 65.5734 310.925 65.7834 311.175C66.0034 311.425 66.1634 311.69 66.2634 311.97V310.5H67.4634V318H66.2184V316.56C66.1184 316.9 65.9384 317.195 65.6784 317.445C65.4284 317.685 65.1334 317.87 64.7934 318C64.4634 318.12 64.1234 318.18 63.7734 318.18ZM63.9534 317.04C64.4334 317.04 64.8384 316.915 65.1684 316.665C65.5084 316.405 65.7634 316.065 65.9334 315.645C66.1134 315.225 66.2034 314.76 66.2034 314.25C66.2034 313.42 66.0034 312.745 65.6034 312.225C65.2134 311.705 64.6484 311.445 63.9084 311.445C63.4184 311.445 63.0084 311.57 62.6784 311.82C62.3584 312.06 62.1184 312.39 61.9584 312.81C61.7984 313.23 61.7184 313.7 61.7184 314.22C61.7184 314.74 61.7984 315.215 61.9584 315.645C62.1184 316.065 62.3634 316.405 62.6934 316.665C63.0334 316.915 63.4534 317.04 63.9534 317.04ZM63.7734 320.79C63.5534 320.79 63.3584 320.705 63.1884 320.535C63.0284 320.375 62.9484 320.185 62.9484 319.965C62.9484 319.735 63.0284 319.54 63.1884 319.38C63.3584 319.22 63.5534 319.14 63.7734 319.14C64.0034 319.14 64.1934 319.22 64.3434 319.38C64.5034 319.54 64.5834 319.735 64.5834 319.965C64.5834 320.185 64.5034 320.375 64.3434 320.535C64.1934 320.705 64.0034 320.79 63.7734 320.79ZM61.7484 309.585L63.7884 307.26H64.5384L66.5634 309.585H65.3334L64.1634 308.22L62.9934 309.585H61.7484ZM70.1398 318V310.5H71.3998V311.91C71.4498 311.73 71.5648 311.515 71.7448 311.265C71.9248 311.015 72.1898 310.795 72.5398 310.605C72.8898 310.415 73.3448 310.32 73.9048 310.32C74.6348 310.32 75.2348 310.555 75.7048 311.025C76.1848 311.495 76.4248 312.18 76.4248 313.08V318H75.1648V313.26C75.1648 312.61 75.0098 312.15 74.6998 311.88C74.3898 311.6 73.9848 311.46 73.4848 311.46C72.7948 311.46 72.2748 311.695 71.9248 312.165C71.5748 312.635 71.3998 313.23 71.3998 313.95V318H70.1398ZM85.8486 318.18C85.1986 318.18 84.6236 318.025 84.1236 317.715C83.6236 317.395 83.2336 316.945 82.9536 316.365C82.6736 315.775 82.5336 315.07 82.5336 314.25C82.5336 313.4 82.6786 312.685 82.9686 312.105C83.2586 311.525 83.6586 311.085 84.1686 310.785C84.6886 310.475 85.2736 310.32 85.9236 310.32C86.3636 310.32 86.7436 310.4 87.0636 310.56C87.3836 310.72 87.6486 310.925 87.8586 311.175C88.0786 311.425 88.2386 311.69 88.3386 311.97V310.5H89.5386V318H88.2936V316.56C88.1936 316.9 88.0136 317.195 87.7536 317.445C87.5036 317.685 87.2086 317.87 86.8686 318C86.5386 318.12 86.1986 318.18 85.8486 318.18ZM86.0286 317.04C86.5086 317.04 86.9136 316.915 87.2436 316.665C87.5836 316.405 87.8386 316.065 88.0086 315.645C88.1886 315.225 88.2786 314.76 88.2786 314.25C88.2786 313.42 88.0786 312.745 87.6786 312.225C87.2886 311.705 86.7236 311.445 85.9836 311.445C85.4936 311.445 85.0836 311.57 84.7536 311.82C84.4336 312.06 84.1936 312.39 84.0336 312.81C83.8736 313.23 83.7936 313.7 83.7936 314.22C83.7936 314.74 83.8736 315.215 84.0336 315.645C84.1936 316.065 84.4386 316.405 84.7686 316.665C85.1086 316.915 85.5286 317.04 86.0286 317.04ZM85.7886 309.405V308.385C86.1186 308.385 86.4036 308.34 86.6436 308.25C86.8936 308.15 87.0186 307.98 87.0186 307.74C87.0186 307.54 86.8786 307.395 86.5986 307.305C86.3286 307.215 86.0286 307.185 85.6986 307.215V306.405C86.0986 306.375 86.4686 306.4 86.8086 306.48C87.1486 306.55 87.4236 306.69 87.6336 306.9C87.8436 307.1 87.9486 307.38 87.9486 307.74C87.9486 308.08 87.8286 308.36 87.5886 308.58C87.3486 308.8 87.0686 308.93 86.7486 308.97V309.405H85.7886ZM92.215 318V310.5H93.475V311.91C93.525 311.73 93.64 311.515 93.82 311.265C94 311.015 94.265 310.795 94.615 310.605C94.965 310.415 95.42 310.32 95.98 310.32C96.71 310.32 97.31 310.555 97.78 311.025C98.26 311.495 98.5 312.18 98.5 313.08V318H97.24V313.26C97.24 312.61 97.085 312.15 96.775 311.88C96.465 311.6 96.06 311.46 95.56 311.46C94.87 311.46 94.35 311.695 94 312.165C93.65 312.635 93.475 313.23 93.475 313.95V318H92.215ZM101.165 318V307.32H102.425V311.91C102.475 311.73 102.59 311.515 102.77 311.265C102.95 311.015 103.215 310.795 103.565 310.605C103.915 310.415 104.37 310.32 104.93 310.32C105.66 310.32 106.26 310.555 106.73 311.025C107.21 311.495 107.45 312.18 107.45 313.08V318H106.19V313.26C106.19 312.61 106.035 312.15 105.725 311.88C105.415 311.6 105.01 311.46 104.51 311.46C103.82 311.46 103.3 311.695 102.95 312.165C102.6 312.635 102.425 313.23 102.425 313.95V318H101.165ZM117.129 318.195C116.499 318.195 115.909 318.04 115.359 317.73C114.819 317.41 114.384 316.955 114.054 316.365C113.724 315.775 113.559 315.08 113.559 314.28C113.559 313.46 113.724 312.755 114.054 312.165C114.384 311.575 114.819 311.12 115.359 310.8C115.909 310.48 116.499 310.32 117.129 310.32C117.789 310.32 118.384 310.495 118.914 310.845C119.444 311.185 119.839 311.665 120.099 312.285L118.959 312.735C118.799 312.355 118.559 312.05 118.239 311.82C117.929 311.58 117.549 311.46 117.099 311.46C116.589 311.46 116.164 311.585 115.824 311.835C115.494 312.075 115.244 312.405 115.074 312.825C114.904 313.245 114.819 313.715 114.819 314.235C114.819 314.755 114.904 315.23 115.074 315.66C115.244 316.08 115.494 316.42 115.824 316.68C116.164 316.93 116.589 317.055 117.099 317.055C117.549 317.055 117.929 316.94 118.239 316.71C118.559 316.47 118.799 316.16 118.959 315.78L120.099 316.23C119.839 316.85 119.439 317.335 118.899 317.685C118.369 318.025 117.779 318.195 117.129 318.195ZM122.171 318V307.32H123.431V311.91C123.481 311.73 123.596 311.515 123.776 311.265C123.956 311.015 124.221 310.795 124.571 310.605C124.921 310.415 125.376 310.32 125.936 310.32C126.666 310.32 127.266 310.555 127.736 311.025C128.216 311.495 128.456 312.18 128.456 313.08V318H127.196V313.26C127.196 312.61 127.041 312.15 126.731 311.88C126.421 311.6 126.016 311.46 125.516 311.46C124.826 311.46 124.306 311.695 123.956 312.165C123.606 312.635 123.431 313.23 123.431 313.95V318H122.171ZM133.551 318.18C132.821 318.18 132.216 317.945 131.736 317.475C131.266 317.005 131.031 316.32 131.031 315.42V310.5H132.291V315.24C132.291 315.89 132.446 316.355 132.756 316.635C133.066 316.905 133.471 317.04 133.971 317.04C134.661 317.04 135.181 316.805 135.531 316.335C135.881 315.865 136.056 315.27 136.056 314.55V310.5H137.316V318H136.056V316.59C136.016 316.76 135.901 316.975 135.711 317.235C135.531 317.485 135.266 317.705 134.916 317.895C134.566 318.085 134.111 318.18 133.551 318.18ZM133.971 320.79C133.751 320.79 133.556 320.705 133.386 320.535C133.226 320.375 133.146 320.185 133.146 319.965C133.146 319.735 133.226 319.54 133.386 319.38C133.556 319.22 133.751 319.14 133.971 319.14C134.201 319.14 134.391 319.22 134.541 319.38C134.701 319.54 134.781 319.735 134.781 319.965C134.781 320.185 134.701 320.375 134.541 320.535C134.391 320.705 134.201 320.79 133.971 320.79ZM140.071 321.45V310.5H141.286V311.97C141.396 311.69 141.556 311.425 141.766 311.175C141.976 310.925 142.241 310.72 142.561 310.56C142.881 310.4 143.261 310.32 143.701 310.32C144.361 310.32 144.946 310.475 145.456 310.785C145.966 311.085 146.366 311.525 146.656 312.105C146.946 312.685 147.091 313.4 147.091 314.25C147.091 315.07 146.951 315.775 146.671 316.365C146.391 316.945 146.001 317.395 145.501 317.715C145.011 318.025 144.436 318.18 143.776 318.18C143.436 318.18 143.096 318.12 142.756 318C142.416 317.87 142.121 317.685 141.871 317.445C141.621 317.195 141.441 316.9 141.331 316.56V321.45H140.071ZM143.596 317.04C144.106 317.04 144.526 316.915 144.856 316.665C145.186 316.415 145.431 316.075 145.591 315.645C145.751 315.215 145.831 314.74 145.831 314.22C145.831 313.7 145.751 313.23 145.591 312.81C145.431 312.39 145.186 312.06 144.856 311.82C144.536 311.57 144.131 311.445 143.641 311.445C142.901 311.445 142.331 311.705 141.931 312.225C141.541 312.745 141.346 313.42 141.346 314.25C141.346 314.76 141.431 315.225 141.601 315.645C141.781 316.065 142.036 316.4 142.366 316.65C142.706 316.9 143.116 317.03 143.596 317.04ZM156.929 318.18C156.489 318.18 156.109 318.1 155.789 317.94C155.469 317.78 155.204 317.575 154.994 317.325C154.784 317.065 154.624 316.8 154.514 316.53V318H153.299V307.2H154.559V311.94C154.669 311.59 154.849 311.295 155.099 311.055C155.349 310.815 155.644 310.635 155.984 310.515C156.324 310.385 156.664 310.32 157.004 310.32C157.664 310.32 158.239 310.48 158.729 310.8C159.229 311.11 159.619 311.56 159.899 312.15C160.179 312.73 160.319 313.43 160.319 314.25C160.319 315.09 160.174 315.805 159.884 316.395C159.594 316.975 159.194 317.42 158.684 317.73C158.174 318.03 157.589 318.18 156.929 318.18ZM156.869 317.055C157.359 317.055 157.764 316.935 158.084 316.695C158.414 316.445 158.659 316.11 158.819 315.69C158.979 315.27 159.059 314.8 159.059 314.28C159.059 313.76 158.979 313.285 158.819 312.855C158.659 312.425 158.414 312.085 158.084 311.835C157.754 311.575 157.334 311.45 156.824 311.46C156.344 311.46 155.934 311.59 155.594 311.85C155.264 312.1 155.009 312.435 154.829 312.855C154.659 313.275 154.574 313.74 154.574 314.25C154.574 315.07 154.769 315.745 155.159 316.275C155.559 316.795 156.129 317.055 156.869 317.055ZM165.258 318.18C164.608 318.18 164.033 318.025 163.533 317.715C163.033 317.395 162.643 316.945 162.363 316.365C162.083 315.775 161.943 315.07 161.943 314.25C161.943 313.4 162.088 312.685 162.378 312.105C162.668 311.525 163.068 311.085 163.578 310.785C164.098 310.475 164.683 310.32 165.333 310.32C165.773 310.32 166.153 310.4 166.473 310.56C166.793 310.72 167.058 310.925 167.268 311.175C167.488 311.425 167.648 311.69 167.748 311.97V310.5H168.948V318H167.703V316.56C167.603 316.9 167.423 317.195 167.163 317.445C166.913 317.685 166.618 317.87 166.278 318C165.948 318.12 165.608 318.18 165.258 318.18ZM165.438 317.04C165.918 317.04 166.323 316.915 166.653 316.665C166.993 316.405 167.248 316.065 167.418 315.645C167.598 315.225 167.688 314.76 167.688 314.25C167.688 313.42 167.488 312.745 167.088 312.225C166.698 311.705 166.133 311.445 165.393 311.445C164.903 311.445 164.493 311.57 164.163 311.82C163.843 312.06 163.603 312.39 163.443 312.81C163.283 313.23 163.203 313.7 163.203 314.22C163.203 314.74 163.283 315.215 163.443 315.645C163.603 316.065 163.848 316.405 164.178 316.665C164.518 316.915 164.938 317.04 165.438 317.04ZM165.603 309.585C165.133 309.585 164.728 309.475 164.388 309.255C164.048 309.035 163.788 308.75 163.608 308.4C163.438 308.04 163.353 307.66 163.353 307.26H164.433C164.433 307.59 164.533 307.885 164.733 308.145C164.943 308.405 165.233 308.535 165.603 308.535C165.983 308.535 166.273 308.405 166.473 308.145C166.683 307.885 166.788 307.59 166.788 307.26H167.868C167.868 307.66 167.778 308.04 167.598 308.4C167.428 308.75 167.173 309.035 166.833 309.255C166.493 309.475 166.083 309.585 165.603 309.585ZM165.033 306.735L163.203 304.41H164.853L166.113 306.735H165.033ZM171.624 318V310.5H172.884V311.91C172.934 311.73 173.049 311.515 173.229 311.265C173.409 311.015 173.674 310.795 174.024 310.605C174.374 310.415 174.829 310.32 175.389 310.32C176.119 310.32 176.719 310.555 177.189 311.025C177.669 311.495 177.909 312.18 177.909 313.08V318H176.649V313.26C176.649 312.61 176.494 312.15 176.184 311.88C175.874 311.6 175.469 311.46 174.969 311.46C174.279 311.46 173.759 311.695 173.409 312.165C173.059 312.635 172.884 313.23 172.884 313.95V318H171.624ZM183.394 321.45C182.744 321.44 182.134 321.295 181.564 321.015C180.994 320.735 180.564 320.265 180.274 319.605L181.264 318.99C181.454 319.43 181.734 319.765 182.104 319.995C182.474 320.225 182.909 320.34 183.409 320.34C184.239 320.34 184.839 320.12 185.209 319.68C185.579 319.24 185.764 318.595 185.764 317.745V316.56C185.664 316.9 185.484 317.195 185.224 317.445C184.974 317.685 184.679 317.87 184.339 318C184.009 318.12 183.669 318.18 183.319 318.18C182.669 318.18 182.094 318.025 181.594 317.715C181.094 317.395 180.704 316.945 180.424 316.365C180.144 315.775 180.004 315.07 180.004 314.25C180.004 313.4 180.149 312.685 180.439 312.105C180.729 311.525 181.129 311.085 181.639 310.785C182.159 310.475 182.744 310.32 183.394 310.32C183.834 310.32 184.214 310.4 184.534 310.56C184.854 310.72 185.119 310.925 185.329 311.175C185.549 311.425 185.709 311.69 185.809 311.97V310.5H187.009V317.745C187.009 318.685 186.844 319.425 186.514 319.965C186.194 320.515 185.759 320.9 185.209 321.12C184.659 321.35 184.054 321.46 183.394 321.45ZM183.499 317.04C183.979 317.04 184.384 316.915 184.714 316.665C185.054 316.405 185.309 316.065 185.479 315.645C185.659 315.225 185.749 314.76 185.749 314.25C185.749 313.42 185.549 312.745 185.149 312.225C184.759 311.705 184.194 311.445 183.454 311.445C182.964 311.445 182.554 311.57 182.224 311.82C181.904 312.06 181.664 312.39 181.504 312.81C181.344 313.23 181.264 313.7 181.264 314.22C181.264 314.74 181.344 315.215 181.504 315.645C181.664 316.065 181.909 316.405 182.239 316.665C182.579 316.915 182.999 317.04 183.499 317.04ZM1.38 336V328.5H2.64V329.91C2.69 329.73 2.805 329.515 2.985 329.265C3.165 329.015 3.43 328.795 3.78 328.605C4.13 328.415 4.585 328.32 5.145 328.32C5.715 328.32 6.21 328.47 6.63 328.77C7.06 329.06 7.36 329.49 7.53 330.06V330.03C7.58 329.85 7.705 329.625 7.905 329.355C8.105 329.085 8.39 328.845 8.76 328.635C9.14 328.425 9.61 328.32 10.17 328.32C10.9 328.32 11.5 328.555 11.97 329.025C12.45 329.495 12.69 330.18 12.69 331.08V336H11.43V331.26C11.43 330.61 11.275 330.15 10.965 329.88C10.655 329.6 10.25 329.46 9.75 329.46C9.06 329.46 8.54 329.695 8.19 330.165C7.84 330.635 7.665 331.23 7.665 331.95V336H6.405V331.26C6.405 330.61 6.25 330.15 5.94 329.88C5.63 329.6 5.225 329.46 4.725 329.46C4.035 329.46 3.515 329.695 3.165 330.165C2.815 330.635 2.64 331.23 2.64 331.95V336H1.38ZM18.1289 336.18C17.4789 336.18 16.9039 336.025 16.4039 335.715C15.9039 335.395 15.5139 334.945 15.2339 334.365C14.9539 333.775 14.8139 333.07 14.8139 332.25C14.8139 331.4 14.9589 330.685 15.2489 330.105C15.5389 329.525 15.9389 329.085 16.4489 328.785C16.9689 328.475 17.5539 328.32 18.2039 328.32C18.6439 328.32 19.0239 328.4 19.3439 328.56C19.6639 328.72 19.9289 328.925 20.1389 329.175C20.3589 329.425 20.5189 329.69 20.6189 329.97V328.5H21.8189V336H20.5739V334.56C20.4739 334.9 20.2939 335.195 20.0339 335.445C19.7839 335.685 19.4889 335.87 19.1489 336C18.8189 336.12 18.4789 336.18 18.1289 336.18ZM18.3089 335.04C18.7889 335.04 19.1939 334.915 19.5239 334.665C19.8639 334.405 20.1189 334.065 20.2889 333.645C20.4689 333.225 20.5589 332.76 20.5589 332.25C20.5589 331.42 20.3589 330.745 19.9589 330.225C19.5689 329.705 19.0039 329.445 18.2639 329.445C17.7739 329.445 17.3639 329.57 17.0339 329.82C16.7139 330.06 16.4739 330.39 16.3139 330.81C16.1539 331.23 16.0739 331.7 16.0739 332.22C16.0739 332.74 16.1539 333.215 16.3139 333.645C16.4739 334.065 16.7189 334.405 17.0489 334.665C17.3889 334.915 17.8089 335.04 18.3089 335.04ZM18.0089 327.585L19.2689 325.26H20.9189L19.0889 327.585H18.0089ZM24.8102 339.45C24.6502 339.45 24.5002 339.435 24.3602 339.405C24.2202 339.385 24.1002 339.36 24.0002 339.33V338.19C24.0902 338.21 24.2002 338.225 24.3302 338.235C24.4602 338.245 24.5902 338.25 24.7202 338.25C24.9502 338.25 25.1602 338.19 25.3502 338.07C25.5502 337.96 25.7402 337.74 25.9202 337.41C26.1002 337.08 26.2802 336.595 26.4602 335.955L23.3402 328.5H24.6302L27.0452 334.215L29.0702 328.5H30.4052L27.3902 336.51C27.1502 337.16 26.9202 337.7 26.7002 338.13C26.4902 338.57 26.2402 338.9 25.9502 339.12C25.6602 339.34 25.2802 339.45 24.8102 339.45ZM38.7246 336.18C38.0746 336.18 37.4996 336.025 36.9996 335.715C36.4996 335.395 36.1096 334.945 35.8296 334.365C35.5496 333.775 35.4096 333.07 35.4096 332.25C35.4096 331.4 35.5546 330.685 35.8446 330.105C36.1346 329.525 36.5346 329.085 37.0446 328.785C37.5646 328.475 38.1496 328.32 38.7996 328.32C39.2396 328.32 39.6196 328.4 39.9396 328.56C40.2596 328.72 40.5246 328.925 40.7346 329.175C40.9546 329.425 41.1146 329.69 41.2146 329.97V328.5H42.4146V336H41.1696V334.56C41.0696 334.9 40.8896 335.195 40.6296 335.445C40.3796 335.685 40.0846 335.87 39.7446 336C39.4146 336.12 39.0746 336.18 38.7246 336.18ZM38.9046 335.04C39.3846 335.04 39.7896 334.915 40.1196 334.665C40.4596 334.405 40.7146 334.065 40.8846 333.645C41.0646 333.225 41.1546 332.76 41.1546 332.25C41.1546 331.42 40.9546 330.745 40.5546 330.225C40.1646 329.705 39.5996 329.445 38.8596 329.445C38.3696 329.445 37.9596 329.57 37.6296 329.82C37.3096 330.06 37.0696 330.39 36.9096 330.81C36.7496 331.23 36.6696 331.7 36.6696 332.22C36.6696 332.74 36.7496 333.215 36.9096 333.645C37.0696 334.065 37.3146 334.405 37.6446 334.665C37.9846 334.915 38.4046 335.04 38.9046 335.04ZM38.6646 327.405V326.385C38.9946 326.385 39.2796 326.34 39.5196 326.25C39.7696 326.15 39.8946 325.98 39.8946 325.74C39.8946 325.54 39.7546 325.395 39.4746 325.305C39.2046 325.215 38.9046 325.185 38.5746 325.215V324.405C38.9746 324.375 39.3446 324.4 39.6846 324.48C40.0246 324.55 40.2996 324.69 40.5096 324.9C40.7196 325.1 40.8246 325.38 40.8246 325.74C40.8246 326.08 40.7046 326.36 40.4646 326.58C40.2246 326.8 39.9446 326.93 39.6246 326.97V327.405H38.6646ZM45.0909 336V328.5H46.3509V329.91C46.4009 329.73 46.5159 329.515 46.6959 329.265C46.8759 329.015 47.1409 328.795 47.4909 328.605C47.8409 328.415 48.2959 328.32 48.8559 328.32C49.5859 328.32 50.1859 328.555 50.6559 329.025C51.1359 329.495 51.3759 330.18 51.3759 331.08V336H50.1159V331.26C50.1159 330.61 49.9609 330.15 49.6509 329.88C49.3409 329.6 48.9359 329.46 48.4359 329.46C47.7459 329.46 47.2259 329.695 46.8759 330.165C46.5259 330.635 46.3509 331.23 46.3509 331.95V336H45.0909ZM54.0411 336V325.32H55.3011V329.91C55.3511 329.73 55.4661 329.515 55.6461 329.265C55.8261 329.015 56.0911 328.795 56.4411 328.605C56.7911 328.415 57.2461 328.32 57.8061 328.32C58.5361 328.32 59.1361 328.555 59.6061 329.025C60.0861 329.495 60.3261 330.18 60.3261 331.08V336H59.0661V331.26C59.0661 330.61 58.9111 330.15 58.6011 329.88C58.2911 329.6 57.8861 329.46 57.3861 329.46C56.6961 329.46 56.1761 329.695 55.8261 330.165C55.4761 330.635 55.3011 331.23 55.3011 331.95V336H54.0411ZM67.005 336V325.32H68.265V329.91C68.315 329.73 68.43 329.515 68.61 329.265C68.79 329.015 69.055 328.795 69.405 328.605C69.755 328.415 70.21 328.32 70.77 328.32C71.5 328.32 72.1 328.555 72.57 329.025C73.05 329.495 73.29 330.18 73.29 331.08V336H72.03V331.26C72.03 330.61 71.875 330.15 71.565 329.88C71.255 329.6 70.85 329.46 70.35 329.46C69.66 329.46 69.14 329.695 68.79 330.165C68.44 330.635 68.265 331.23 68.265 331.95V336H67.005ZM78.9252 336.18C78.3052 336.18 77.7252 336.035 77.1852 335.745C76.6452 335.445 76.2102 335.005 75.8802 334.425C75.5502 333.835 75.3852 333.11 75.3852 332.25C75.3852 331.39 75.5502 330.67 75.8802 330.09C76.2102 329.5 76.6452 329.06 77.1852 328.77C77.7252 328.47 78.3052 328.32 78.9252 328.32C79.5452 328.32 80.1252 328.47 80.6652 328.77C81.2052 329.06 81.6402 329.5 81.9702 330.09C82.3002 330.67 82.4652 331.39 82.4652 332.25C82.4652 333.11 82.3002 333.835 81.9702 334.425C81.6402 335.005 81.2052 335.445 80.6652 335.745C80.1252 336.035 79.5452 336.18 78.9252 336.18ZM78.9252 335.04C79.6752 335.04 80.2402 334.795 80.6202 334.305C81.0102 333.815 81.2052 333.13 81.2052 332.25C81.2052 331.37 81.0102 330.685 80.6202 330.195C80.2402 329.705 79.6752 329.46 78.9252 329.46C78.1752 329.46 77.6052 329.705 77.2152 330.195C76.8352 330.685 76.6452 331.37 76.6452 332.25C76.6452 333.13 76.8352 333.815 77.2152 334.305C77.6052 334.795 78.1752 335.04 78.9252 335.04ZM87.4014 336.18C86.7514 336.18 86.1764 336.025 85.6764 335.715C85.1764 335.395 84.7864 334.945 84.5064 334.365C84.2264 333.775 84.0864 333.07 84.0864 332.25C84.0864 331.4 84.2314 330.685 84.5214 330.105C84.8114 329.525 85.2114 329.085 85.7214 328.785C86.2414 328.475 86.8264 328.32 87.4764 328.32C87.9164 328.32 88.2964 328.4 88.6164 328.56C88.9364 328.72 89.2014 328.925 89.4114 329.175C89.6314 329.425 89.7914 329.69 89.8914 329.97V328.5H91.0914V336H89.8464V334.56C89.7464 334.9 89.5664 335.195 89.3064 335.445C89.0564 335.685 88.7614 335.87 88.4214 336C88.0914 336.12 87.7514 336.18 87.4014 336.18ZM87.5814 335.04C88.0614 335.04 88.4664 334.915 88.7964 334.665C89.1364 334.405 89.3914 334.065 89.5614 333.645C89.7414 333.225 89.8314 332.76 89.8314 332.25C89.8314 331.42 89.6314 330.745 89.2314 330.225C88.8414 329.705 88.2764 329.445 87.5364 329.445C87.0464 329.445 86.6364 329.57 86.3064 329.82C85.9864 330.06 85.7464 330.39 85.5864 330.81C85.4264 331.23 85.3464 331.7 85.3464 332.22C85.3464 332.74 85.4264 333.215 85.5864 333.645C85.7464 334.065 85.9914 334.405 86.3214 334.665C86.6614 334.915 87.0814 335.04 87.5814 335.04ZM87.4014 338.79C87.1814 338.79 86.9864 338.705 86.8164 338.535C86.6564 338.375 86.5764 338.185 86.5764 337.965C86.5764 337.735 86.6564 337.54 86.8164 337.38C86.9864 337.22 87.1814 337.14 87.4014 337.14C87.6314 337.14 87.8214 337.22 87.9714 337.38C88.1314 337.54 88.2114 337.735 88.2114 337.965C88.2114 338.185 88.1314 338.375 87.9714 338.535C87.8214 338.705 87.6314 338.79 87.4014 338.79ZM87.7464 327.585C87.2764 327.585 86.8714 327.475 86.5314 327.255C86.1914 327.035 85.9314 326.75 85.7514 326.4C85.5814 326.04 85.4964 325.66 85.4964 325.26H86.5764C86.5764 325.59 86.6764 325.885 86.8764 326.145C87.0864 326.405 87.3764 326.535 87.7464 326.535C88.1264 326.535 88.4164 326.405 88.6164 326.145C88.8264 325.885 88.9314 325.59 88.9314 325.26H90.0114C90.0114 325.66 89.9214 326.04 89.7414 326.4C89.5714 326.75 89.3164 327.035 88.9764 327.255C88.6364 327.475 88.2264 327.585 87.7464 327.585ZM96.7677 336.195C96.1377 336.195 95.5477 336.04 94.9977 335.73C94.4577 335.41 94.0227 334.955 93.6927 334.365C93.3627 333.775 93.1977 333.08 93.1977 332.28C93.1977 331.46 93.3627 330.755 93.6927 330.165C94.0227 329.575 94.4577 329.12 94.9977 328.8C95.5477 328.48 96.1377 328.32 96.7677 328.32C97.4277 328.32 98.0227 328.495 98.5527 328.845C99.0827 329.185 99.4777 329.665 99.7377 330.285L98.5977 330.735C98.4377 330.355 98.1977 330.05 97.8777 329.82C97.5677 329.58 97.1877 329.46 96.7377 329.46C96.2277 329.46 95.8027 329.585 95.4627 329.835C95.1327 330.075 94.8827 330.405 94.7127 330.825C94.5427 331.245 94.4577 331.715 94.4577 332.235C94.4577 332.755 94.5427 333.23 94.7127 333.66C94.8827 334.08 95.1327 334.42 95.4627 334.68C95.8027 334.93 96.2277 335.055 96.7377 335.055C97.1877 335.055 97.5677 334.94 97.8777 334.71C98.1977 334.47 98.4377 334.16 98.5977 333.78L99.7377 334.23C99.4777 334.85 99.0777 335.335 98.5377 335.685C98.0077 336.025 97.4177 336.195 96.7677 336.195ZM108.643 336.18C107.993 336.18 107.408 336.03 106.888 335.73C106.378 335.42 105.978 334.975 105.688 334.395C105.398 333.805 105.253 333.09 105.253 332.25C105.253 331.43 105.393 330.73 105.673 330.15C105.953 329.56 106.343 329.11 106.843 328.8C107.343 328.48 107.918 328.32 108.568 328.32C108.918 328.32 109.258 328.385 109.588 328.515C109.928 328.635 110.223 328.815 110.473 329.055C110.733 329.295 110.913 329.59 111.013 329.94V327.27H108.853V326.25H111.013V325.32H112.273V326.25H113.248V327.27H112.273V334.11C112.273 334.41 112.338 334.625 112.468 334.755C112.598 334.875 112.848 334.895 113.218 334.815V335.835C113.118 335.895 113.008 335.94 112.888 335.97C112.778 336 112.628 336.015 112.438 336.015C112.048 336.015 111.723 335.9 111.463 335.67C111.203 335.44 111.073 335.06 111.073 334.53C110.963 334.8 110.803 335.065 110.593 335.325C110.383 335.575 110.113 335.78 109.783 335.94C109.463 336.1 109.083 336.18 108.643 336.18ZM108.703 335.055C109.443 335.055 110.008 334.795 110.398 334.275C110.798 333.745 110.998 333.07 110.998 332.25C110.998 331.74 110.908 331.275 110.728 330.855C110.558 330.425 110.303 330.085 109.963 329.835C109.633 329.585 109.228 329.46 108.748 329.46C108.248 329.46 107.828 329.59 107.488 329.85C107.158 330.1 106.913 330.44 106.753 330.87C106.593 331.29 106.513 331.76 106.513 332.28C106.513 332.8 106.593 333.27 106.753 333.69C106.913 334.11 107.153 334.445 107.473 334.695C107.803 334.935 108.213 335.055 108.703 335.055ZM115.813 327.075C115.573 327.075 115.363 326.99 115.183 326.82C115.013 326.64 114.928 326.435 114.928 326.205C114.928 325.965 115.013 325.76 115.183 325.59C115.363 325.41 115.573 325.32 115.813 325.32C116.043 325.32 116.243 325.41 116.413 325.59C116.583 325.76 116.668 325.965 116.668 326.205C116.668 326.435 116.583 326.64 116.413 326.82C116.243 326.99 116.043 327.075 115.813 327.075ZM115.168 336V328.5H116.428V336H115.168ZM122.109 336.195C121.479 336.195 120.894 336.04 120.354 335.73C119.814 335.41 119.379 334.955 119.049 334.365C118.719 333.775 118.554 333.08 118.554 332.28C118.554 331.46 118.719 330.755 119.049 330.165C119.379 329.575 119.814 329.12 120.354 328.8C120.894 328.48 121.479 328.32 122.109 328.32C122.749 328.32 123.324 328.455 123.834 328.725C124.354 328.985 124.764 329.395 125.064 329.955C125.374 330.505 125.529 331.215 125.529 332.085V332.55H119.799C119.839 333.27 120.049 333.87 120.429 334.35C120.809 334.82 121.359 335.055 122.079 335.055C122.529 335.055 122.939 334.95 123.309 334.74C123.679 334.53 123.969 334.235 124.179 333.855L125.289 334.305C124.669 335.565 123.609 336.195 122.109 336.195ZM122.079 329.46C121.469 329.46 120.979 329.65 120.609 330.03C120.249 330.4 120.009 330.87 119.889 331.44H124.269C124.269 331.16 124.184 330.87 124.014 330.57C123.854 330.26 123.614 330 123.294 329.79C122.974 329.57 122.569 329.46 122.079 329.46ZM122.109 338.805C121.889 338.805 121.694 338.72 121.524 338.55C121.364 338.39 121.284 338.2 121.284 337.98C121.284 337.75 121.364 337.555 121.524 337.395C121.694 337.235 121.889 337.155 122.109 337.155C122.339 337.155 122.529 337.235 122.679 337.395C122.839 337.555 122.919 337.75 122.919 337.98C122.919 338.2 122.839 338.39 122.679 338.55C122.529 338.72 122.339 338.805 122.109 338.805ZM119.724 327.6L121.764 325.275H122.514L124.539 327.6H123.309L122.139 326.235L120.969 327.6H119.724ZM127.664 336V328.5H128.924V329.91C128.974 329.73 129.089 329.515 129.269 329.265C129.449 329.015 129.714 328.795 130.064 328.605C130.414 328.415 130.869 328.32 131.429 328.32C132.159 328.32 132.759 328.555 133.229 329.025C133.709 329.495 133.949 330.18 133.949 331.08V336H132.689V331.26C132.689 330.61 132.534 330.15 132.224 329.88C131.914 329.6 131.509 329.46 131.009 329.46C130.319 329.46 129.799 329.695 129.449 330.165C129.099 330.635 128.924 331.23 128.924 331.95V336H127.664ZM143.238 336.18C142.418 336.18 141.838 335.995 141.498 335.625C141.158 335.255 140.988 334.72 140.988 334.02V329.655H139.638V328.5H139.983C140.393 328.5 140.663 328.435 140.793 328.305C140.923 328.165 140.988 327.88 140.988 327.45V326.595H142.248V328.515H144.183V329.655H142.248V334.02C142.248 334.42 142.343 334.7 142.533 334.86C142.723 335.02 143.003 335.1 143.373 335.1C143.473 335.1 143.583 335.095 143.703 335.085C143.823 335.075 143.943 335.06 144.063 335.04V336.06C143.793 336.14 143.518 336.18 143.238 336.18ZM146.121 336V325.32H147.381V329.91C147.431 329.73 147.546 329.515 147.726 329.265C147.906 329.015 148.171 328.795 148.521 328.605C148.871 328.415 149.326 328.32 149.886 328.32C150.616 328.32 151.216 328.555 151.686 329.025C152.166 329.495 152.406 330.18 152.406 331.08V336H151.146V331.26C151.146 330.61 150.991 330.15 150.681 329.88C150.371 329.6 149.966 329.46 149.466 329.46C148.776 329.46 148.256 329.695 147.906 330.165C147.556 330.635 147.381 331.23 147.381 331.95V336H146.121ZM158.041 336.18C157.421 336.18 156.841 336.035 156.301 335.745C155.761 335.445 155.326 335.005 154.996 334.425C154.666 333.835 154.501 333.11 154.501 332.25C154.501 331.39 154.666 330.67 154.996 330.09C155.326 329.5 155.761 329.06 156.301 328.77C156.841 328.47 157.421 328.32 158.041 328.32C158.661 328.32 159.241 328.47 159.781 328.77C160.321 329.06 160.756 329.5 161.086 330.09C161.416 330.67 161.581 331.39 161.581 332.25C161.581 333.11 161.416 333.835 161.086 334.425C160.756 335.005 160.321 335.445 159.781 335.745C159.241 336.035 158.661 336.18 158.041 336.18ZM158.041 335.04C158.791 335.04 159.356 334.795 159.736 334.305C160.126 333.815 160.321 333.13 160.321 332.25C160.321 331.37 160.126 330.685 159.736 330.195C159.356 329.705 158.791 329.46 158.041 329.46C157.291 329.46 156.721 329.705 156.331 330.195C155.951 330.685 155.761 331.37 155.761 332.25C155.761 333.13 155.951 333.815 156.331 334.305C156.721 334.795 157.291 335.04 158.041 335.04ZM166.518 336.18C165.868 336.18 165.293 336.025 164.793 335.715C164.293 335.395 163.903 334.945 163.623 334.365C163.343 333.775 163.203 333.07 163.203 332.25C163.203 331.4 163.348 330.685 163.638 330.105C163.928 329.525 164.328 329.085 164.838 328.785C165.358 328.475 165.943 328.32 166.593 328.32C167.033 328.32 167.413 328.4 167.733 328.56C168.053 328.72 168.318 328.925 168.528 329.175C168.748 329.425 168.908 329.69 169.008 329.97V328.5H170.208V336H168.963V334.56C168.863 334.9 168.683 335.195 168.423 335.445C168.173 335.685 167.878 335.87 167.538 336C167.208 336.12 166.868 336.18 166.518 336.18ZM166.698 335.04C167.178 335.04 167.583 334.915 167.913 334.665C168.253 334.405 168.508 334.065 168.678 333.645C168.858 333.225 168.948 332.76 168.948 332.25C168.948 331.42 168.748 330.745 168.348 330.225C167.958 329.705 167.393 329.445 166.653 329.445C166.163 329.445 165.753 329.57 165.423 329.82C165.103 330.06 164.863 330.39 164.703 330.81C164.543 331.23 164.463 331.7 164.463 332.22C164.463 332.74 164.543 333.215 164.703 333.645C164.863 334.065 165.108 334.405 165.438 334.665C165.778 334.915 166.198 335.04 166.698 335.04ZM166.518 338.79C166.298 338.79 166.103 338.705 165.933 338.535C165.773 338.375 165.693 338.185 165.693 337.965C165.693 337.735 165.773 337.54 165.933 337.38C166.103 337.22 166.298 337.14 166.518 337.14C166.748 337.14 166.938 337.22 167.088 337.38C167.248 337.54 167.328 337.735 167.328 337.965C167.328 338.185 167.248 338.375 167.088 338.535C166.938 338.705 166.748 338.79 166.518 338.79ZM173.469 327.075C173.229 327.075 173.019 326.99 172.839 326.82C172.669 326.64 172.584 326.435 172.584 326.205C172.584 325.965 172.669 325.76 172.839 325.59C173.019 325.41 173.229 325.32 173.469 325.32C173.699 325.32 173.899 325.41 174.069 325.59C174.239 325.76 174.324 325.965 174.324 326.205C174.324 326.435 174.239 326.64 174.069 326.82C173.899 326.99 173.699 327.075 173.469 327.075ZM172.824 336V328.5H174.084V336H172.824ZM183.614 336.18C182.964 336.18 182.379 336.03 181.859 335.73C181.349 335.42 180.949 334.975 180.659 334.395C180.369 333.805 180.224 333.09 180.224 332.25C180.224 331.43 180.364 330.73 180.644 330.15C180.924 329.56 181.314 329.11 181.814 328.8C182.314 328.48 182.889 328.32 183.539 328.32C183.889 328.32 184.229 328.385 184.559 328.515C184.899 328.635 185.194 328.815 185.444 329.055C185.704 329.295 185.884 329.59 185.984 329.94V327.27H183.824V326.25H185.984V325.32H187.244V326.25H188.219V327.27H187.244V334.11C187.244 334.41 187.309 334.625 187.439 334.755C187.569 334.875 187.819 334.895 188.189 334.815V335.835C188.089 335.895 187.979 335.94 187.859 335.97C187.749 336 187.599 336.015 187.409 336.015C187.019 336.015 186.694 335.9 186.434 335.67C186.174 335.44 186.044 335.06 186.044 334.53C185.934 334.8 185.774 335.065 185.564 335.325C185.354 335.575 185.084 335.78 184.754 335.94C184.434 336.1 184.054 336.18 183.614 336.18ZM183.674 335.055C184.414 335.055 184.979 334.795 185.369 334.275C185.769 333.745 185.969 333.07 185.969 332.25C185.969 331.74 185.879 331.275 185.699 330.855C185.529 330.425 185.274 330.085 184.934 329.835C184.604 329.585 184.199 329.46 183.719 329.46C183.219 329.46 182.799 329.59 182.459 329.85C182.129 330.1 181.884 330.44 181.724 330.87C181.564 331.29 181.484 331.76 181.484 332.28C181.484 332.8 181.564 333.27 181.724 333.69C181.884 334.11 182.124 334.445 182.444 334.695C182.774 334.935 183.184 335.055 183.674 335.055ZM192.628 336.18C191.898 336.18 191.293 335.945 190.813 335.475C190.343 335.005 190.108 334.32 190.108 333.42V328.5H191.368V333.24C191.368 333.89 191.523 334.355 191.833 334.635C192.143 334.905 192.548 335.04 193.048 335.04C193.738 335.04 194.258 334.805 194.608 334.335C194.958 333.865 195.133 333.27 195.133 332.55V328.5H196.393V336H195.133V334.59C195.093 334.76 194.978 334.975 194.788 335.235C194.608 335.485 194.343 335.705 193.993 335.895C193.643 336.085 193.188 336.18 192.628 336.18ZM192.658 327.6L193.918 325.275H195.568L193.738 327.6H192.658ZM199.149 336V328.5H200.409V329.91C200.459 329.73 200.574 329.515 200.754 329.265C200.934 329.015 201.199 328.795 201.549 328.605C201.899 328.415 202.354 328.32 202.914 328.32C203.644 328.32 204.244 328.555 204.714 329.025C205.194 329.495 205.434 330.18 205.434 331.08V336H204.174V331.26C204.174 330.61 204.019 330.15 203.709 329.88C203.399 329.6 202.994 329.46 202.494 329.46C201.804 329.46 201.284 329.695 200.934 330.165C200.584 330.635 200.409 331.23 200.409 331.95V336H199.149ZM210.919 339.45C210.269 339.44 209.659 339.295 209.089 339.015C208.519 338.735 208.089 338.265 207.799 337.605L208.789 336.99C208.979 337.43 209.259 337.765 209.629 337.995C209.999 338.225 210.434 338.34 210.934 338.34C211.764 338.34 212.364 338.12 212.734 337.68C213.104 337.24 213.289 336.595 213.289 335.745V334.56C213.189 334.9 213.009 335.195 212.749 335.445C212.499 335.685 212.204 335.87 211.864 336C211.534 336.12 211.194 336.18 210.844 336.18C210.194 336.18 209.619 336.025 209.119 335.715C208.619 335.395 208.229 334.945 207.949 334.365C207.669 333.775 207.529 333.07 207.529 332.25C207.529 331.4 207.674 330.685 207.964 330.105C208.254 329.525 208.654 329.085 209.164 328.785C209.684 328.475 210.269 328.32 210.919 328.32C211.359 328.32 211.739 328.4 212.059 328.56C212.379 328.72 212.644 328.925 212.854 329.175C213.074 329.425 213.234 329.69 213.334 329.97V328.5H214.534V335.745C214.534 336.685 214.369 337.425 214.039 337.965C213.719 338.515 213.284 338.9 212.734 339.12C212.184 339.35 211.579 339.46 210.919 339.45ZM211.024 335.04C211.504 335.04 211.909 334.915 212.239 334.665C212.579 334.405 212.834 334.065 213.004 333.645C213.184 333.225 213.274 332.76 213.274 332.25C213.274 331.42 213.074 330.745 212.674 330.225C212.284 329.705 211.719 329.445 210.979 329.445C210.489 329.445 210.079 329.57 209.749 329.82C209.429 330.06 209.189 330.39 209.029 330.81C208.869 331.23 208.789 331.7 208.789 332.22C208.789 332.74 208.869 333.215 209.029 333.645C209.189 334.065 209.434 334.405 209.764 334.665C210.104 334.915 210.524 335.04 211.024 335.04ZM7.98 357.45C7.59 357.45 7.255 357.335 6.975 357.105C6.705 356.875 6.57 356.46 6.57 355.86V352.56C6.47 352.9 6.29 353.195 6.03 353.445C5.78 353.685 5.485 353.87 5.145 354C4.815 354.12 4.475 354.18 4.125 354.18C3.475 354.18 2.9 354.025 2.4 353.715C1.9 353.395 1.51 352.945 1.23 352.365C0.95 351.775 0.81 351.07 0.81 350.25C0.81 349.4 0.955 348.685 1.245 348.105C1.535 347.525 1.935 347.085 2.445 346.785C2.965 346.475 3.55 346.32 4.2 346.32C4.64 346.32 5.02 346.4 5.34 346.56C5.66 346.72 5.925 346.925 6.135 347.175C6.355 347.425 6.515 347.69 6.615 347.97V346.5H7.815V355.545C7.815 355.845 7.88 356.055 8.01 356.175C8.14 356.305 8.39 356.33 8.76 356.25V357.27C8.66 357.33 8.55 357.375 8.43 357.405C8.32 357.435 8.17 357.45 7.98 357.45ZM4.305 353.04C4.785 353.04 5.19 352.915 5.52 352.665C5.86 352.405 6.115 352.065 6.285 351.645C6.465 351.225 6.555 350.76 6.555 350.25C6.555 349.42 6.355 348.745 5.955 348.225C5.565 347.705 5 347.445 4.26 347.445C3.77 347.445 3.36 347.57 3.03 347.82C2.71 348.06 2.47 348.39 2.31 348.81C2.15 349.23 2.07 349.7 2.07 350.22C2.07 350.74 2.15 351.215 2.31 351.645C2.47 352.065 2.715 352.405 3.045 352.665C3.385 352.915 3.805 353.04 4.305 353.04ZM13.0239 354.18C12.2939 354.18 11.6889 353.945 11.2089 353.475C10.7389 353.005 10.5039 352.32 10.5039 351.42V346.5H11.7639V351.24C11.7639 351.89 11.9189 352.355 12.2289 352.635C12.5389 352.905 12.9439 353.04 13.4439 353.04C14.1339 353.04 14.6539 352.805 15.0039 352.335C15.3539 351.865 15.5289 351.27 15.5289 350.55V346.5H16.7889V354H15.5289V352.59C15.4889 352.76 15.3739 352.975 15.1839 353.235C15.0039 353.485 14.7389 353.705 14.3889 353.895C14.0389 354.085 13.5839 354.18 13.0239 354.18ZM19.8591 357.45C19.6991 357.45 19.5491 357.435 19.4091 357.405C19.2691 357.385 19.1491 357.36 19.0491 357.33V356.19C19.1391 356.21 19.2491 356.225 19.3791 356.235C19.5091 356.245 19.6391 356.25 19.7691 356.25C19.9991 356.25 20.2091 356.19 20.3991 356.07C20.5991 355.96 20.7891 355.74 20.9691 355.41C21.1491 355.08 21.3291 354.595 21.5091 353.955L18.3891 346.5H19.6791L22.0941 352.215L24.1191 346.5H25.4541L22.4391 354.51C22.1991 355.16 21.9691 355.7 21.7491 356.13C21.5391 356.57 21.2891 356.9 20.9991 357.12C20.7091 357.34 20.3291 357.45 19.8591 357.45ZM34.0284 354.195C33.3984 354.195 32.8084 354.04 32.2584 353.73C31.7184 353.41 31.2834 352.955 30.9534 352.365C30.6234 351.775 30.4584 351.08 30.4584 350.28C30.4584 349.46 30.6234 348.755 30.9534 348.165C31.2834 347.575 31.7184 347.12 32.2584 346.8C32.8084 346.48 33.3984 346.32 34.0284 346.32C34.6884 346.32 35.2834 346.495 35.8134 346.845C36.3434 347.185 36.7384 347.665 36.9984 348.285L35.8584 348.735C35.6984 348.355 35.4584 348.05 35.1384 347.82C34.8284 347.58 34.4484 347.46 33.9984 347.46C33.4884 347.46 33.0634 347.585 32.7234 347.835C32.3934 348.075 32.1434 348.405 31.9734 348.825C31.8034 349.245 31.7184 349.715 31.7184 350.235C31.7184 350.755 31.8034 351.23 31.9734 351.66C32.1434 352.08 32.3934 352.42 32.7234 352.68C33.0634 352.93 33.4884 353.055 33.9984 353.055C34.4484 353.055 34.8284 352.94 35.1384 352.71C35.4584 352.47 35.6984 352.16 35.8584 351.78L36.9984 352.23C36.7384 352.85 36.3384 353.335 35.7984 353.685C35.2684 354.025 34.6784 354.195 34.0284 354.195ZM41.8154 354.18C41.1654 354.18 40.5904 354.025 40.0904 353.715C39.5904 353.395 39.2004 352.945 38.9204 352.365C38.6404 351.775 38.5004 351.07 38.5004 350.25C38.5004 349.4 38.6454 348.685 38.9354 348.105C39.2254 347.525 39.6254 347.085 40.1354 346.785C40.6554 346.475 41.2404 346.32 41.8904 346.32C42.3304 346.32 42.7104 346.4 43.0304 346.56C43.3504 346.72 43.6154 346.925 43.8254 347.175C44.0454 347.425 44.2054 347.69 44.3054 347.97V346.5H45.5054V354H44.2604V352.56C44.1604 352.9 43.9804 353.195 43.7204 353.445C43.4704 353.685 43.1754 353.87 42.8354 354C42.5054 354.12 42.1654 354.18 41.8154 354.18ZM41.9954 353.04C42.4754 353.04 42.8804 352.915 43.2104 352.665C43.5504 352.405 43.8054 352.065 43.9754 351.645C44.1554 351.225 44.2454 350.76 44.2454 350.25C44.2454 349.42 44.0454 348.745 43.6454 348.225C43.2554 347.705 42.6904 347.445 41.9504 347.445C41.4604 347.445 41.0504 347.57 40.7204 347.82C40.4004 348.06 40.1604 348.39 40.0004 348.81C39.8404 349.23 39.7604 349.7 39.7604 350.22C39.7604 350.74 39.8404 351.215 40.0004 351.645C40.1604 352.065 40.4054 352.405 40.7354 352.665C41.0754 352.915 41.4954 353.04 41.9954 353.04ZM41.6954 345.585L42.9554 343.26H44.6054L42.7754 345.585H41.6954ZM51.1818 354.195C50.5518 354.195 49.9618 354.04 49.4118 353.73C48.8718 353.41 48.4368 352.955 48.1068 352.365C47.7768 351.775 47.6118 351.08 47.6118 350.28C47.6118 349.46 47.7768 348.755 48.1068 348.165C48.4368 347.575 48.8718 347.12 49.4118 346.8C49.9618 346.48 50.5518 346.32 51.1818 346.32C51.8418 346.32 52.4368 346.495 52.9668 346.845C53.4968 347.185 53.8918 347.665 54.1518 348.285L53.0118 348.735C52.8518 348.355 52.6118 348.05 52.2918 347.82C51.9818 347.58 51.6018 347.46 51.1518 347.46C50.6418 347.46 50.2168 347.585 49.8768 347.835C49.5468 348.075 49.2968 348.405 49.1268 348.825C48.9568 349.245 48.8718 349.715 48.8718 350.235C48.8718 350.755 48.9568 351.23 49.1268 351.66C49.2968 352.08 49.5468 352.42 49.8768 352.68C50.2168 352.93 50.6418 353.055 51.1518 353.055C51.6018 353.055 51.9818 352.94 52.2918 352.71C52.6118 352.47 52.8518 352.16 53.0118 351.78L54.1518 352.23C53.8918 352.85 53.4918 353.335 52.9518 353.685C52.4218 354.025 51.8318 354.195 51.1818 354.195ZM56.2238 354V343.32H57.4838V347.91C57.5338 347.73 57.6488 347.515 57.8288 347.265C58.0088 347.015 58.2738 346.795 58.6238 346.605C58.9738 346.415 59.4288 346.32 59.9888 346.32C60.7188 346.32 61.3188 346.555 61.7888 347.025C62.2688 347.495 62.5088 348.18 62.5088 349.08V354H61.2488V349.26C61.2488 348.61 61.0938 348.15 60.7838 347.88C60.4738 347.6 60.0688 347.46 59.5688 347.46C58.8788 347.46 58.3588 347.695 58.0088 348.165C57.6588 348.635 57.4838 349.23 57.4838 349.95V354H56.2238ZM64.5439 355.785C64.5439 355.785 64.5439 355.74 64.5439 355.65C64.5439 355.57 64.5439 355.49 64.5439 355.41C64.5439 355.33 64.5439 355.29 64.5439 355.29C64.5439 355.29 64.5989 355.27 64.7089 355.23C64.8189 355.2 64.9489 355.135 65.0989 355.035C65.2489 354.945 65.3789 354.815 65.4889 354.645C65.5989 354.475 65.6539 354.255 65.6539 353.985C65.6439 353.995 65.6189 354 65.5789 354C65.5489 354 65.5239 354 65.5039 354C65.2539 354 65.0289 353.905 64.8289 353.715C64.6389 353.515 64.5439 353.29 64.5439 353.04C64.5439 352.78 64.6389 352.54 64.8289 352.32C65.0289 352.1 65.2639 351.99 65.5339 351.99C65.8839 351.99 66.1639 352.115 66.3739 352.365C66.5939 352.605 66.7039 352.91 66.7039 353.28C66.7039 353.71 66.6189 354.115 66.4489 354.495C66.2889 354.885 66.0489 355.195 65.7289 355.425C65.4089 355.665 65.0139 355.785 64.5439 355.785ZM72.8497 354V346.5H74.1097V347.91C74.1597 347.73 74.2747 347.515 74.4547 347.265C74.6347 347.015 74.8997 346.795 75.2497 346.605C75.5997 346.415 76.0547 346.32 76.6147 346.32C77.1847 346.32 77.6797 346.47 78.0997 346.77C78.5297 347.06 78.8297 347.49 78.9997 348.06V348.03C79.0497 347.85 79.1747 347.625 79.3747 347.355C79.5747 347.085 79.8597 346.845 80.2297 346.635C80.6097 346.425 81.0797 346.32 81.6397 346.32C82.3697 346.32 82.9697 346.555 83.4397 347.025C83.9197 347.495 84.1597 348.18 84.1597 349.08V354H82.8997V349.26C82.8997 348.61 82.7447 348.15 82.4347 347.88C82.1247 347.6 81.7197 347.46 81.2197 347.46C80.5297 347.46 80.0097 347.695 79.6597 348.165C79.3097 348.635 79.1347 349.23 79.1347 349.95V354H77.8747V349.26C77.8747 348.61 77.7197 348.15 77.4097 347.88C77.0997 347.6 76.6947 347.46 76.1947 347.46C75.5047 347.46 74.9847 347.695 74.6347 348.165C74.2847 348.635 74.1097 349.23 74.1097 349.95V354H72.8497ZM89.5986 354.18C88.9486 354.18 88.3736 354.025 87.8736 353.715C87.3736 353.395 86.9836 352.945 86.7036 352.365C86.4236 351.775 86.2836 351.07 86.2836 350.25C86.2836 349.4 86.4286 348.685 86.7186 348.105C87.0086 347.525 87.4086 347.085 87.9186 346.785C88.4386 346.475 89.0236 346.32 89.6736 346.32C90.1136 346.32 90.4936 346.4 90.8136 346.56C91.1336 346.72 91.3986 346.925 91.6086 347.175C91.8286 347.425 91.9886 347.69 92.0886 347.97V346.5H93.2886V354H92.0436V352.56C91.9436 352.9 91.7636 353.195 91.5036 353.445C91.2536 353.685 90.9586 353.87 90.6186 354C90.2886 354.12 89.9486 354.18 89.5986 354.18ZM89.7786 353.04C90.2586 353.04 90.6636 352.915 90.9936 352.665C91.3336 352.405 91.5886 352.065 91.7586 351.645C91.9386 351.225 92.0286 350.76 92.0286 350.25C92.0286 349.42 91.8286 348.745 91.4286 348.225C91.0386 347.705 90.4736 347.445 89.7336 347.445C89.2436 347.445 88.8336 347.57 88.5036 347.82C88.1836 348.06 87.9436 348.39 87.7836 348.81C87.6236 349.23 87.5436 349.7 87.5436 350.22C87.5436 350.74 87.6236 351.215 87.7836 351.645C87.9436 352.065 88.1886 352.405 88.5186 352.665C88.8586 352.915 89.2786 353.04 89.7786 353.04ZM89.9436 345.585C89.4736 345.585 89.0686 345.475 88.7286 345.255C88.3886 345.035 88.1286 344.75 87.9486 344.4C87.7786 344.04 87.6936 343.66 87.6936 343.26H88.7736C88.7736 343.59 88.8736 343.885 89.0736 344.145C89.2836 344.405 89.5736 344.535 89.9436 344.535C90.3236 344.535 90.6136 344.405 90.8136 344.145C91.0236 343.885 91.1286 343.59 91.1286 343.26H92.2086C92.2086 343.66 92.1186 344.04 91.9386 344.4C91.7686 344.75 91.5136 345.035 91.1736 345.255C90.8336 345.475 90.4236 345.585 89.9436 345.585ZM89.4336 342.57L90.6936 340.245H92.3436L90.5136 342.57H89.4336ZM98.575 354.18C97.755 354.18 97.175 353.995 96.835 353.625C96.495 353.255 96.325 352.72 96.325 352.02V347.655H94.975V346.5H95.32C95.73 346.5 96 346.435 96.13 346.305C96.26 346.165 96.325 345.88 96.325 345.45V344.595H97.585V346.515H99.52V347.655H97.585V352.02C97.585 352.42 97.68 352.7 97.87 352.86C98.06 353.02 98.34 353.1 98.71 353.1C98.81 353.1 98.92 353.095 99.04 353.085C99.16 353.075 99.28 353.06 99.4 353.04V354.06C99.13 354.14 98.855 354.18 98.575 354.18ZM105.472 354V346.5H106.732V347.91C106.782 347.73 106.897 347.515 107.077 347.265C107.257 347.015 107.522 346.795 107.872 346.605C108.222 346.415 108.677 346.32 109.237 346.32C109.967 346.32 110.567 346.555 111.037 347.025C111.517 347.495 111.757 348.18 111.757 349.08V354H110.497V349.26C110.497 348.61 110.342 348.15 110.032 347.88C109.722 347.6 109.317 347.46 108.817 347.46C108.127 347.46 107.607 347.695 107.257 348.165C106.907 348.635 106.732 349.23 106.732 349.95V354H105.472ZM114.422 354V343.32H115.682V347.91C115.732 347.73 115.847 347.515 116.027 347.265C116.207 347.015 116.472 346.795 116.822 346.605C117.172 346.415 117.627 346.32 118.187 346.32C118.917 346.32 119.517 346.555 119.987 347.025C120.467 347.495 120.707 348.18 120.707 349.08V354H119.447V349.26C119.447 348.61 119.292 348.15 118.982 347.88C118.672 347.6 118.267 347.46 117.767 347.46C117.077 347.46 116.557 347.695 116.207 348.165C115.857 348.635 115.682 349.23 115.682 349.95V354H114.422ZM123.312 354V346.5H124.572V354H123.312ZM123.402 345.645L121.572 343.32H123.222L124.482 345.645H123.402ZM127.269 354V346.5H128.529V347.91C128.579 347.73 128.694 347.515 128.874 347.265C129.054 347.015 129.319 346.795 129.669 346.605C130.019 346.415 130.474 346.32 131.034 346.32C131.764 346.32 132.364 346.555 132.834 347.025C133.314 347.495 133.554 348.18 133.554 349.08V354H132.294V349.26C132.294 348.61 132.139 348.15 131.829 347.88C131.519 347.6 131.114 347.46 130.614 347.46C129.924 347.46 129.404 347.695 129.054 348.165C128.704 348.635 128.529 349.23 128.529 349.95V354H127.269ZM142.843 354.18C142.023 354.18 141.443 353.995 141.103 353.625C140.763 353.255 140.593 352.72 140.593 352.02V347.655H139.243V346.5H139.588C139.998 346.5 140.268 346.435 140.398 346.305C140.528 346.165 140.593 345.88 140.593 345.45V344.595H141.853V346.515H143.788V347.655H141.853V352.02C141.853 352.42 141.948 352.7 142.138 352.86C142.328 353.02 142.608 353.1 142.978 353.1C143.078 353.1 143.188 353.095 143.308 353.085C143.428 353.075 143.548 353.06 143.668 353.04V354.06C143.398 354.14 143.123 354.18 142.843 354.18ZM145.726 354V343.32H146.986V347.91C147.036 347.73 147.151 347.515 147.331 347.265C147.511 347.015 147.776 346.795 148.126 346.605C148.476 346.415 148.931 346.32 149.491 346.32C150.221 346.32 150.821 346.555 151.291 347.025C151.771 347.495 152.011 348.18 152.011 349.08V354H150.751V349.26C150.751 348.61 150.596 348.15 150.286 347.88C149.976 347.6 149.571 347.46 149.071 347.46C148.381 347.46 147.861 347.695 147.511 348.165C147.161 348.635 146.986 349.23 146.986 349.95V354H145.726ZM157.421 354.18C156.771 354.18 156.196 354.025 155.696 353.715C155.196 353.395 154.806 352.945 154.526 352.365C154.246 351.775 154.106 351.07 154.106 350.25C154.106 349.4 154.251 348.685 154.541 348.105C154.831 347.525 155.231 347.085 155.741 346.785C156.261 346.475 156.846 346.32 157.496 346.32C157.936 346.32 158.316 346.4 158.636 346.56C158.956 346.72 159.221 346.925 159.431 347.175C159.651 347.425 159.811 347.69 159.911 347.97V346.5H161.111V354H159.866V352.56C159.766 352.9 159.586 353.195 159.326 353.445C159.076 353.685 158.781 353.87 158.441 354C158.111 354.12 157.771 354.18 157.421 354.18ZM157.601 353.04C158.081 353.04 158.486 352.915 158.816 352.665C159.156 352.405 159.411 352.065 159.581 351.645C159.761 351.225 159.851 350.76 159.851 350.25C159.851 349.42 159.651 348.745 159.251 348.225C158.861 347.705 158.296 347.445 157.556 347.445C157.066 347.445 156.656 347.57 156.326 347.82C156.006 348.06 155.766 348.39 155.606 348.81C155.446 349.23 155.366 349.7 155.366 350.22C155.366 350.74 155.446 351.215 155.606 351.645C155.766 352.065 156.011 352.405 156.341 352.665C156.681 352.915 157.101 353.04 157.601 353.04ZM157.136 342.855V341.865C157.456 341.865 157.736 341.82 157.976 341.73C158.216 341.63 158.336 341.465 158.336 341.235C158.336 341.035 158.201 340.895 157.931 340.815C157.661 340.725 157.366 340.695 157.046 340.725V339.93C157.436 339.9 157.796 339.925 158.126 340.005C158.456 340.075 158.721 340.21 158.921 340.41C159.131 340.6 159.236 340.875 159.236 341.235C159.236 341.575 159.121 341.85 158.891 342.06C158.661 342.27 158.386 342.395 158.066 342.435V342.855H157.136ZM157.766 345.585C157.296 345.585 156.891 345.475 156.551 345.255C156.211 345.035 155.951 344.75 155.771 344.4C155.601 344.04 155.516 343.66 155.516 343.26H156.596C156.596 343.59 156.696 343.885 156.896 344.145C157.106 344.405 157.396 344.535 157.766 344.535C158.146 344.535 158.436 344.405 158.636 344.145C158.846 343.885 158.951 343.59 158.951 343.26H160.031C160.031 343.66 159.941 344.04 159.761 344.4C159.591 344.75 159.336 345.035 158.996 345.255C158.656 345.475 158.246 345.585 157.766 345.585ZM163.787 354V346.5H165.047V347.91C165.097 347.73 165.212 347.515 165.392 347.265C165.572 347.015 165.837 346.795 166.187 346.605C166.537 346.415 166.992 346.32 167.552 346.32C168.282 346.32 168.882 346.555 169.352 347.025C169.832 347.495 170.072 348.18 170.072 349.08V354H168.812V349.26C168.812 348.61 168.657 348.15 168.347 347.88C168.037 347.6 167.632 347.46 167.132 347.46C166.442 347.46 165.922 347.695 165.572 348.165C165.222 348.635 165.047 349.23 165.047 349.95V354H163.787ZM175.557 357.45C174.907 357.44 174.297 357.295 173.727 357.015C173.157 356.735 172.727 356.265 172.437 355.605L173.427 354.99C173.617 355.43 173.897 355.765 174.267 355.995C174.637 356.225 175.072 356.34 175.572 356.34C176.402 356.34 177.002 356.12 177.372 355.68C177.742 355.24 177.927 354.595 177.927 353.745V352.56C177.827 352.9 177.647 353.195 177.387 353.445C177.137 353.685 176.842 353.87 176.502 354C176.172 354.12 175.832 354.18 175.482 354.18C174.832 354.18 174.257 354.025 173.757 353.715C173.257 353.395 172.867 352.945 172.587 352.365C172.307 351.775 172.167 351.07 172.167 350.25C172.167 349.4 172.312 348.685 172.602 348.105C172.892 347.525 173.292 347.085 173.802 346.785C174.322 346.475 174.907 346.32 175.557 346.32C175.997 346.32 176.377 346.4 176.697 346.56C177.017 346.72 177.282 346.925 177.492 347.175C177.712 347.425 177.872 347.69 177.972 347.97V346.5H179.172V353.745C179.172 354.685 179.007 355.425 178.677 355.965C178.357 356.515 177.922 356.9 177.372 357.12C176.822 357.35 176.217 357.46 175.557 357.45ZM175.662 353.04C176.142 353.04 176.547 352.915 176.877 352.665C177.217 352.405 177.472 352.065 177.642 351.645C177.822 351.225 177.912 350.76 177.912 350.25C177.912 349.42 177.712 348.745 177.312 348.225C176.922 347.705 176.357 347.445 175.617 347.445C175.127 347.445 174.717 347.57 174.387 347.82C174.067 348.06 173.827 348.39 173.667 348.81C173.507 349.23 173.427 349.7 173.427 350.22C173.427 350.74 173.507 351.215 173.667 351.645C173.827 352.065 174.072 352.405 174.402 352.665C174.742 352.915 175.162 353.04 175.662 353.04ZM181.219 355.785C181.219 355.785 181.219 355.74 181.219 355.65C181.219 355.57 181.219 355.49 181.219 355.41C181.219 355.33 181.219 355.29 181.219 355.29C181.219 355.29 181.274 355.27 181.384 355.23C181.494 355.2 181.624 355.135 181.774 355.035C181.924 354.945 182.054 354.815 182.164 354.645C182.274 354.475 182.329 354.255 182.329 353.985C182.319 353.995 182.294 354 182.254 354C182.224 354 182.199 354 182.179 354C181.929 354 181.704 353.905 181.504 353.715C181.314 353.515 181.219 353.29 181.219 353.04C181.219 352.78 181.314 352.54 181.504 352.32C181.704 352.1 181.939 351.99 182.209 351.99C182.559 351.99 182.839 352.115 183.049 352.365C183.269 352.605 183.379 352.91 183.379 353.28C183.379 353.71 183.294 354.115 183.124 354.495C182.964 354.885 182.724 355.195 182.404 355.425C182.084 355.665 181.689 355.785 181.219 355.785ZM189.525 354V346.5H190.785V347.985C190.885 347.715 191.025 347.455 191.205 347.205C191.395 346.945 191.65 346.735 191.97 346.575C192.3 346.405 192.72 346.32 193.23 346.32C193.31 346.32 193.42 346.33 193.56 346.35C193.7 346.36 193.805 346.37 193.875 346.38V347.55C193.725 347.5 193.535 347.465 193.305 347.445C193.075 347.415 192.865 347.42 192.675 347.46C192.065 347.58 191.595 347.845 191.265 348.255C190.945 348.665 190.785 349.23 190.785 349.95V354H189.525ZM198.53 354.18C197.91 354.18 197.33 354.035 196.79 353.745C196.25 353.445 195.815 353.005 195.485 352.425C195.155 351.835 194.99 351.11 194.99 350.25C194.99 349.39 195.155 348.67 195.485 348.09C195.815 347.5 196.25 347.06 196.79 346.77C197.33 346.47 197.91 346.32 198.53 346.32C199.15 346.32 199.73 346.47 200.27 346.77C200.81 347.06 201.245 347.5 201.575 348.09C201.905 348.67 202.07 349.39 202.07 350.25C202.07 351.11 201.905 351.835 201.575 352.425C201.245 353.005 200.81 353.445 200.27 353.745C199.73 354.035 199.15 354.18 198.53 354.18ZM198.53 353.04C199.28 353.04 199.845 352.795 200.225 352.305C200.615 351.815 200.81 351.13 200.81 350.25C200.81 349.37 200.615 348.685 200.225 348.195C199.845 347.705 199.28 347.46 198.53 347.46C197.78 347.46 197.21 347.705 196.82 348.195C196.44 348.685 196.25 349.37 196.25 350.25C196.25 351.13 196.44 351.815 196.82 352.305C197.21 352.795 197.78 353.04 198.53 353.04ZM199.565 345.33C199.355 345.33 199.125 345.26 198.875 345.12C198.625 344.97 198.38 344.825 198.14 344.685C197.91 344.535 197.71 344.46 197.54 344.46C197.26 344.46 197.045 344.545 196.895 344.715C196.755 344.875 196.645 345.01 196.565 345.12L195.995 344.445C196.105 344.225 196.29 344 196.55 343.77C196.81 343.53 197.14 343.41 197.54 343.41C197.76 343.41 197.99 343.485 198.23 343.635C198.48 343.775 198.72 343.92 198.95 344.07C199.19 344.21 199.395 344.28 199.565 344.28C199.855 344.28 200.07 344.2 200.21 344.04C200.35 343.87 200.46 343.73 200.54 343.62L201.11 344.295C201.01 344.515 200.83 344.745 200.57 344.985C200.31 345.215 199.975 345.33 199.565 345.33ZM1.38 372V364.5H2.64V365.91C2.69 365.73 2.805 365.515 2.985 365.265C3.165 365.015 3.43 364.795 3.78 364.605C4.13 364.415 4.585 364.32 5.145 364.32C5.715 364.32 6.21 364.47 6.63 364.77C7.06 365.06 7.36 365.49 7.53 366.06V366.03C7.58 365.85 7.705 365.625 7.905 365.355C8.105 365.085 8.39 364.845 8.76 364.635C9.14 364.425 9.61 364.32 10.17 364.32C10.9 364.32 11.5 364.555 11.97 365.025C12.45 365.495 12.69 366.18 12.69 367.08V372H11.43V367.26C11.43 366.61 11.275 366.15 10.965 365.88C10.655 365.6 10.25 365.46 9.75 365.46C9.06 365.46 8.54 365.695 8.19 366.165C7.84 366.635 7.665 367.23 7.665 367.95V372H6.405V367.26C6.405 366.61 6.25 366.15 5.94 365.88C5.63 365.6 5.225 365.46 4.725 365.46C4.035 365.46 3.515 365.695 3.165 366.165C2.815 366.635 2.64 367.23 2.64 367.95V372H1.38ZM18.1289 372.18C17.4789 372.18 16.9039 372.025 16.4039 371.715C15.9039 371.395 15.5139 370.945 15.2339 370.365C14.9539 369.775 14.8139 369.07 14.8139 368.25C14.8139 367.4 14.9589 366.685 15.2489 366.105C15.5389 365.525 15.9389 365.085 16.4489 364.785C16.9689 364.475 17.5539 364.32 18.2039 364.32C18.6439 364.32 19.0239 364.4 19.3439 364.56C19.6639 364.72 19.9289 364.925 20.1389 365.175C20.3589 365.425 20.5189 365.69 20.6189 365.97V364.5H21.8189V372H20.5739V370.56C20.4739 370.9 20.2939 371.195 20.0339 371.445C19.7839 371.685 19.4889 371.87 19.1489 372C18.8189 372.12 18.4789 372.18 18.1289 372.18ZM18.3089 371.04C18.7889 371.04 19.1939 370.915 19.5239 370.665C19.8639 370.405 20.1189 370.065 20.2889 369.645C20.4689 369.225 20.5589 368.76 20.5589 368.25C20.5589 367.42 20.3589 366.745 19.9589 366.225C19.5689 365.705 19.0039 365.445 18.2639 365.445C17.7739 365.445 17.3639 365.57 17.0339 365.82C16.7139 366.06 16.4739 366.39 16.3139 366.81C16.1539 367.23 16.0739 367.7 16.0739 368.22C16.0739 368.74 16.1539 369.215 16.3139 369.645C16.4739 370.065 16.7189 370.405 17.0489 370.665C17.3889 370.915 17.8089 371.04 18.3089 371.04ZM18.1289 374.79C17.9089 374.79 17.7139 374.705 17.5439 374.535C17.3839 374.375 17.3039 374.185 17.3039 373.965C17.3039 373.735 17.3839 373.54 17.5439 373.38C17.7139 373.22 17.9089 373.14 18.1289 373.14C18.3589 373.14 18.5489 373.22 18.6989 373.38C18.8589 373.54 18.9389 373.735 18.9389 373.965C18.9389 374.185 18.8589 374.375 18.6989 374.535C18.5489 374.705 18.3589 374.79 18.1289 374.79ZM18.4739 363.585C18.0039 363.585 17.5989 363.475 17.2589 363.255C16.9189 363.035 16.6589 362.75 16.4789 362.4C16.3089 362.04 16.2239 361.66 16.2239 361.26H17.3039C17.3039 361.59 17.4039 361.885 17.6039 362.145C17.8139 362.405 18.1039 362.535 18.4739 362.535C18.8539 362.535 19.1439 362.405 19.3439 362.145C19.5539 361.885 19.6589 361.59 19.6589 361.26H20.7389C20.7389 361.66 20.6489 362.04 20.4689 362.4C20.2989 362.75 20.0439 363.035 19.7039 363.255C19.3639 363.475 18.9539 363.585 18.4739 363.585ZM27.1052 372.18C26.2852 372.18 25.7052 371.995 25.3652 371.625C25.0252 371.255 24.8552 370.72 24.8552 370.02V365.655H23.5052V364.5H23.8502C24.2602 364.5 24.5302 364.435 24.6602 364.305C24.7902 364.165 24.8552 363.88 24.8552 363.45V362.595H26.1152V364.515H28.0502V365.655H26.1152V370.02C26.1152 370.42 26.2102 370.7 26.4002 370.86C26.5902 371.02 26.8702 371.1 27.2402 371.1C27.3402 371.1 27.4502 371.095 27.5702 371.085C27.6902 371.075 27.8102 371.06 27.9302 371.04V372.06C27.6602 372.14 27.3852 372.18 27.1052 372.18ZM29.3584 373.785C29.3584 373.785 29.3584 373.74 29.3584 373.65C29.3584 373.57 29.3584 373.49 29.3584 373.41C29.3584 373.33 29.3584 373.29 29.3584 373.29C29.3584 373.29 29.4134 373.27 29.5234 373.23C29.6334 373.2 29.7634 373.135 29.9134 373.035C30.0634 372.945 30.1934 372.815 30.3034 372.645C30.4134 372.475 30.4684 372.255 30.4684 371.985C30.4584 371.995 30.4334 372 30.3934 372C30.3634 372 30.3384 372 30.3184 372C30.0684 372 29.8434 371.905 29.6434 371.715C29.4534 371.515 29.3584 371.29 29.3584 371.04C29.3584 370.78 29.4534 370.54 29.6434 370.32C29.8434 370.1 30.0784 369.99 30.3484 369.99C30.6984 369.99 30.9784 370.115 31.1884 370.365C31.4084 370.605 31.5184 370.91 31.5184 371.28C31.5184 371.71 31.4334 372.115 31.2634 372.495C31.1034 372.885 30.8634 373.195 30.5434 373.425C30.2234 373.665 29.8284 373.785 29.3584 373.785ZM37.6642 372V364.5H38.9242V365.985C39.0242 365.715 39.1642 365.455 39.3442 365.205C39.5342 364.945 39.7892 364.735 40.1092 364.575C40.4392 364.405 40.8592 364.32 41.3692 364.32C41.4492 364.32 41.5592 364.33 41.6992 364.35C41.8392 364.36 41.9442 364.37 42.0142 364.38V365.55C41.8642 365.5 41.6742 365.465 41.4442 365.445C41.2142 365.415 41.0042 365.42 40.8142 365.46C40.2042 365.58 39.7342 365.845 39.4042 366.255C39.0842 366.665 38.9242 367.23 38.9242 367.95V372H37.6642ZM46.6693 372.18C46.0493 372.18 45.4693 372.035 44.9293 371.745C44.3893 371.445 43.9543 371.005 43.6243 370.425C43.2943 369.835 43.1293 369.11 43.1293 368.25C43.1293 367.39 43.2943 366.67 43.6243 366.09C43.9543 365.5 44.3893 365.06 44.9293 364.77C45.4693 364.47 46.0493 364.32 46.6693 364.32C47.2893 364.32 47.8693 364.47 48.4093 364.77C48.9493 365.06 49.3843 365.5 49.7143 366.09C50.0443 366.67 50.2093 367.39 50.2093 368.25C50.2093 369.11 50.0443 369.835 49.7143 370.425C49.3843 371.005 48.9493 371.445 48.4093 371.745C47.8693 372.035 47.2893 372.18 46.6693 372.18ZM46.6693 371.04C47.4193 371.04 47.9843 370.795 48.3643 370.305C48.7543 369.815 48.9493 369.13 48.9493 368.25C48.9493 367.37 48.7543 366.685 48.3643 366.195C47.9843 365.705 47.4193 365.46 46.6693 365.46C45.9193 365.46 45.3493 365.705 44.9593 366.195C44.5793 366.685 44.3893 367.37 44.3893 368.25C44.3893 369.13 44.5793 369.815 44.9593 370.305C45.3493 370.795 45.9193 371.04 46.6693 371.04ZM47.7043 363.33C47.4943 363.33 47.2643 363.26 47.0143 363.12C46.7643 362.97 46.5193 362.825 46.2793 362.685C46.0493 362.535 45.8493 362.46 45.6793 362.46C45.3993 362.46 45.1843 362.545 45.0343 362.715C44.8943 362.875 44.7843 363.01 44.7043 363.12L44.1343 362.445C44.2443 362.225 44.4293 362 44.6893 361.77C44.9493 361.53 45.2793 361.41 45.6793 361.41C45.8993 361.41 46.1293 361.485 46.3693 361.635C46.6193 361.775 46.8593 361.92 47.0893 362.07C47.3293 362.21 47.5343 362.28 47.7043 362.28C47.9943 362.28 48.2093 362.2 48.3493 362.04C48.4893 361.87 48.5993 361.73 48.6793 361.62L49.2493 362.295C49.1493 362.515 48.9693 362.745 48.7093 362.985C48.4493 363.215 48.1143 363.33 47.7043 363.33ZM56.4142 372V364.5H57.6742V365.91C57.7242 365.73 57.8392 365.515 58.0192 365.265C58.1992 365.015 58.4642 364.795 58.8142 364.605C59.1642 364.415 59.6192 364.32 60.1792 364.32C60.9092 364.32 61.5092 364.555 61.9792 365.025C62.4592 365.495 62.6992 366.18 62.6992 367.08V372H61.4392V367.26C61.4392 366.61 61.2842 366.15 60.9742 365.88C60.6642 365.6 60.2592 365.46 59.7592 365.46C59.0692 365.46 58.5492 365.695 58.1992 366.165C57.8492 366.635 57.6742 367.23 57.6742 367.95V372H56.4142ZM68.3494 372.195C67.7194 372.195 67.1344 372.04 66.5944 371.73C66.0544 371.41 65.6194 370.955 65.2894 370.365C64.9594 369.775 64.7944 369.08 64.7944 368.28C64.7944 367.46 64.9594 366.755 65.2894 366.165C65.6194 365.575 66.0544 365.12 66.5944 364.8C67.1344 364.48 67.7194 364.32 68.3494 364.32C68.9894 364.32 69.5644 364.455 70.0744 364.725C70.5944 364.985 71.0044 365.395 71.3044 365.955C71.6144 366.505 71.7694 367.215 71.7694 368.085V368.55H66.0394C66.0794 369.27 66.2894 369.87 66.6694 370.35C67.0494 370.82 67.5994 371.055 68.3194 371.055C68.7694 371.055 69.1794 370.95 69.5494 370.74C69.9194 370.53 70.2094 370.235 70.4194 369.855L71.5294 370.305C70.9094 371.565 69.8494 372.195 68.3494 372.195ZM68.3194 365.46C67.7094 365.46 67.2194 365.65 66.8494 366.03C66.4894 366.4 66.2494 366.87 66.1294 367.44H70.5094C70.5094 367.16 70.4244 366.87 70.2544 366.57C70.0944 366.26 69.8544 366 69.5344 365.79C69.2144 365.57 68.8094 365.46 68.3194 365.46ZM67.8694 363.6L69.1294 361.275H70.7794L68.9494 363.6H67.8694ZM76.5144 372.18C75.6944 372.18 75.1144 371.995 74.7744 371.625C74.4344 371.255 74.2644 370.72 74.2644 370.02V365.655H72.9144V364.5H73.2594C73.6694 364.5 73.9394 364.435 74.0694 364.305C74.1994 364.165 74.2644 363.88 74.2644 363.45V362.595H75.5244V364.515H77.4594V365.655H75.5244V370.02C75.5244 370.42 75.6194 370.7 75.8094 370.86C75.9994 371.02 76.2794 371.1 76.6494 371.1C76.7494 371.1 76.8594 371.095 76.9794 371.085C77.0994 371.075 77.2194 371.06 77.3394 371.04V372.06C77.0694 372.14 76.7944 372.18 76.5144 372.18ZM79.6976 372.18C79.4376 372.18 79.2126 372.085 79.0226 371.895C78.8326 371.705 78.7376 371.485 78.7376 371.235C78.7376 370.975 78.8326 370.75 79.0226 370.56C79.2126 370.37 79.4376 370.275 79.6976 370.275C79.9576 370.275 80.1776 370.37 80.3576 370.56C80.5376 370.75 80.6276 370.975 80.6276 371.235C80.6276 371.485 80.5376 371.705 80.3576 371.895C80.1776 372.085 79.9576 372.18 79.6976 372.18Z" fill="#333333"/>
<path d="M0 0H223V279H0V0Z" fill="#26CBFF"/>
<circle cx="111" cy="109" r="59.5" fill="white" stroke="#C4BFBC"/>
<mask id="path-5-inside-1_882_400" fill="white">
<path d="M16 278.5C16 266.09 18.4702 253.802 23.2695 242.336C28.0688 230.871 35.1033 220.454 43.9713 211.678C52.8393 202.903 63.3671 195.942 74.9537 191.193C86.5403 186.444 98.9588 184 111.5 184C124.041 184 136.46 186.444 148.046 191.193C159.633 195.942 170.161 202.903 179.029 211.678C187.897 220.454 194.931 230.871 199.73 242.336C204.53 253.802 207 266.09 207 278.5L111.5 278.5H16Z"/>
</mask>
<path d="M16 278.5C16 266.09 18.4702 253.802 23.2695 242.336C28.0688 230.871 35.1033 220.454 43.9713 211.678C52.8393 202.903 63.3671 195.942 74.9537 191.193C86.5403 186.444 98.9588 184 111.5 184C124.041 184 136.46 186.444 148.046 191.193C159.633 195.942 170.161 202.903 179.029 211.678C187.897 220.454 194.931 230.871 199.73 242.336C204.53 253.802 207 266.09 207 278.5L111.5 278.5H16Z" fill="white" stroke="#C4BFBC" stroke-width="2" mask="url(#path-5-inside-1_882_400)"/>
</svg>
