<svg width="1508" height="661" viewBox="0 0 1508 661" fill="none" xmlns="http://www.w3.org/2000/svg">
<path d="M175.278 438.244C129.191 438.244 93.214 425.607 67.346 400.334C41.478 375.061 28.544 339.232 28.544 292.848V119.8H116.852V290.172C116.852 316.932 122.055 336.11 132.462 347.706C143.166 359.302 157.735 365.1 176.17 365.1C194.605 365.1 209.025 359.302 219.432 347.706C229.839 336.11 235.042 316.932 235.042 290.172V119.8H322.012V292.848C322.012 339.232 309.078 375.061 283.21 400.334C257.342 425.607 221.365 438.244 175.278 438.244ZM582.089 438.244C557.411 438.244 534.516 434.379 513.405 426.648C492.592 418.62 474.455 407.321 458.993 392.752C443.829 378.183 431.936 361.086 423.313 341.462C414.691 321.541 410.379 299.687 410.379 275.9C410.379 252.113 414.691 230.408 423.313 210.784C431.936 190.863 443.829 173.617 458.993 159.048C474.455 144.479 492.592 133.329 513.405 125.598C534.516 117.57 557.411 113.556 582.089 113.556C610.931 113.556 636.65 118.611 659.247 128.72C682.142 138.829 701.171 153.399 716.335 172.428L660.139 223.272C650.03 211.379 638.88 202.31 626.689 196.066C614.796 189.822 601.416 186.7 586.549 186.7C573.764 186.7 562.019 188.781 551.315 192.944C540.611 197.107 531.394 203.202 523.663 211.23C516.23 218.961 510.283 228.327 505.823 239.328C501.661 250.329 499.579 262.52 499.579 275.9C499.579 289.28 501.661 301.471 505.823 312.472C510.283 323.473 516.23 332.988 523.663 341.016C531.394 348.747 540.611 354.693 551.315 358.856C562.019 363.019 573.764 365.1 586.549 365.1C601.416 365.1 614.796 361.978 626.689 355.734C638.88 349.49 650.03 340.421 660.139 328.528L716.335 379.372C701.171 398.104 682.142 412.673 659.247 423.08C636.65 433.189 610.931 438.244 582.089 438.244ZM895.328 432L761.974 119.8H857.418L969.81 390.076H913.614L1028.68 119.8H1116.1L982.298 432H895.328ZM1178.97 432V119.8H1251.67L1423.83 327.636H1389.49V119.8H1476.01V432H1403.31L1231.16 224.164H1265.5V432H1178.97Z" fill="white"/>
<path d="M43 619.5L42.3 604.1L79 566H93.6L63.1 598.4L55.9 606.3L43 619.5ZM31.4 636V566H44.4V636H31.4ZM80.2 636L53.4 604.1L62 594.6L95.4 636H80.2ZM112.252 636V566H122.952L166.852 619.9H161.552V566H174.452V636H163.752L119.852 582.1H125.152V636H112.252ZM234.009 637C228.542 637 223.509 636.1 218.909 634.3C214.309 632.5 210.309 630 206.909 626.8C203.509 623.533 200.875 619.733 199.009 615.4C197.142 611 196.209 606.2 196.209 601C196.209 595.8 197.142 591.033 199.009 586.7C200.875 582.3 203.509 578.5 206.909 575.3C210.309 572.033 214.309 569.5 218.909 567.7C223.509 565.9 228.509 565 233.909 565C239.375 565 244.375 565.9 248.909 567.7C253.509 569.5 257.509 572.033 260.909 575.3C264.309 578.5 266.942 582.3 268.809 586.7C270.675 591.033 271.609 595.8 271.609 601C271.609 606.2 270.675 611 268.809 615.4C266.942 619.8 264.309 623.6 260.909 626.8C257.509 630 253.509 632.5 248.909 634.3C244.375 636.1 239.409 637 234.009 637ZM233.909 625.6C237.442 625.6 240.709 625 243.709 623.8C246.709 622.6 249.309 620.9 251.509 618.7C253.709 616.433 255.409 613.833 256.609 610.9C257.875 607.9 258.509 604.6 258.509 601C258.509 597.4 257.875 594.133 256.609 591.2C255.409 588.2 253.709 585.6 251.509 583.4C249.309 581.133 246.709 579.4 243.709 578.2C240.709 577 237.442 576.4 233.909 576.4C230.375 576.4 227.109 577 224.109 578.2C221.175 579.4 218.575 581.133 216.309 583.4C214.109 585.6 212.375 588.2 211.109 591.2C209.909 594.133 209.309 597.4 209.309 601C209.309 604.533 209.909 607.8 211.109 610.8C212.375 613.8 214.109 616.433 216.309 618.7C218.509 620.9 221.109 622.6 224.109 623.8C227.109 625 230.375 625.6 233.909 625.6ZM307.74 636L284.54 566H298.04L318.74 629.3H312.04L333.54 566H345.54L366.44 629.3H359.94L381.14 566H393.54L370.34 636H356.54L337.44 578.9H341.04L321.64 636H307.74ZM412.13 636V566H425.13V625H461.73V636H412.13ZM491.994 595.1H526.794V605.8H491.994V595.1ZM492.994 625.1H532.494V636H479.994V566H531.094V576.9H492.994V625.1ZM554.986 636V566H585.586C593.186 566 599.853 567.467 605.586 570.4C611.319 573.333 615.786 577.4 618.986 582.6C622.186 587.8 623.786 593.933 623.786 601C623.786 608 622.186 614.133 618.986 619.4C615.786 624.6 611.319 628.667 605.586 631.6C599.853 634.533 593.186 636 585.586 636H554.986ZM567.986 625H584.986C590.253 625 594.786 624 598.586 622C602.453 620 605.419 617.2 607.486 613.6C609.619 610 610.686 605.8 610.686 601C610.686 596.133 609.619 591.933 607.486 588.4C605.419 584.8 602.453 582 598.586 580C594.786 578 590.253 577 584.986 577H567.986V625ZM678.303 637C672.836 637 667.803 636.133 663.203 634.4C658.67 632.6 654.703 630.1 651.303 626.9C647.903 623.633 645.27 619.8 643.403 615.4C641.536 611 640.603 606.2 640.603 601C640.603 595.8 641.536 591 643.403 586.6C645.27 582.2 647.903 578.4 651.303 575.2C654.77 571.933 658.803 569.433 663.403 567.7C668.003 565.9 673.036 565 678.503 565C684.436 565 689.77 565.967 694.503 567.9C699.303 569.833 703.336 572.667 706.603 576.4L698.403 584.4C695.67 581.667 692.703 579.667 689.503 578.4C686.37 577.067 682.903 576.4 679.103 576.4C675.436 576.4 672.036 577 668.903 578.2C665.77 579.4 663.07 581.1 660.803 583.3C658.536 585.5 656.77 588.1 655.503 591.1C654.303 594.1 653.703 597.4 653.703 601C653.703 604.533 654.303 607.8 655.503 610.8C656.77 613.8 658.536 616.433 660.803 618.7C663.07 620.9 665.736 622.6 668.803 623.8C671.87 625 675.27 625.6 679.003 625.6C682.47 625.6 685.803 625.067 689.003 624C692.27 622.867 695.37 621 698.303 618.4L705.703 628.1C702.036 631.033 697.77 633.267 692.903 634.8C688.103 636.267 683.236 637 678.303 637ZM693.403 626.4V600.2H705.703V628.1L693.403 626.4ZM742.849 595.1H777.649V605.8H742.849V595.1ZM743.849 625.1H783.349V636H730.849V566H781.949V576.9H743.849V625.1ZM853.378 598.2H888.278V609.2H853.378V598.2ZM854.478 636H841.478V566H892.578V576.9H854.478V636ZM945.169 637C939.702 637 934.669 636.1 930.069 634.3C925.469 632.5 921.469 630 918.069 626.8C914.669 623.533 912.035 619.733 910.169 615.4C908.302 611 907.369 606.2 907.369 601C907.369 595.8 908.302 591.033 910.169 586.7C912.035 582.3 914.669 578.5 918.069 575.3C921.469 572.033 925.469 569.5 930.069 567.7C934.669 565.9 939.669 565 945.069 565C950.535 565 955.535 565.9 960.069 567.7C964.669 569.5 968.669 572.033 972.069 575.3C975.469 578.5 978.102 582.3 979.969 586.7C981.835 591.033 982.769 595.8 982.769 601C982.769 606.2 981.835 611 979.969 615.4C978.102 619.8 975.469 623.6 972.069 626.8C968.669 630 964.669 632.5 960.069 634.3C955.535 636.1 950.569 637 945.169 637ZM945.069 625.6C948.602 625.6 951.869 625 954.869 623.8C957.869 622.6 960.469 620.9 962.669 618.7C964.869 616.433 966.569 613.833 967.769 610.9C969.035 607.9 969.669 604.6 969.669 601C969.669 597.4 969.035 594.133 967.769 591.2C966.569 588.2 964.869 585.6 962.669 583.4C960.469 581.133 957.869 579.4 954.869 578.2C951.869 577 948.602 576.4 945.069 576.4C941.535 576.4 938.269 577 935.269 578.2C932.335 579.4 929.735 581.133 927.469 583.4C925.269 585.6 923.535 588.2 922.269 591.2C921.069 594.133 920.469 597.4 920.469 601C920.469 604.533 921.069 607.8 922.269 610.8C923.535 613.8 925.269 616.433 927.469 618.7C929.669 620.9 932.269 622.6 935.269 623.8C938.269 625 941.535 625.6 945.069 625.6ZM1004.55 636V566H1033.35C1039.55 566 1044.85 567 1049.25 569C1053.72 571 1057.15 573.867 1059.55 577.6C1061.95 581.333 1063.15 585.767 1063.15 590.9C1063.15 596.033 1061.95 600.467 1059.55 604.2C1057.15 607.867 1053.72 610.7 1049.25 612.7C1044.85 614.633 1039.55 615.6 1033.35 615.6H1011.75L1017.55 609.7V636H1004.55ZM1050.35 636L1032.65 610.6H1046.55L1064.35 636H1050.35ZM1017.55 611.1L1011.75 604.9H1032.75C1038.48 604.9 1042.78 603.667 1045.65 601.2C1048.58 598.733 1050.05 595.3 1050.05 590.9C1050.05 586.433 1048.58 583 1045.65 580.6C1042.78 578.2 1038.48 577 1032.75 577H1011.75L1017.55 570.6V611.1ZM1154.03 637C1148.56 637 1143.53 636.133 1138.93 634.4C1134.4 632.6 1130.43 630.1 1127.03 626.9C1123.63 623.633 1121 619.8 1119.13 615.4C1117.26 611 1116.33 606.2 1116.33 601C1116.33 595.8 1117.26 591 1119.13 586.6C1121 582.2 1123.63 578.4 1127.03 575.2C1130.5 571.933 1134.53 569.433 1139.13 567.7C1143.73 565.9 1148.76 565 1154.23 565C1160.16 565 1165.5 565.967 1170.23 567.9C1175.03 569.833 1179.06 572.667 1182.33 576.4L1174.13 584.4C1171.4 581.667 1168.43 579.667 1165.23 578.4C1162.1 577.067 1158.63 576.4 1154.83 576.4C1151.16 576.4 1147.76 577 1144.63 578.2C1141.5 579.4 1138.8 581.1 1136.53 583.3C1134.26 585.5 1132.5 588.1 1131.23 591.1C1130.03 594.1 1129.43 597.4 1129.43 601C1129.43 604.533 1130.03 607.8 1131.23 610.8C1132.5 613.8 1134.26 616.433 1136.53 618.7C1138.8 620.9 1141.46 622.6 1144.53 623.8C1147.6 625 1151 625.6 1154.73 625.6C1158.2 625.6 1161.53 625.067 1164.73 624C1168 622.867 1171.1 621 1174.03 618.4L1181.43 628.1C1177.76 631.033 1173.5 633.267 1168.63 634.8C1163.83 636.267 1158.96 637 1154.03 637ZM1169.13 626.4V600.2H1181.43V628.1L1169.13 626.4ZM1239.38 637C1233.91 637 1228.88 636.1 1224.28 634.3C1219.68 632.5 1215.68 630 1212.28 626.8C1208.88 623.533 1206.24 619.733 1204.38 615.4C1202.51 611 1201.58 606.2 1201.58 601C1201.58 595.8 1202.51 591.033 1204.38 586.7C1206.24 582.3 1208.88 578.5 1212.28 575.3C1215.68 572.033 1219.68 569.5 1224.28 567.7C1228.88 565.9 1233.88 565 1239.28 565C1244.74 565 1249.74 565.9 1254.28 567.7C1258.88 569.5 1262.88 572.033 1266.28 575.3C1269.68 578.5 1272.31 582.3 1274.18 586.7C1276.04 591.033 1276.98 595.8 1276.98 601C1276.98 606.2 1276.04 611 1274.18 615.4C1272.31 619.8 1269.68 623.6 1266.28 626.8C1262.88 630 1258.88 632.5 1254.28 634.3C1249.74 636.1 1244.78 637 1239.38 637ZM1239.28 625.6C1242.81 625.6 1246.08 625 1249.08 623.8C1252.08 622.6 1254.68 620.9 1256.88 618.7C1259.08 616.433 1260.78 613.833 1261.98 610.9C1263.24 607.9 1263.88 604.6 1263.88 601C1263.88 597.4 1263.24 594.133 1261.98 591.2C1260.78 588.2 1259.08 585.6 1256.88 583.4C1254.68 581.133 1252.08 579.4 1249.08 578.2C1246.08 577 1242.81 576.4 1239.28 576.4C1235.74 576.4 1232.48 577 1229.48 578.2C1226.54 579.4 1223.94 581.133 1221.68 583.4C1219.48 585.6 1217.74 588.2 1216.48 591.2C1215.28 594.133 1214.68 597.4 1214.68 601C1214.68 604.533 1215.28 607.8 1216.48 610.8C1217.74 613.8 1219.48 616.433 1221.68 618.7C1223.88 620.9 1226.48 622.6 1229.48 623.8C1232.48 625 1235.74 625.6 1239.28 625.6ZM1331.56 637C1326.09 637 1321.06 636.1 1316.46 634.3C1311.86 632.5 1307.86 630 1304.46 626.8C1301.06 623.533 1298.42 619.733 1296.56 615.4C1294.69 611 1293.76 606.2 1293.76 601C1293.76 595.8 1294.69 591.033 1296.56 586.7C1298.42 582.3 1301.06 578.5 1304.46 575.3C1307.86 572.033 1311.86 569.5 1316.46 567.7C1321.06 565.9 1326.06 565 1331.46 565C1336.92 565 1341.92 565.9 1346.46 567.7C1351.06 569.5 1355.06 572.033 1358.46 575.3C1361.86 578.5 1364.49 582.3 1366.36 586.7C1368.22 591.033 1369.16 595.8 1369.16 601C1369.16 606.2 1368.22 611 1366.36 615.4C1364.49 619.8 1361.86 623.6 1358.46 626.8C1355.06 630 1351.06 632.5 1346.46 634.3C1341.92 636.1 1336.96 637 1331.56 637ZM1331.46 625.6C1334.99 625.6 1338.26 625 1341.26 623.8C1344.26 622.6 1346.86 620.9 1349.06 618.7C1351.26 616.433 1352.96 613.833 1354.16 610.9C1355.42 607.9 1356.06 604.6 1356.06 601C1356.06 597.4 1355.42 594.133 1354.16 591.2C1352.96 588.2 1351.26 585.6 1349.06 583.4C1346.86 581.133 1344.26 579.4 1341.26 578.2C1338.26 577 1334.99 576.4 1331.46 576.4C1327.92 576.4 1324.66 577 1321.66 578.2C1318.72 579.4 1316.12 581.133 1313.86 583.4C1311.66 585.6 1309.92 588.2 1308.66 591.2C1307.46 594.133 1306.86 597.4 1306.86 601C1306.86 604.533 1307.46 607.8 1308.66 610.8C1309.92 613.8 1311.66 616.433 1313.86 618.7C1316.06 620.9 1318.66 622.6 1321.66 623.8C1324.66 625 1327.92 625.6 1331.46 625.6ZM1390.94 636V566H1421.54C1429.14 566 1435.8 567.467 1441.54 570.4C1447.27 573.333 1451.74 577.4 1454.94 582.6C1458.14 587.8 1459.74 593.933 1459.74 601C1459.74 608 1458.14 614.133 1454.94 619.4C1451.74 624.6 1447.27 628.667 1441.54 631.6C1435.8 634.533 1429.14 636 1421.54 636H1390.94ZM1403.94 625H1420.94C1426.2 625 1430.74 624 1434.54 622C1438.4 620 1441.37 617.2 1443.44 613.6C1445.57 610 1446.64 605.8 1446.64 601C1446.64 596.133 1445.57 591.933 1443.44 588.4C1441.37 584.8 1438.4 582 1434.54 580C1430.74 578 1426.2 577 1420.94 577H1403.94V625Z" fill="white"/>
</svg>
