<svg width="230" height="230" viewBox="0 0 230 230" fill="none" xmlns="http://www.w3.org/2000/svg">
<g filter="url(#filter0_d_844_392)">
<path d="M7 110.918C7 139.426 18.3785 166.767 38.6325 186.926C58.8864 207.084 86.3566 218.409 115 218.409C143.643 218.409 171.114 207.084 191.368 186.926C211.621 166.767 223 139.426 223 110.918C223 82.4094 211.621 55.0685 191.368 34.91C171.114 14.7515 143.643 3.42651 115 3.42651C86.3566 3.42651 58.8864 14.7515 38.6325 34.91C18.3785 55.0685 7 82.4094 7 110.918Z" fill="#FFA2A2"/>
<path d="M5.5 110.918C5.5 139.826 17.0383 167.55 37.5743 187.989C58.1101 208.428 85.9611 219.909 115 219.909C144.039 219.909 171.89 208.428 192.426 187.989C212.962 167.55 224.5 139.826 224.5 110.918C224.5 82.0093 212.962 54.2861 192.426 33.8468C171.89 13.4078 144.039 1.92651 115 1.92651C85.9611 1.92651 58.1101 13.4078 37.5743 33.8468C17.0383 54.2861 5.5 82.0093 5.5 110.918Z" stroke="white" stroke-width="3"/>
</g>
<g filter="url(#filter1_d_844_392)">
<path d="M14.8934 62.8062C14.4 53.9834 21.1523 46.4312 29.975 45.9378L191.695 36.8935C200.518 36.4 208.07 43.1523 208.564 51.9751L214.514 158.361C215.007 167.184 208.255 174.736 199.432 175.229L37.7115 184.274C28.8888 184.767 21.3365 178.015 20.8431 169.192L14.8934 62.8062Z" fill="white"/>
</g>
<path d="M23.6565 93.9374C23.5948 92.8346 24.4388 91.8906 25.5417 91.8289L69.3822 89.3771C70.485 89.3154 71.4291 90.1594 71.4908 91.2623L75.2475 158.437C75.3092 159.539 74.4652 160.483 73.3623 160.545L29.5218 162.997C28.4189 163.059 27.4749 162.215 27.4132 161.112L23.6565 93.9374Z" fill="#B0D9FF" fill-opacity="0.52"/>
<path d="M25.5696 92.3281L69.4101 89.8763C70.2373 89.83 70.9453 90.4631 70.9915 91.2902L74.7483 158.465C74.7946 159.292 74.1615 160 73.3344 160.046L29.4939 162.498C28.6667 162.544 27.9587 161.911 27.9125 161.084L24.1557 93.9095C24.1094 93.0824 24.7425 92.3744 25.5696 92.3281Z" stroke="black" stroke-opacity="0.68"/>
<path d="M14.8934 62.8062C14.4 53.9834 21.1523 46.4312 29.975 45.9378L191.695 36.8935C200.518 36.4 208.07 43.1523 208.564 51.9751L214.514 158.361C215.007 167.184 208.255 174.736 199.432 175.229L37.7115 184.274C28.8888 184.767 21.3365 178.015 20.8431 169.192L14.8934 62.8062Z" stroke="black" stroke-width="2" stroke-linecap="round" stroke-linejoin="round"/>
<path d="M166.149 120.658C166.291 123.204 162.69 125.477 158.106 125.734C153.523 125.99 149.69 124.117 149.548 121.587C149.407 119.056 153.007 116.768 157.591 116.511C162.174 116.255 166.005 118.097 166.149 120.658Z" fill="#FFBAB9"/>
<path d="M64.7025 126.332C64.8448 128.878 69.0898 130.712 74.1828 130.427C79.2757 130.142 83.2897 127.846 83.1473 125.3C83.0049 122.754 78.76 120.92 73.667 121.205C68.574 121.49 64.5592 123.77 64.7025 126.332Z" fill="#FFBAB9"/>
<path d="M83.8053 103.985C83.9147 105.942 84.6998 107.781 85.9879 109.097C87.276 110.413 88.9615 111.098 90.6736 111.002C92.3858 110.907 93.9843 110.037 95.1176 108.586C96.2509 107.135 96.8261 105.22 96.7167 103.263C96.6072 101.307 95.8221 99.4681 94.5341 98.1522C93.246 96.8362 91.5605 96.1508 89.8484 96.2465C88.1362 96.3423 86.5377 97.2114 85.4044 98.6627C84.2711 100.114 83.6959 102.029 83.8053 103.985Z" fill="#0D0908"/>
<path d="M131.762 101.304C131.871 103.26 132.656 105.099 133.944 106.415C135.233 107.731 136.918 108.416 138.63 108.32C140.342 108.225 141.941 107.356 143.074 105.904C144.207 104.453 144.783 102.538 144.673 100.582C144.564 98.6248 143.779 96.7862 142.491 95.4703C141.203 94.1544 139.517 93.4689 137.805 93.5646C136.093 93.6604 134.494 94.5295 133.361 95.9809C132.228 97.4322 131.652 99.3468 131.762 101.304Z" fill="#0D0908"/>
<path d="M117.744 164.988C125.912 164.703 133.706 161.526 139.686 156.045C145.666 150.563 149.43 143.147 150.283 135.164C150.319 134.685 150.235 134.204 150.04 133.764C149.844 133.324 149.542 132.938 149.16 132.639C148.764 132.328 148.302 132.108 147.807 131.995C147.313 131.883 146.799 131.88 146.303 131.988C126.402 136.268 105.941 137.412 85.6871 135.378C85.1823 135.326 84.6718 135.386 84.1932 135.553C83.7146 135.72 83.2799 135.99 82.9211 136.344C82.5753 136.684 82.3187 137.102 82.1733 137.56C82.0279 138.019 81.9979 138.505 82.0861 138.978C83.8228 146.815 88.3894 153.766 94.9432 158.547C101.497 163.327 109.595 165.615 117.744 164.988Z" fill="#FF2424" stroke="#020064" stroke-linecap="round" stroke-linejoin="round"/>
<path d="M92.3011 156.643C99.8811 152.704 108.314 150.518 116.921 150.259C125.503 149.555 134.129 150.786 142.102 153.854C135.813 160.473 127.065 164.475 117.747 164.996C108.429 165.517 99.2888 162.519 92.3011 156.643Z" fill="white" stroke="#020064" stroke-linecap="round" stroke-linejoin="round"/>
<path d="M36.6369 54.2542L36.5732 53.115L41.9406 52.8148L42.0043 53.954L40.0035 54.0659L40.3053 59.462L38.9395 59.5383L38.6377 54.1423L36.6369 54.2542ZM43.4595 59.2856L43.094 52.7503L44.4758 52.673L44.6266 55.3695L47.4315 55.2126L47.2807 52.5162L48.6592 52.4391L49.0247 58.9743L47.6462 59.0514L47.4952 56.3518L44.6903 56.5087L44.8413 59.2083L43.4595 59.2856ZM56.1082 51.7856L56.9857 51.7365C57.0101 52.1727 56.9724 52.5482 56.8727 52.8632C56.775 53.1781 56.5893 53.4254 56.3156 53.605C56.0438 53.7824 55.6579 53.8851 55.158 53.913L55.118 53.1982C55.4435 53.18 55.6788 53.1124 55.8237 52.9955C55.9687 52.8786 56.0558 52.7179 56.0849 52.5136C56.1161 52.3091 56.1239 52.0664 56.1082 51.7856ZM54.1047 52.1345L55.4864 52.0573L55.7237 56.3013C55.7504 56.7779 55.6599 57.2012 55.4522 57.5713C55.2467 57.9413 54.9464 58.2377 54.5513 58.4604C54.156 58.681 53.6882 58.8063 53.1478 58.8366C52.6054 58.8669 52.1254 58.7945 51.708 58.6194C51.2905 58.4421 50.959 58.1811 50.7136 57.8363C50.4681 57.4916 50.332 57.0809 50.3053 56.6044L50.068 52.3603L51.4497 52.283L51.6805 56.409C51.6944 56.6579 51.761 56.8761 51.8803 57.0637C52.0018 57.2511 52.1656 57.3945 52.3717 57.4939C52.5779 57.5934 52.8139 57.6357 53.0799 57.6208C53.3479 57.6058 53.5778 57.5375 53.7694 57.4158C53.9632 57.294 54.1089 57.1332 54.2066 56.9336C54.3064 56.7338 54.3493 56.5095 54.3354 56.2606L54.1047 52.1345ZM61.6864 51.7105L63.5437 56.5874L63.6043 56.5841L64.9094 51.5303L66.4411 51.4446L64.5537 58.1059L62.7731 58.2054L60.1515 51.7964L61.6864 51.7105ZM68.879 51.3083L69.2444 57.8435L67.8627 57.9208L67.4972 51.3856L68.879 51.3083ZM70.6508 57.7649L70.2853 51.2296L74.689 50.9834L74.7527 52.1226L71.7308 52.2916L71.8179 53.8488L74.6132 53.6925L74.6769 54.8317L71.8816 54.988L71.9688 56.5484L75.0035 56.3787L75.0672 57.5179L70.6508 57.7649ZM73.1053 50.4829L72.4204 49.7402L71.8225 50.5547L70.6642 50.6195L70.6617 50.5748L71.8755 49.0985L72.8871 49.0419L74.2611 50.3735L74.2636 50.4182L73.1053 50.4829ZM72.9425 59.4773C72.7404 59.4886 72.5633 59.4313 72.4111 59.3053C72.259 59.1794 72.1776 59.0218 72.167 58.8324C72.1564 58.6431 72.2197 58.4774 72.3569 58.3353C72.494 58.1932 72.6637 58.1165 72.8658 58.1051C73.0679 58.0938 73.2439 58.1512 73.394 58.2773C73.5461 58.4032 73.6275 58.5608 73.6381 58.7502C73.6487 58.9395 73.5854 59.1052 73.4482 59.2473C73.3132 59.3893 73.1446 59.466 72.9425 59.4773ZM81.5233 50.6011L81.8888 57.1364L80.6954 57.2031L77.6221 53.2489L77.5742 53.2516L77.8043 57.3648L76.4226 57.4421L76.0571 50.9068L77.2697 50.839L80.3204 54.7913L80.3778 54.7881L80.148 50.6781L81.5233 50.6011ZM87.9889 54.5161L89.1632 54.4504L89.796 55.1769L90.4146 55.8209L91.5859 57.1318L90.2967 57.2039L89.4919 56.3207L89.0751 55.7934L87.9889 54.5161ZM91.4721 53.3226C91.512 54.0353 91.4108 54.6491 91.1686 55.1641C90.9285 55.6791 90.5839 56.0814 90.1349 56.3711C89.6879 56.6586 89.1761 56.8185 88.5996 56.8507C88.0189 56.8832 87.4903 56.7804 87.0139 56.5425C86.5375 56.3045 86.1513 55.943 85.8553 55.4581C85.5593 54.9732 85.3914 54.3754 85.3517 53.6649C85.3118 52.9522 85.412 52.3384 85.652 51.8235C85.8921 51.3086 86.2357 50.9074 86.6827 50.6199C87.1296 50.3303 87.6434 50.1692 88.2242 50.1368C88.8007 50.1045 89.3271 50.2074 89.8035 50.4454C90.2819 50.6811 90.6691 51.0414 90.9651 51.5264C91.2632 52.0112 91.4322 52.6099 91.4721 53.3226ZM90.0712 53.4009C90.0454 52.9393 89.9545 52.5539 89.7985 52.2446C89.6446 51.9353 89.4387 51.7056 89.1806 51.5557C88.9225 51.4059 88.6265 51.3403 88.2925 51.3589C87.9585 51.3776 87.6716 51.4758 87.4319 51.6535C87.1922 51.8313 87.012 52.0825 86.8915 52.4072C86.773 52.7318 86.7267 53.1249 86.7526 53.5865C86.7784 54.0482 86.8682 54.4337 87.0221 54.743C87.1781 55.0523 87.3851 55.2818 87.6432 55.4317C87.9013 55.5816 88.1973 55.6472 88.5313 55.6285C88.8653 55.6099 89.1521 55.5117 89.3919 55.3339C89.6316 55.1562 89.8107 54.905 89.9291 54.5805C90.0497 54.2557 90.0971 53.8626 90.0712 53.4009ZM96.6191 49.7569L98.0008 49.6796L98.2382 53.9237C98.2648 54.4002 98.1743 54.8236 97.9667 55.1937C97.7612 55.5637 97.4609 55.86 97.0657 56.0827C96.6705 56.3033 96.2027 56.4287 95.6623 56.4589C95.1198 56.4893 94.6399 56.4169 94.2225 56.2417C93.805 56.0645 93.4735 55.8035 93.228 55.4587C92.9825 55.1139 92.8465 54.7033 92.8198 54.2267L92.5825 49.9827L93.9642 49.9054L94.1949 54.0314C94.2088 54.2803 94.2755 54.4985 94.3948 54.686C94.5162 54.8734 94.68 55.0168 94.8862 55.1163C95.0924 55.2157 95.3284 55.258 95.5943 55.2431C95.8624 55.2281 96.0922 55.1598 96.2839 55.0381C96.4777 54.9163 96.6234 54.7556 96.7211 54.5559C96.8209 54.3561 96.8638 54.1318 96.8499 53.8829L96.6191 49.7569ZM105.595 52.5327C105.635 53.2454 105.534 53.8592 105.292 54.3743C105.052 54.8892 104.707 55.2915 104.258 55.5813C103.811 55.8687 103.3 56.0286 102.723 56.0608C102.142 56.0933 101.614 55.9906 101.137 55.7526C100.661 55.5146 100.275 55.1532 99.9787 54.6682C99.6827 54.1833 99.5148 53.5856 99.4751 52.875C99.4352 52.1624 99.5354 51.5486 99.7754 51.0336C100.016 50.5187 100.359 50.1175 100.806 49.83C101.253 49.5404 101.767 49.3794 102.348 49.3469C102.924 49.3147 103.451 49.4175 103.927 49.6555C104.405 49.8912 104.793 50.2516 105.089 50.7365C105.387 51.2213 105.556 51.8201 105.595 52.5327ZM104.195 52.6111C104.169 52.1494 104.078 51.764 103.922 51.4548C103.768 51.1454 103.562 50.9158 103.304 50.7659C103.046 50.616 102.75 50.5504 102.416 50.5691C102.082 50.5878 101.795 50.686 101.555 50.8637C101.316 51.0414 101.135 51.2926 101.015 51.6173C100.896 51.9419 100.85 52.335 100.876 52.7967C100.902 53.2583 100.992 53.6438 101.145 53.9532C101.302 54.2624 101.509 54.492 101.767 54.6419C102.025 54.7918 102.321 54.8574 102.655 54.8387C102.989 54.82 103.276 54.7218 103.515 54.5441C103.755 54.3663 103.934 54.1152 104.053 53.7906C104.173 53.4659 104.22 53.0727 104.195 52.6111ZM100.66 48.9931L101.891 47.9288L102.624 47.8878L103.972 48.8079L102.993 48.8627L102.289 48.3642L101.636 48.9385L100.66 48.9931ZM103.606 48.265L104.286 47.0266L105.339 46.9677L104.375 48.222L103.606 48.265ZM112.6 51.1583L111.202 51.2365C111.167 51.0571 111.106 50.8994 111.019 50.7634C110.932 50.6252 110.825 50.5096 110.696 50.4165C110.567 50.3234 110.42 50.2548 110.255 50.2107C110.093 50.1664 109.918 50.1495 109.73 50.16C109.392 50.1789 109.102 50.2794 108.861 50.4615C108.619 50.6415 108.438 50.8949 108.317 51.2217C108.197 51.5464 108.149 51.9354 108.175 52.3885C108.201 52.8544 108.292 53.242 108.448 53.5512C108.606 53.8603 108.815 54.0887 109.075 54.2363C109.335 54.384 109.63 54.4486 109.96 54.4301C110.145 54.4198 110.315 54.3857 110.469 54.328C110.626 54.2702 110.764 54.191 110.882 54.0905C111 53.9878 111.095 53.8662 111.169 53.7255C111.244 53.5847 111.293 53.4262 111.315 53.25L112.713 53.1782C112.694 53.4802 112.619 53.7746 112.49 54.0613C112.363 54.3459 112.185 54.6045 111.954 54.8372C111.726 55.0676 111.448 55.256 111.122 55.4023C110.797 55.5464 110.425 55.6301 110.006 55.6536C109.423 55.6862 108.894 55.5834 108.42 55.3453C107.948 55.1071 107.565 54.7455 107.271 54.2604C106.979 53.7752 106.813 53.1774 106.774 52.4668C106.734 51.7542 106.834 51.1404 107.074 50.6255C107.314 50.1105 107.657 49.7094 108.102 49.422C108.546 49.1325 109.056 48.9717 109.63 48.9396C110.009 48.9184 110.363 48.952 110.692 49.0403C111.024 49.1284 111.321 49.2676 111.583 49.4578C111.845 49.6459 112.063 49.8823 112.237 50.1671C112.413 50.4517 112.534 50.7821 112.6 51.1583ZM120.533 50.5386C120.48 50.3858 120.41 50.2521 120.322 50.1374C120.234 50.0207 120.13 49.9241 120.008 49.8477C119.889 49.769 119.753 49.7115 119.602 49.6752C119.452 49.6387 119.288 49.6255 119.11 49.6355C118.776 49.6541 118.487 49.7535 118.243 49.9336C118.001 50.1136 117.819 50.366 117.696 50.6908C117.573 51.0135 117.525 51.4025 117.55 51.8578C117.576 52.313 117.666 52.6963 117.823 53.0077C117.979 53.3191 118.188 53.5517 118.451 53.7056C118.713 53.8574 119.017 53.9236 119.361 53.9044C119.674 53.8869 119.938 53.8166 120.153 53.6936C120.37 53.5684 120.531 53.4004 120.637 53.1896C120.745 52.9787 120.791 52.7339 120.775 52.4553L121.058 52.481L119.373 52.5753L119.315 51.535L122.05 51.382L122.096 52.2053C122.128 52.7797 122.034 53.28 121.815 53.7063C121.595 54.1305 121.279 54.4661 120.866 54.7133C120.453 54.9583 119.972 55.0962 119.423 55.1269C118.81 55.1611 118.265 55.0562 117.786 54.8119C117.307 54.5656 116.924 54.1997 116.636 53.7143C116.351 53.2266 116.189 52.6381 116.15 51.9489C116.12 51.4192 116.171 50.9426 116.301 50.5192C116.433 50.0935 116.63 49.7283 116.892 49.4234C117.155 49.1185 117.467 48.8801 117.829 48.7084C118.19 48.5366 118.587 48.4387 119.019 48.4145C119.389 48.3938 119.737 48.4288 120.062 48.5195C120.387 48.608 120.678 48.7432 120.936 48.9251C121.196 49.1069 121.412 49.3285 121.585 49.5899C121.757 49.8491 121.875 50.1392 121.937 50.46L120.533 50.5386ZM124.569 48.1938L124.935 54.729L123.553 54.8063L123.187 48.2711L124.569 48.1938ZM127.467 54.5874L125.987 54.6702L127.877 48.0088L129.658 47.9092L132.276 54.3184L130.796 54.4012L128.877 49.451L128.826 49.4538L127.467 54.5874ZM127.231 52.0238L130.729 51.8282L130.789 52.9067L127.292 53.1023L127.231 52.0238ZM136.497 47.5267L138.354 52.4036L138.415 52.4002L139.72 47.3465L141.252 47.2608L139.364 53.922L137.584 54.0216L134.962 47.6125L136.497 47.5267ZM143.69 47.1245L144.055 53.6597L142.673 53.737L142.308 47.2017L143.69 47.1245ZM145.461 53.581L145.096 47.0458L149.5 46.7995L149.563 47.9387L146.541 48.1077L146.628 49.665L149.424 49.5086L149.487 50.6478L146.692 50.8042L146.779 52.3646L149.814 52.1949L149.878 53.3341L145.461 53.581ZM147.916 46.2991L147.231 45.5564L146.633 46.3709L145.475 46.4356L145.472 46.391L146.686 44.9146L147.698 44.8581L149.072 46.1897L149.074 46.2343L147.916 46.2991ZM147.753 55.2935C147.551 55.3048 147.374 55.2475 147.222 55.1215C147.07 54.9956 146.988 54.838 146.978 54.6486C146.967 54.4593 147.03 54.2936 147.167 54.1515C147.305 54.0093 147.474 53.9326 147.676 53.9213C147.878 53.91 148.054 53.9674 148.205 54.0935C148.357 54.2194 148.438 54.377 148.449 54.5664C148.459 54.7557 148.396 54.9214 148.259 55.0635C148.124 55.2055 147.955 55.2822 147.753 55.2935ZM150.682 47.8761L150.619 46.7369L155.986 46.4368L156.05 47.576L154.049 47.6879L154.351 53.0839L152.985 53.1603L152.683 47.7642L150.682 47.8761ZM164.955 45.9352L165.321 52.4704L164.127 52.5372L161.054 48.5829L161.006 48.5856L161.236 52.6988L159.854 52.7761L159.489 46.2409L160.701 46.1731L163.752 50.1254L163.81 50.1221L163.58 46.0121L164.955 45.9352ZM167.858 52.3285L166.378 52.4113L168.268 45.7499L170.049 45.6503L172.667 52.0596L171.186 52.1424L169.268 47.1921L169.216 47.1949L167.858 52.3285ZM167.622 49.7649L171.119 49.5693L171.18 50.6479L167.682 50.8435L167.622 49.7649ZM173.358 45.4652L175.062 45.3699L177.107 49.6602L177.184 49.6559L178.738 45.1644L180.442 45.0691L180.807 51.6043L179.467 51.6793L179.229 47.4256L179.175 47.4286L177.72 51.745L176.807 51.796L174.879 47.6529L174.825 47.6559L175.064 51.9255L173.723 52.0005L173.358 45.4652Z" fill="black"/>
<path d="M47.7231 67.2686L47.9261 70.8993L47.2631 70.9364L45.5557 68.7396L45.5291 68.7411L45.6569 71.0262L44.8893 71.0692L44.6863 67.4385L45.3599 67.4008L47.0548 69.5965L47.0867 69.5947L46.959 67.3114L47.7231 67.2686ZM51.1331 70.72L50.3105 70.766L51.3608 67.0652L52.35 67.0099L53.8047 70.5706L52.9821 70.6166L51.916 67.8664L51.8877 67.868L51.1331 70.72ZM51.0019 69.2957L52.9448 69.1871L52.9784 69.7863L51.0354 69.8949L51.0019 69.2957ZM55.4391 67.472L55.4037 66.8391L58.3855 66.6723L58.4209 67.3052L57.3094 67.3674L57.477 70.3652L56.7183 70.4076L56.5506 67.4098L55.4391 67.472ZM61.5912 66.493L61.7942 70.1237L61.0266 70.1667L60.8235 66.536L61.5912 66.493ZM67.6076 67.9776C67.6298 68.3735 67.5735 68.7146 67.439 69.0007C67.3056 69.2868 67.1142 69.5103 66.8647 69.6712C66.6164 69.8309 66.3321 69.9198 66.0118 69.9377C65.6891 69.9557 65.3955 69.8986 65.1308 69.7664C64.8662 69.6342 64.6516 69.4334 64.4872 69.164C64.3227 68.8946 64.2295 68.5625 64.2074 68.1678C64.1852 67.7718 64.2409 67.4308 64.3742 67.1448C64.5076 66.8587 64.6985 66.6358 64.9468 66.4761C65.1951 66.3152 65.4805 66.2257 65.8032 66.2077C66.1235 66.1898 66.416 66.2469 66.6806 66.3791C66.9464 66.5101 67.1615 66.7103 67.326 66.9797C67.4916 67.249 67.5855 67.5817 67.6076 67.9776ZM66.8294 68.0211C66.815 67.7647 66.7645 67.5505 66.6778 67.3787C66.5923 67.2069 66.4779 67.0793 66.3345 66.996C66.1912 66.9127 66.0267 66.8763 65.8412 66.8867C65.6556 66.8971 65.4962 66.9516 65.3631 67.0503C65.2299 67.1491 65.1298 67.2887 65.0628 67.469C64.997 67.6494 64.9713 67.8678 64.9856 68.1242C65 68.3807 65.0499 68.5949 65.1354 68.7667C65.2221 68.9385 65.3371 69.0661 65.4804 69.1493C65.6238 69.2326 65.7883 69.2691 65.9738 69.2587C66.1594 69.2483 66.3187 69.1937 66.4519 69.095C66.5851 68.9963 66.6846 68.8567 66.7504 68.6764C66.8174 68.496 66.8437 68.2776 66.8294 68.0211ZM73.0585 65.8517L73.2615 69.4824L72.5985 69.5195L70.8911 67.3227L70.8645 67.3242L70.9923 69.6093L70.2247 69.6523L70.0217 66.0216L70.6953 65.9839L72.3902 68.1796L72.4221 68.1778L72.2944 65.8945L73.0585 65.8517ZM76.4685 69.3031L75.6459 69.3491L76.6962 65.6483L77.6855 65.593L79.1401 69.1537L78.3175 69.1997L77.2514 66.4495L77.2231 66.4511L76.4685 69.3031ZM76.3373 67.8788L78.2803 67.7702L78.3138 68.3694L76.3708 68.4781L76.3373 67.8788ZM81.5241 69.0203L81.321 65.3896L82.0886 65.3467L82.2563 68.3445L83.8128 68.2575L83.8482 68.8904L81.5241 69.0203ZM89.4059 68.5795L89.2028 64.9489L89.9704 64.9059L90.1381 67.9037L91.6946 67.8167L91.73 68.4496L89.4059 68.5795ZM94.7499 64.6386L94.9529 68.2693L94.1853 68.3122L93.9823 64.6816L94.7499 64.6386ZM97.5315 68.1251L97.3284 64.4944L98.7821 64.4131C99.0492 64.3982 99.2742 64.4253 99.4571 64.4945C99.64 64.5637 99.7803 64.6661 99.878 64.8018C99.9756 64.9362 100.029 65.0944 100.04 65.2764C100.048 65.4182 100.026 65.5445 99.9755 65.6552C99.9247 65.7648 99.8516 65.8566 99.7562 65.9307C99.6618 66.0036 99.5522 66.0577 99.4274 66.0931L99.4293 66.1286C99.5679 66.1268 99.6995 66.1585 99.8241 66.2239C99.9499 66.2892 100.054 66.3847 100.137 66.5105C100.22 66.6351 100.266 66.7866 100.276 66.9651C100.287 67.1577 100.249 67.3323 100.162 67.489C100.075 67.6444 99.9421 67.771 99.7614 67.8688C99.5807 67.9666 99.3545 68.0232 99.0827 68.0384L97.5315 68.1251ZM98.264 67.4546L98.8898 67.4196C99.1037 67.4077 99.2574 67.3582 99.351 67.2711C99.4444 67.1829 99.4873 67.0702 99.4797 66.9331C99.474 66.8327 99.4449 66.7454 99.3921 66.6713C99.3394 66.5972 99.2668 66.5408 99.1746 66.5021C99.0835 66.4633 98.9765 66.4473 98.8536 66.4542L98.2101 66.4902L98.264 67.4546ZM98.181 65.9708L98.7501 65.939C98.8553 65.9331 98.9476 65.9095 99.0271 65.8683C99.1077 65.8259 99.1697 65.7691 99.2132 65.6979C99.2578 65.6266 99.2774 65.5431 99.2721 65.4474C99.2648 65.3162 99.2122 65.213 99.1143 65.1379C99.0176 65.0627 98.8842 65.0298 98.714 65.0394L98.1307 65.072L98.181 65.9708ZM102.779 67.8316L102.576 64.201L104.008 64.1208C104.282 64.1055 104.519 64.1415 104.719 64.2287C104.919 64.3147 105.075 64.4441 105.187 64.6169C105.299 64.7884 105.362 64.9942 105.376 65.2341C105.389 65.4752 105.349 65.6855 105.255 65.8651C105.16 66.0434 105.017 66.1842 104.825 66.2874C104.634 66.3906 104.399 66.45 104.12 66.4656L103.161 66.5192L103.126 65.9023L103.961 65.8556C104.108 65.8474 104.228 65.8205 104.323 65.7749C104.418 65.7293 104.486 65.665 104.529 65.582C104.573 65.4989 104.592 65.3977 104.585 65.2783C104.578 65.1577 104.549 65.0575 104.495 64.9774C104.444 64.8974 104.367 64.8388 104.267 64.8017C104.168 64.7634 104.044 64.7484 103.896 64.7566L103.379 64.7856L103.547 67.7887L102.779 67.8316ZM104.647 66.0697L105.642 67.6715L104.795 67.7189L103.819 66.116L104.647 66.0697ZM108.628 67.5045L107.805 67.5505L108.856 63.8498L109.845 63.7944L111.299 67.3551L110.477 67.4011L109.411 64.651L109.382 64.6526L108.628 67.5045ZM108.497 66.0803L110.44 65.9717L110.473 66.5709L108.53 66.6795L108.497 66.0803ZM113.683 67.2218L113.48 63.5911L114.913 63.511C115.187 63.4957 115.424 63.5316 115.623 63.6189C115.823 63.7049 115.979 63.8343 116.091 64.0071C116.204 64.1786 116.267 64.3843 116.28 64.6242C116.294 64.8653 116.253 65.0757 116.159 65.2552C116.065 65.4336 115.921 65.5744 115.729 65.6776C115.538 65.7808 115.303 65.8401 115.024 65.8557L114.065 65.9094L114.031 65.2924L114.866 65.2457C115.012 65.2375 115.133 65.2107 115.228 65.165C115.322 65.1194 115.391 65.0551 115.434 64.9721C115.478 64.889 115.496 64.7878 115.49 64.6685C115.483 64.5479 115.453 64.4476 115.4 64.3676C115.348 64.2875 115.272 64.2289 115.171 64.1919C115.072 64.1536 114.948 64.1385 114.801 64.1468L114.283 64.1758L114.451 67.1789L113.683 67.2218ZM115.552 65.4599L116.546 67.0617L115.699 67.1091L114.724 65.5062L115.552 65.4599ZM118.34 63.3194L119.199 63.2713L120.115 64.7886L120.15 64.7866L120.891 63.1767L121.75 63.1286L120.557 65.5499L120.629 66.8334L119.867 66.876L119.795 65.5925L118.34 63.3194ZM130.657 64.4515C130.679 64.8475 130.623 65.1885 130.488 65.4746C130.355 65.7607 130.164 65.9842 129.914 66.1452C129.666 66.3049 129.381 66.3937 129.061 66.4116C128.738 66.4296 128.445 66.3726 128.18 66.2403C127.916 66.1081 127.701 65.9073 127.537 65.6379C127.372 65.3685 127.279 65.0364 127.257 64.6417C127.235 64.2458 127.29 63.9048 127.424 63.6187C127.557 63.3326 127.748 63.1097 127.996 62.95C128.244 62.7891 128.53 62.6997 128.853 62.6816C129.173 62.6637 129.465 62.7209 129.73 62.8531C129.996 62.984 130.211 63.1842 130.375 63.4536C130.541 63.723 130.635 64.0556 130.657 64.4515ZM129.879 64.4951C129.864 64.2386 129.814 64.0245 129.727 63.8527C129.642 63.6808 129.527 63.5532 129.384 63.4699C129.241 63.3867 129.076 63.3502 128.891 63.3606C128.705 63.371 128.546 63.4255 128.412 63.5243C128.279 63.623 128.179 63.7626 128.112 63.943C128.046 64.1233 128.021 64.3417 128.035 64.5982C128.049 64.8546 128.099 65.0688 128.185 65.2407C128.271 65.4125 128.386 65.54 128.53 65.6233C128.673 65.7065 128.838 65.743 129.023 65.7326C129.209 65.7222 129.368 65.6677 129.501 65.5689C129.634 65.4702 129.734 65.3307 129.8 65.1503C129.867 64.9699 129.893 64.7515 129.879 64.4951ZM133.274 66.1262L133.071 62.4955L135.475 62.3611L135.51 62.9939L133.874 63.0855L133.922 63.9506L135.399 63.868L135.435 64.5009L133.958 64.5835L134.042 66.0833L133.274 66.1262ZM141.697 62.0131L142.728 64.7225L142.762 64.7206L143.487 61.913L144.338 61.8654L143.289 65.5661L142.3 65.6214L140.844 62.0608L141.697 62.0131ZM147.49 61.6891L147.693 65.3198L146.925 65.3628L146.722 61.7321L147.49 61.6891ZM150.271 65.1756L150.068 61.5449L152.515 61.4081L152.55 62.041L150.871 62.1349L150.919 63L152.472 62.9132L152.508 63.5461L150.955 63.6329L151.003 64.4998L152.689 64.4055L152.725 65.0384L150.271 65.1756ZM154.969 61.9057L154.933 61.2728L157.915 61.1061L157.951 61.739L156.839 61.8011L157.007 64.7989L156.248 64.8414L156.08 61.8436L154.969 61.9057ZM163.39 60.7999L163.593 64.4306L162.93 64.4677L161.223 62.2709L161.196 62.2723L161.324 64.5575L160.556 64.6004L160.353 60.9697L161.027 60.932L162.722 63.1278L162.754 63.126L162.626 60.8426L163.39 60.7999ZM166.8 64.2512L165.978 64.2972L167.028 60.5964L168.017 60.5411L169.472 64.1018L168.649 64.1478L167.583 61.3977L167.555 61.3992L166.8 64.2512ZM166.669 62.827L168.612 62.7183L168.645 63.3175L166.702 63.4262L166.669 62.827ZM171.653 60.3378L172.599 60.2849L173.736 62.6683L173.778 62.6659L174.642 60.1706L175.588 60.1177L175.791 63.7484L175.047 63.79L174.915 61.4269L174.884 61.4286L174.076 63.8265L173.569 63.8549L172.498 61.5532L172.468 61.5548L172.6 63.9268L171.856 63.9685L171.653 60.3378Z" fill="black"/>
<defs>
<filter id="filter0_d_844_392" x="0" y="0.426514" width="230" height="228.983" filterUnits="userSpaceOnUse" color-interpolation-filters="sRGB">
<feFlood flood-opacity="0" result="BackgroundImageFix"/>
<feColorMatrix in="SourceAlpha" type="matrix" values="0 0 0 0 0 0 0 0 0 0 0 0 0 0 0 0 0 0 127 0" result="hardAlpha"/>
<feOffset dy="4"/>
<feGaussianBlur stdDeviation="2"/>
<feComposite in2="hardAlpha" operator="out"/>
<feColorMatrix type="matrix" values="0 0 0 0 0 0 0 0 0 0 0 0 0 0 0 0 0 0 0.25 0"/>
<feBlend mode="normal" in2="BackgroundImageFix" result="effect1_dropShadow_844_392"/>
<feBlend mode="normal" in="SourceGraphic" in2="effect1_dropShadow_844_392" result="shape"/>
</filter>
<filter id="filter1_d_844_392" x="10.868" y="36.868" width="207.671" height="155.431" filterUnits="userSpaceOnUse" color-interpolation-filters="sRGB">
<feFlood flood-opacity="0" result="BackgroundImageFix"/>
<feColorMatrix in="SourceAlpha" type="matrix" values="0 0 0 0 0 0 0 0 0 0 0 0 0 0 0 0 0 0 127 0" result="hardAlpha"/>
<feOffset dy="4"/>
<feGaussianBlur stdDeviation="2"/>
<feComposite in2="hardAlpha" operator="out"/>
<feColorMatrix type="matrix" values="0 0 0 0 0 0 0 0 0 0 0 0 0 0 0 0 0 0 0.25 0"/>
<feBlend mode="normal" in2="BackgroundImageFix" result="effect1_dropShadow_844_392"/>
<feBlend mode="normal" in="SourceGraphic" in2="effect1_dropShadow_844_392" result="shape"/>
</filter>
</defs>
</svg>
