<svg width="232" height="230" viewBox="0 0 232 230" fill="none" xmlns="http://www.w3.org/2000/svg">
<g filter="url(#filter0_d_851_95)">
<path d="M8 110.959C8 139.592 19.4281 167.052 39.7701 187.298C60.1122 207.544 87.702 218.918 116.47 218.918C145.238 218.918 172.828 207.544 193.17 187.298C213.512 167.052 224.94 139.592 224.94 110.959C224.94 82.3266 213.512 54.8668 193.17 34.6205C172.828 14.3742 145.238 3 116.47 3C87.702 3 60.1122 14.3742 39.7701 34.6205C19.4281 54.8668 8 82.3266 8 110.959Z" fill="#2AC3FF"/>
<path d="M6.5 110.959C6.5 139.992 18.0878 167.834 38.712 188.361C59.3359 208.888 87.3064 220.418 116.47 220.418C145.634 220.418 173.604 208.888 194.228 188.361C214.852 167.834 226.44 139.992 226.44 110.959C226.44 81.9265 214.852 54.0844 194.228 33.5573C173.604 13.0306 145.634 1.5 116.47 1.5C87.3064 1.5 59.3359 13.0306 38.712 33.5573C18.0878 54.0844 6.5 81.9265 6.5 110.959Z" stroke="white" stroke-width="3"/>
</g>
<g filter="url(#filter1_d_851_95)">
<path d="M202.571 148.621C225.16 172.94 237.561 176.526 206.217 176.661C9.48897 177.501 -0.127417 179.248 6.968 170.433C9.17007 167.697 14.8184 162.467 29.2278 147.752C30.2594 146.699 29.5214 146.725 31.1243 146.766L199.988 146.784C200.872 146.503 201.229 147.175 202.571 148.621Z" fill="white"/>
<path d="M201.63 46.8064C200.947 73.0118 200.764 143.383 200.737 144.477C200.703 145.801 200.726 147.337 31.7645 145.23C30.0589 145.208 30.205 144.96 30.1386 144.293C30.0939 143.84 29.5382 97.8358 29.374 67.4718C29.2218 39.189 29.3377 38.4304 30.8211 36.74C32.273 35.0833 36.0224 35.01 42.6963 34.7912C46.1486 34.6781 177.26 34.9727 189.964 35.0749C201.823 35.1699 201.888 36.9504 201.63 46.8064Z" fill="white"/>
<path d="M191.582 163.454C191.973 163.817 192.131 164.398 191.52 164.423C190.909 164.449 58.2207 166.201 39.4626 164.933C37.937 164.83 39.2838 163.19 39.7356 162.654C47.7623 153.145 48.5318 152.435 50.264 152.42C118.797 151.854 110.745 152.004 179.282 152.02C180.318 152.02 181.371 152.061 182.067 152.807C190.682 162.045 189.567 161.586 191.58 163.456L191.582 163.454Z" fill="white"/>
<path d="M225.122 177.462C224.293 183.275 224.146 183.422 220.05 183.431C6.90394 183.862 7.79177 185.062 6.47875 180.327C6.39419 180.023 5.67064 177.189 5.91102 176.988C6.20817 176.739 5.82888 178.371 25.9507 178.58C208.984 180.483 221.558 179.205 224.75 177.078C224.95 176.946 225.154 177.233 225.121 177.462H225.122Z" fill="#2AC3FF"/>
<path d="M225.081 168.973C227.564 171.714 227.189 173.558 227.054 174.921C226.856 176.92 226.481 179.706 226.174 181.26C225.822 183.051 225.672 185.207 220.003 185.377C165.243 187.02 17.93 185.921 10.0011 184.853C5.35417 184.227 4.07859 182.619 4.00007 172.622C3.97833 169.818 8.9659 165.959 14.4113 160.143C26.2527 147.497 28.5188 146.961 28.247 145.349C28.1733 144.91 27.5983 55.7775 28.0211 40.1688C28.1672 34.743 30.8706 33.7199 36.3595 33.4386C40.4085 33.2306 183.563 33.3376 189.799 33.3568C197.234 33.3797 203.017 33.3112 203.238 40.6665C203.33 43.7298 202.939 145.433 202.939 145.471C202.93 147.646 210.203 152.545 225.081 168.973ZM225.122 177.462C225.155 177.233 224.951 176.946 224.752 177.078C221.548 179.212 208.18 180.475 25.9519 178.58C15.8801 178.475 7.73984 177.903 6.22388 176.976C5.42906 176.49 6.23234 179.432 6.47996 180.327C7.57677 184.285 6.49929 184.002 142.178 184.002C185.087 184.002 217.758 183.436 220.05 183.431C224.178 183.423 224.296 183.251 225.122 177.462ZM202.571 148.62C201.228 147.174 200.872 146.5 199.988 146.782L31.1243 146.764C29.5213 146.723 30.2594 146.696 29.2278 147.749C14.8183 162.465 9.17004 167.695 6.96797 170.431C-0.176972 179.308 9.42974 177.499 206.217 176.659C237.432 176.525 225.406 173.205 202.571 148.619V148.62ZM196.61 35.7265C191.636 34.7647 42.8183 34.7863 42.6951 34.7911C33.6259 35.0881 29.4911 34.5819 29.5322 41.2905C29.5358 41.882 29.2967 53.1831 29.374 67.4718C29.537 97.8345 30.0939 143.839 30.1386 144.293C30.205 144.96 30.0589 145.187 31.7645 145.23C33.4701 145.272 194.833 145.21 197.69 145.242C199.916 145.266 200.725 144.913 200.737 144.478C200.739 144.365 201.53 56.2765 201.312 41.0416C201.289 39.4582 201.554 36.6835 196.61 35.7277V35.7265Z" fill="#0A0430"/>
<path d="M192.251 41.4131C196.993 41.6331 196.87 41.7028 196.862 44.688C196.853 47.6143 195.72 135.098 195.145 139.204C195.007 140.19 194.516 140.318 192.993 140.363C190.423 140.437 39.1148 141.075 36.6893 140.6C35.4547 140.358 35.7434 139.803 35.6746 139.534C35.2458 137.848 34.6068 43.0421 34.5959 42.4867C34.5814 41.799 35.1866 41.4756 35.8751 41.4275C38.3514 41.2556 184.582 41.0572 192.252 41.4131H192.251Z" fill="#2AC3FF"/>
<path d="M194.82 39.7865C197.157 39.8358 198.092 41.1234 198.084 42.2872C197.525 113.679 197.539 133.92 197.131 139.708C196.969 142.011 195.71 142.072 194.484 142.075C176.799 142.118 41.7239 142.438 37.995 142.177C33.4109 141.856 34.1465 142.528 33.9786 136.026C33.545 119.218 33.2973 69.4772 33.1319 43.6614C33.1113 40.4069 33.9702 40.0438 36.1891 39.9681C45.756 39.6434 191.417 39.7156 194.82 39.7877V39.7865ZM196.563 45.1041C196.572 42.1189 196.992 41.6344 192.25 41.4144C184.579 41.0585 38.3489 41.2581 35.8727 41.4288C35.1841 41.4769 34.579 41.8015 34.5935 42.488C34.6007 42.8126 35.2494 137.869 35.6721 139.536C35.7398 139.804 35.4523 140.359 36.6868 140.601C39.1136 141.075 190.421 140.439 192.99 140.364C194.513 140.32 195.004 140.191 195.143 139.205C195.719 135.099 196.554 48.0303 196.563 45.1053V45.1041Z" fill="#0A0430"/>
<path d="M193.595 163.284C194.641 164.824 194.087 166.44 191.473 166.529C181.324 166.876 50.3002 167.108 40.0098 166.769C36.3594 166.649 35.8799 164.622 37.9394 162.19C49.3339 148.733 47.6476 150.934 53.9337 150.774C56.6564 150.705 176.002 150.544 178.651 150.575C181.923 150.614 182.282 150.493 186.509 155.207C189.198 158.204 192.277 161.342 193.595 163.284ZM191.52 164.422C192.131 164.397 191.973 163.816 191.582 163.453C189.568 161.584 190.683 162.043 182.068 152.805C181.372 152.058 180.319 152.017 179.284 152.017C110.747 152.003 118.799 151.853 50.2652 152.418C48.5535 152.432 47.8952 152.986 39.7368 162.651C39.285 163.188 37.937 164.827 39.4638 164.931C58.2231 166.199 190.91 164.446 191.521 164.421L191.52 164.422Z" fill="#0A0430"/>
<path d="M191.623 55.4241C190.891 105.131 190.637 128.851 190.602 129.529C190.441 132.666 190.828 134.103 187.106 134.539C172.529 136.246 63.0851 134.413 48.4111 134.041C42.7217 133.897 40.2188 134.111 39.7344 128.622C39.5605 126.652 39.2887 51.0347 39.2936 50.7762C39.3491 47.8235 41.469 45.936 43.7013 45.8747C44.0154 45.8662 186.568 46.2437 186.568 46.2437C191.566 46.4121 191.689 50.8087 191.622 55.4229L191.623 55.4241ZM190.397 55.929C190.315 52.2754 190.635 47.6347 186.477 47.5734L43.5721 47.2404C41.8024 47.3943 40.7999 48.9548 40.6464 50.1522C40.5353 51.0191 40.5667 52.505 40.5788 55.7475C40.5812 56.529 40.6404 56.2885 41.4956 56.2777C85.4343 55.7523 190.404 56.3282 190.395 55.929H190.397ZM190.327 60.8583C190.464 57.724 190.72 57.4006 188.871 57.4463C187.981 57.4679 49.3448 57.599 41.0269 57.5833C40.824 57.5833 40.6525 57.7444 40.6537 58.0522C40.6682 64.0178 41.2528 124.641 41.254 124.668C41.3023 128.801 40.7455 132.022 44.5879 132.279C57.4851 133.142 177.318 134.873 186.923 132.973C189.725 132.418 188.911 133.089 189.467 103.469C189.973 76.5103 190.113 65.731 190.327 60.8583Z" fill="white"/>
<path d="M190.327 60.8583C190.464 57.724 190.72 57.4006 188.871 57.4463C187.981 57.4679 49.3448 57.599 41.027 57.5833C40.824 57.5833 40.6525 57.7444 40.6537 58.0522C40.6682 64.0178 41.2529 124.641 41.2541 124.668C41.3024 128.801 40.7455 132.022 44.588 132.279C57.4851 133.142 177.318 134.873 186.923 132.973C189.725 132.418 188.911 133.089 189.467 103.47C189.973 76.5103 190.113 65.731 190.327 60.8583Z" fill="white"/>
<path d="M190.397 55.9278C190.315 52.2754 190.635 47.6347 186.477 47.5734L43.5721 47.2404C41.8025 47.3942 40.7999 48.9548 40.6465 50.1522C40.5353 51.019 40.5667 52.505 40.5788 55.7475C40.5812 56.5289 40.6404 56.2885 41.4957 56.2776C85.4343 55.7523 190.404 56.3281 190.395 55.929H190.397V55.9278Z" fill="white"/>
<path d="M191.623 55.4241C190.891 105.131 190.637 128.851 190.602 129.529C190.441 132.666 190.828 134.103 187.106 134.539C172.529 136.246 63.0851 134.413 48.4111 134.041C42.7217 133.897 40.2188 134.111 39.7344 128.622C39.5605 126.652 39.2887 51.0347 39.2936 50.7762C39.3491 47.8235 41.469 45.936 43.7013 45.8747C44.0154 45.8662 186.568 46.2437 186.568 46.2437C191.566 46.4121 191.689 50.8087 191.622 55.4229L191.623 55.4241ZM190.397 55.929C190.315 52.2754 190.635 47.6347 186.477 47.5734L43.5721 47.2404C41.8024 47.3943 40.7999 48.9548 40.6464 50.1522C40.5353 51.0191 40.5667 52.505 40.5788 55.7475C40.5812 56.529 40.6404 56.2885 41.4956 56.2777C85.4343 55.7523 190.404 56.3282 190.395 55.929H190.397ZM190.327 60.8583C190.464 57.724 190.72 57.4006 188.871 57.4463C187.981 57.4679 49.3448 57.599 41.0269 57.5833C40.824 57.5833 40.6525 57.7444 40.6537 58.0522C40.6682 64.0178 41.2528 124.641 41.254 124.668C41.3023 128.801 40.7455 132.022 44.5879 132.279C57.4851 133.142 177.318 134.873 186.923 132.973C189.725 132.418 188.911 133.089 189.467 103.469C189.973 76.5103 190.113 65.731 190.327 60.8583Z" fill="#0A0430"/>
<path d="M58.6435 49.0125C61.8977 48.944 61.975 53.9934 58.7462 54.0872C55.1478 54.1906 55.4002 49.0823 58.6435 49.0125ZM58.5843 52.9715C60.7949 52.9571 60.4216 50.0164 58.5964 50.1451C56.5417 50.2893 56.8824 52.9836 58.5843 52.9715Z" fill="#0A0430"/>
<path d="M58.6435 49.0125C61.8977 48.944 61.975 53.9934 58.7462 54.0872C55.1478 54.1906 55.4002 49.0823 58.6435 49.0125ZM58.5843 52.9715C60.7949 52.9571 60.4216 50.0164 58.5964 50.1451C56.5417 50.2893 56.8824 52.9836 58.5843 52.9715Z" fill="#0A0430"/>
<path d="M52.3634 49.1508C53.7067 49.1472 54.8711 50.4203 54.8337 51.5973C54.7129 55.3544 49.6625 54.8073 49.8268 51.7933C49.7797 50.1053 51.0697 49.1544 52.3634 49.1508ZM52.2608 53.1194C54.522 53.1074 54.0715 50.1703 52.2873 50.2941C50.223 50.4348 50.5672 53.129 52.2608 53.1194Z" fill="#0A0430"/>
<path d="M52.3634 49.1508C53.7067 49.1472 54.8711 50.4203 54.8337 51.5973C54.7129 55.3544 49.6625 54.8073 49.8268 51.7933C49.7797 50.1053 51.0697 49.1544 52.3634 49.1508ZM52.2608 53.1194C54.522 53.1074 54.0715 50.1703 52.2873 50.2941C50.223 50.4348 50.5672 53.129 52.2608 53.1194Z" fill="#0A0430"/>
<path d="M46.0483 49.1508C47.3916 49.1508 48.5536 50.4263 48.515 51.5997C48.3905 55.3628 43.3402 54.8013 43.5081 51.7933C43.461 50.1101 44.7486 49.152 46.0483 49.1508ZM45.8986 53.1194C48.1683 53.1314 47.7769 50.1691 46.0133 50.2893C43.8668 50.436 44.2908 53.111 45.8986 53.1194Z" fill="#0A0430"/>
<path d="M46.0483 49.1508C47.3916 49.1508 48.5536 50.4263 48.515 51.5997C48.3905 55.3628 43.3402 54.8013 43.5081 51.7933C43.461 50.1101 44.7486 49.152 46.0483 49.1508ZM45.8986 53.1194C48.1683 53.1314 47.7769 50.1691 46.0133 50.2893C43.8668 50.436 44.2908 53.111 45.8986 53.1194Z" fill="#0A0430"/>
<path d="M84.9402 98.7688C85.1456 98.8253 85.1396 98.8385 85.0876 100.77C85.0816 101.013 84.9197 101.088 84.5404 101.101C84.2674 101.111 66.9227 101.316 66.1436 101.295C65.6821 101.281 65.6918 101.174 65.7582 100.721C65.9141 99.656 65.6725 99.0068 66.0675 98.8866C66.1822 98.8517 84.7397 98.7135 84.9402 98.7688Z" fill="white"/>
<path d="M123.908 99.9974C124.06 100.928 124.42 101.385 123.929 101.385C103.591 101.385 104.011 102.204 104.086 101.232C104.245 99.169 104.104 99.2448 104.668 99.2099C104.79 99.2027 123.761 99.0248 123.841 99.145C123.978 99.353 123.862 99.7136 123.908 99.9974Z" fill="white"/>
<path d="M163.433 100.579C163.466 100.712 163.518 100.851 163.498 100.977C163.364 101.825 150.053 101.085 143.383 101.2C142.674 101.212 142.855 101.079 142.983 99.1186C143.006 98.77 143.354 98.7279 143.811 98.7616C144.382 98.8036 162.596 98.782 163.016 98.7591C163.789 98.7159 163.091 99.1811 163.434 100.579H163.433Z" fill="white"/>
<path d="M178.786 105.019C173.844 109.368 165.368 106.96 164.723 100.577C164.207 95.4745 167.007 92.1996 170.771 91.2306C180.371 88.7588 184.387 100.09 178.786 105.019Z" fill="#2AC3FF"/>
<path d="M140.993 102.546C138.376 108.333 130.318 108.392 126.775 104.007C125.726 102.71 125.511 101.654 125.102 99.4889C124.679 97.2528 126.972 92.4329 130.1 91.4267C138.658 88.6747 144.138 95.5973 140.993 102.546Z" fill="#2AC3FF"/>
<path d="M99.212 106.799C95.0471 109.448 88.366 107.703 86.7896 102.793C84.6649 96.1731 90.3421 90.4227 96.766 91.7344C104.303 93.2733 105.058 103.08 99.212 106.799Z" fill="#2AC3FF"/>
<path d="M62.5512 93.8696C67.3177 98.7495 63.6891 108.03 56.2772 107.685C48.6949 107.98 44.6737 98.4249 51.141 93.153C54.9798 90.0236 59.8333 91.0864 62.5512 93.8696Z" fill="#2AC3FF"/>
<path d="M182.497 98.3407C182.416 99.6572 182.483 101.016 181.943 102.335C179.528 108.236 173.453 109.665 168.619 107.622C165.052 106.116 163.917 102.375 163.797 102.335C163.446 102.216 163.791 102.419 158.24 102.414C143.351 102.398 142.832 101.975 142.199 102.639C141.801 103.056 141.804 104.014 139.941 106.065C136.546 109.803 126.981 109.213 124.617 102.717C124.365 102.024 124.61 102.571 104.33 102.749C103.217 102.759 103.146 105.727 100.308 107.584C94.8863 111.13 87.3126 109.058 85.4065 102.392C85.3267 102.115 85.1335 102.091 84.8061 102.123C84.4413 102.16 68.7708 102.284 65.8742 102.378C65.4453 102.391 65.2919 102.923 65.2364 103.045C63.6105 106.669 61.1173 107.769 60.5145 108.192C59.5711 108.854 53.5725 110.116 49.718 106.488C44.1603 101.257 46.4518 90.9517 56.1515 89.9959C60.1014 89.6064 65.42 93.034 65.7183 97.391C65.7449 97.7709 66.1363 97.8779 66.5156 97.8767C85.2096 97.8045 85.2156 97.8767 85.45 97.3465C86.3281 95.3676 86.1349 95.3303 87.3585 93.7914C91.1937 88.9632 99.9633 88.7853 103.476 95.6141C104.51 97.6242 103.617 98.2001 104.784 98.1628C124.056 97.5509 123.915 98.6425 124.059 97.5196C125.195 88.6434 138.121 86.1836 142.247 94.5957C143.34 96.8259 142.641 97.7456 143.393 97.7264C161.105 97.2744 163.405 98.0774 163.562 97.3489C166.1 85.5957 183.102 88.4162 182.494 98.3383L182.497 98.3407ZM178.786 105.018C184.322 100.147 180.463 88.7336 170.771 91.2295C167.009 92.1985 164.207 95.465 164.723 100.576C165.368 106.958 173.844 109.367 178.786 105.018ZM163.497 100.977C163.518 100.851 163.464 100.712 163.432 100.579C163.09 99.1811 163.788 98.7158 163.014 98.7591C162.594 98.7832 144.379 98.8036 143.809 98.7615C143.35 98.7279 143.002 98.7699 142.98 99.1186C142.852 101.079 142.671 101.212 143.38 101.2C149.982 101.087 163.363 101.826 163.497 100.977ZM140.993 102.546C143.961 95.9867 139.169 88.51 130.1 91.4266C126.972 92.4329 124.679 97.2527 125.102 99.4889C125.511 101.654 125.726 102.71 126.775 104.007C130.316 108.393 138.376 108.333 140.993 102.546ZM123.929 101.385C124.419 101.385 124.06 100.928 123.908 99.9974C123.862 99.7137 123.978 99.3542 123.841 99.1463C123.761 99.0248 104.789 99.2028 104.668 99.2112C104.104 99.246 104.245 99.1703 104.086 101.233C104.01 102.21 103.637 101.385 123.929 101.385ZM99.2108 106.799C105.045 103.088 104.318 93.2757 96.7647 91.7344C90.3131 90.4179 84.6745 96.2068 86.7884 102.793C88.3647 107.703 95.0446 109.448 99.2108 106.799ZM85.0864 100.77C85.1395 98.8385 85.1456 98.8253 84.939 98.7688C84.7385 98.7134 66.181 98.8505 66.0662 98.8854C65.6724 99.0056 65.9128 99.6548 65.757 100.72C65.6905 101.173 65.6809 101.28 66.1423 101.293C66.9214 101.315 84.265 101.11 84.5392 101.1C84.9185 101.087 85.0791 101.013 85.0864 100.77ZM56.2759 107.686C63.6878 108.031 67.3164 98.7507 62.5499 93.8708C59.8888 91.1465 55.0523 89.9635 51.1397 93.1542C44.6737 98.4261 48.6937 107.982 56.2759 107.686Z" fill="#0A0430"/>
<path d="M172.744 110.429C174.14 110.223 177.886 110.295 179.889 109.929C180.512 109.815 182.171 109.815 182.691 110.005C183.308 110.231 182.822 111.131 182.294 110.962C182.259 110.951 180.118 111.018 177.83 111.313C176.446 111.492 175.532 111.1 172.955 111.513C169.986 111.987 166.324 111.68 166.275 111.448C165.949 109.881 168.336 111.083 172.744 110.429Z" fill="#0A0430"/>
<path d="M53.1667 111.949C63.6105 111.949 64.5467 111.427 64.6856 112.245C64.7242 112.473 64.415 112.863 64.1239 112.92C63.9149 112.961 62.8628 112.91 62.1453 112.943C55.6333 113.253 60.4989 113.137 55.6128 113.096C49.5272 113.044 49.9053 113.143 49.3351 112.973C48.7203 112.789 49.0766 112.233 49.3822 112.09C49.8618 111.865 53.1667 111.92 53.1667 111.949Z" fill="#0A0430"/>
<path d="M139.662 110.521C139.691 110.521 140.877 110.713 141.623 110.521C142.029 110.416 142.213 110.649 142.467 110.802C142.599 110.881 142.444 111.359 142.246 111.475C141.758 111.765 139.791 111.736 139.23 111.68C137.783 111.537 137.44 111.812 134.338 111.63C128.896 111.312 127.193 111.616 127.199 110.934C127.21 109.685 129.944 110.648 139.662 110.521Z" fill="#0A0430"/>
<path d="M102.636 111.1C103.222 111.47 103.022 111.993 102.601 112.122C101.798 112.37 89.5811 112.518 88.2536 112.075C87.6327 111.868 88.0652 111.2 88.442 111.193C88.471 111.193 102.607 111.082 102.636 111.1Z" fill="#0A0430"/>
<path d="M169.184 113.833C171.846 113.619 176.893 113.386 180.803 113.396C181.935 113.4 181.812 114.527 180.83 114.547C169.887 114.774 171.526 114.987 169.653 114.845C167.622 114.69 168.707 113.871 169.184 113.833Z" fill="#0A0430"/>
<path d="M89.9471 115.256C89.1064 115.262 89.2646 114.172 90.2443 114.19C90.3663 114.193 99.8824 113.929 100.488 114.117C101.166 114.327 101.087 115.018 100.465 115.136C99.9658 115.231 90.074 115.255 89.9471 115.256Z" fill="#0A0430"/>
<path d="M138.859 113.702C139.094 113.661 139.917 113.842 139.771 114.371C139.539 115.207 139.167 114.815 129.595 114.539C128.299 114.501 128.693 113.418 129.654 113.408C131.257 113.394 138.86 113.701 138.86 113.701L138.859 113.702Z" fill="#0A0430"/>
<path d="M50.4114 115.237C50.5165 114.17 52.0662 115.058 60.07 114.423C60.9639 114.352 60.9144 115.38 60.2814 115.55C59.5083 115.756 51.6869 115.818 51.5613 115.807C50.8583 115.743 50.3763 115.581 50.4114 115.237Z" fill="#0A0430"/>
<path d="M91.2735 98.432C91.2795 97.9728 91.5175 97.5809 91.7385 97.5099C91.9185 97.4522 92.4403 97.7792 92.5297 98.0401C93.4792 100.825 93.3439 101.054 93.8113 100.636C98.532 96.4171 98.9028 96.054 99.5092 96.6587C99.6735 96.8222 99.5563 97.5664 99.0393 97.9524C92.4838 102.843 93.4284 105.736 91.2735 98.432Z" fill="#0A0430"/>
<path d="M52.9251 98.1567C52.9275 96.7754 53.9772 97.13 54.2067 97.8261C55.1187 100.597 54.9714 100.732 55.4062 100.366C57.1952 98.8612 59.7258 96.3377 60.5689 96.1502C61.2599 95.9963 61.3831 97.1036 60.825 97.5111C55.0354 101.735 54.8095 105.832 52.9251 98.1567Z" fill="#0A0430"/>
<path d="M175.673 98.5691C170.793 102.891 171.329 103.391 169.899 98.9695C169.844 98.7963 169.556 97.7516 169.534 97.5761C169.494 97.2539 169.749 96.7946 169.975 96.7357C170.933 96.488 171.357 99.4624 171.583 99.8928C171.989 100.666 176.356 95.1307 177.576 95.7607C178.634 96.3077 176.565 97.778 175.673 98.5667V98.5691Z" fill="#0A0430"/>
<path d="M132.011 101.911C131.679 101.911 131.528 101.719 131.42 101.487C131.083 100.766 130.746 100.05 130.618 99.246C130.502 98.5198 130.037 97.7504 130.104 97.2298C130.142 96.9256 130.444 96.5986 130.633 96.589C131.42 96.5506 131.657 98.093 132.126 99.6091C132.276 100.092 132.236 100.268 135.349 97.2623C138.736 93.991 138.877 96.3113 137.854 97.0519C136.413 98.0942 133.614 101.102 132.012 101.913L132.011 101.911Z" fill="#0A0430"/>
</g>
<path d="M99.7365 50.2635C95.4232 45.9501 93 40.1 93 34C93 27.9 95.4232 22.0499 99.7365 17.7365C104.05 13.4232 109.9 11 116 11C122.1 11 127.95 13.4232 132.263 17.7365C136.577 22.0499 139 27.9 139 34C139 40.1 136.577 45.9501 132.263 50.2635C127.95 54.5768 122.1 57 116 57C109.9 57 104.05 54.5768 99.7365 50.2635Z" fill="white" stroke="black" stroke-width="2"/>
<path d="M110.59 47C110.126 47.0006 109.667 46.9093 109.238 46.7314C108.81 46.5534 108.421 46.2923 108.093 45.9631L101.035 38.8845C100.372 38.2205 100 37.3199 100 36.3808C99.9999 35.4417 100.372 34.5409 101.034 33.8768C101.696 33.2126 102.594 32.8394 103.531 32.8393C104.467 32.8392 105.365 33.2122 106.028 33.8762L110.594 38.4549L124.973 24.037C125.301 23.7082 125.69 23.4474 126.118 23.2695C126.546 23.0916 127.006 23 127.469 23C127.933 23 128.392 23.0916 128.82 23.2695C129.249 23.4474 129.638 23.7082 129.966 24.037C130.294 24.3658 130.554 24.7561 130.731 25.1857C130.909 25.6152 131 26.0756 131 26.5406C131 27.0055 130.909 27.4659 130.731 27.8955C130.554 28.3251 130.294 28.7154 129.966 29.0441L113.087 45.9618C112.759 46.2914 112.37 46.5527 111.942 46.7309C111.513 46.9091 111.054 47.0005 110.59 47Z" fill="#2AC3FF" stroke="#020064" stroke-miterlimit="10"/>
<defs>
<filter id="filter0_d_851_95" x="1" y="0" width="230.94" height="229.918" filterUnits="userSpaceOnUse" color-interpolation-filters="sRGB">
<feFlood flood-opacity="0" result="BackgroundImageFix"/>
<feColorMatrix in="SourceAlpha" type="matrix" values="0 0 0 0 0 0 0 0 0 0 0 0 0 0 0 0 0 0 127 0" result="hardAlpha"/>
<feOffset dy="4"/>
<feGaussianBlur stdDeviation="2"/>
<feComposite in2="hardAlpha" operator="out"/>
<feColorMatrix type="matrix" values="0 0 0 0 0 0 0 0 0 0 0 0 0 0 0 0 0 0 0.25 0"/>
<feBlend mode="normal" in2="BackgroundImageFix" result="effect1_dropShadow_851_95"/>
<feBlend mode="normal" in="SourceGraphic" in2="effect1_dropShadow_851_95" result="shape"/>
</filter>
<filter id="filter1_d_851_95" x="0" y="33.3123" width="231.157" height="160.903" filterUnits="userSpaceOnUse" color-interpolation-filters="sRGB">
<feFlood flood-opacity="0" result="BackgroundImageFix"/>
<feColorMatrix in="SourceAlpha" type="matrix" values="0 0 0 0 0 0 0 0 0 0 0 0 0 0 0 0 0 0 127 0" result="hardAlpha"/>
<feOffset dy="4"/>
<feGaussianBlur stdDeviation="2"/>
<feComposite in2="hardAlpha" operator="out"/>
<feColorMatrix type="matrix" values="0 0 0 0 0 0 0 0 0 0 0 0 0 0 0 0 0 0 0.25 0"/>
<feBlend mode="normal" in2="BackgroundImageFix" result="effect1_dropShadow_851_95"/>
<feBlend mode="normal" in="SourceGraphic" in2="effect1_dropShadow_851_95" result="shape"/>
</filter>
</defs>
</svg>
