<svg width="245" height="237" viewBox="0 0 245 237" fill="none" xmlns="http://www.w3.org/2000/svg">
<g filter="url(#filter0_d_842_406)">
<path d="M10.6096 114.418C10.6096 143.968 22.398 172.308 43.3815 193.203C64.365 214.098 92.8248 225.837 122.5 225.837C152.175 225.837 180.635 214.098 201.618 193.203C222.602 172.308 234.39 143.968 234.39 114.418C234.39 84.8684 222.602 56.5287 201.618 35.6337C180.635 14.7387 152.175 3 122.5 3C92.8248 3 64.365 14.7387 43.3815 35.6337C22.398 56.5287 10.6096 84.8684 10.6096 114.418Z" fill="#DEBF91"/>
<path d="M9.10956 114.418C9.10956 144.368 21.0576 173.09 42.3231 194.266C63.5884 215.442 92.429 227.337 122.5 227.337C152.571 227.337 181.412 215.442 202.677 194.266C223.942 173.09 235.89 144.368 235.89 114.418C235.89 84.4685 223.942 55.7466 202.677 34.5708C181.412 13.3952 152.571 1.5 122.5 1.5C92.429 1.5 63.5884 13.3952 42.3231 34.5708C21.0576 55.7466 9.10956 84.4685 9.10956 114.418Z" stroke="white" stroke-width="3"/>
</g>
<g filter="url(#filter1_d_842_406)">
<path d="M204.482 150.201C204.654 150.421 204.771 150.697 205.025 150.799C208.243 149.225 209.464 145.709 210.31 142.242C213.604 128.739 225.012 64.8243 226.398 55.966C227.037 51.8757 225.28 47.1724 224.347 45.8206C223.409 55.6874 222.269 63.9252 222.228 64.0906C217.89 81.4777 209.909 139.603 204.407 148.163C203.725 149.225 203.74 149.245 204.482 150.201Z" fill="#F1A93D"/>
<path d="M86.1956 124.811C89.4756 125.597 118.519 132.389 123.276 133.042C132.586 134.32 134.487 135.552 142.974 137.147C154.192 139.255 146.842 137.684 155.026 139.067C163.711 140.536 185.341 147.034 198.557 148.91C203.832 149.659 205.115 145.156 210.427 117.336C225.126 40.3459 223.696 40.7998 218.572 39.6544C214.286 38.6956 197.672 37.7878 193.663 37.5639C191.699 37.4545 193.713 36.9968 173.214 35.3764C104.301 29.9293 98.8969 30.908 96.6927 35.8402C93.9013 42.0894 93.3216 48.8871 91.6185 56.0205C88.8433 67.6434 89.2694 68.6495 89.077 70.4651C87.2465 87.7664 81.2763 107.147 80.819 121.149C80.7303 123.872 83.4405 124.151 86.1956 124.811Z" fill="white"/>
<path d="M7.33034 156.251C10.0668 157.914 117.733 191.377 117.757 191.385C133.653 196.271 131.361 198.194 146.968 189.415C149.63 187.918 161.729 181.795 182.661 169.925C198.166 161.131 204.856 162.614 203.533 153.41C187.374 163.266 138.517 188.016 137.793 188.284C136.123 188.902 134.393 189.048 132.718 189.533C130.797 190.09 111.884 185.39 110.283 184.894C109.079 184.521 77.3152 173.208 64.8089 170.208C64.2841 170.083 49.956 167.112 42.2403 164.2C32.4329 160.499 9.04091 154.142 6.06959 152.721C5.55604 154.723 5.70223 155.263 7.33034 156.251Z" fill="#F1A93D"/>
<path d="M6.66718 151.093C10.6868 152.961 20.6216 155.178 25.9283 157.02C57.8694 168.102 58.8665 166.893 66.6634 168.891C91.6673 175.301 110.232 184.381 117.197 184.879C119.216 185.024 130.967 188.607 132.838 187.986C147.794 183.021 138.655 185.44 168.711 170.274C172.888 168.166 175.409 167.689 202.031 152.416C202.956 151.885 203.223 151.634 203.003 151.104C202.156 149.059 201.3 151.225 195.083 150.057C184.273 148.028 165.933 143.024 155.913 140.859C151.601 139.927 151.43 140.309 142.596 138.739C137.237 137.786 134.349 136.282 120.111 134.163C117.884 133.831 90.8676 127.617 87.0703 126.72C76.4808 124.222 86.4218 124.432 30.469 142.548C30.4452 142.558 12.1725 147.204 6.66718 151.093Z" fill="white"/>
<path d="M185.376 154.357C183.323 153.537 177.879 152.466 176.427 152.222C171.968 151.478 147.884 146.578 142.266 145.167C141.615 145.004 90.99 132.829 90.9638 132.824C81.0664 130.62 80.3542 130.201 76.9905 131.344C66.7533 134.832 60.8819 136.684 50.9071 141.232C52.2466 143.502 67.8941 146.745 70.6306 147.269C70.6543 147.274 117.656 159.814 129.807 165.082C132.757 166.362 140.724 168.695 144.002 169.466C149.666 170.797 153.055 171.932 156.965 170.107C170.672 163.713 182.795 156.407 185.359 155.562C185.922 155.377 186.172 154.676 185.376 154.357Z" fill="white"/>
<path d="M194.606 140.987C190.463 140.987 106.78 123.697 106.051 123.477C94.9183 119.848 88.6608 121.322 88.7782 114.131C89.1443 109.387 97.3249 59.4902 98.7143 52.8182C100.851 42.5608 101.493 39.4642 103.993 38.2778C105.297 37.6597 108.438 37.36 113.593 37.36C124.514 37.36 125.527 38.0601 147.178 39.2155C149.113 39.3187 205.058 44.6426 206.645 44.6911C209.694 44.7807 213.33 45.1886 214.387 47.5627C214.813 48.5227 215.352 49.9952 215.096 51.6915C213.725 60.8445 212.829 64.2371 212.236 66.4819C211.186 70.4527 209.81 82.828 206.141 98.6082C206.031 99.0783 205.964 99.3618 205.948 99.4601C199.444 139.091 198.045 140.986 194.608 140.986L194.606 140.987Z" fill="white"/>
<path d="M5.10892 156.672C9.0836 160.319 22.522 162.819 38.4695 168.47C49.4089 172.346 50.9745 172.161 57.7244 174.173C66.9919 176.935 76.9005 180.565 80.7278 181.687C122.622 193.958 130.336 198.997 137.469 196.056C148.698 191.426 180.2 172.197 195.712 165.413C206.314 160.777 205.33 159.587 205.257 153.641C205.231 151.506 207.065 152.823 210.039 148.077C210.738 146.963 211.436 144.691 212.165 141.528C213.724 134.757 227.275 63.3183 227.905 58.5651C229.162 49.0738 225.569 44.3792 223.722 41.3273C221.5 37.6524 218.733 36.6687 199.477 35.8603C199.351 35.8554 119.68 29.6112 106.066 30.3486C94.8809 30.9543 95.6106 33.8022 93.0079 44.1827C90.8962 52.607 80.248 112.439 79.9093 114.634C78.5236 123.619 78.8598 123.054 79.2796 123.826C77.7477 124.591 35.9455 138.883 35.913 138.895C27.9786 141.966 12.1524 145.337 6.11602 149.36C3.3771 151.186 3.58577 155.274 5.10892 156.672ZM87.0715 126.72C90.87 127.618 117.886 133.831 120.112 134.163C134.35 136.282 137.238 137.785 142.597 138.739C151.427 140.311 151.601 139.926 155.914 140.859C165.934 143.024 184.274 148.028 195.084 150.057C201.303 151.223 202.159 149.059 203.004 151.104C203.224 151.634 202.957 151.885 202.032 152.416C175.41 167.689 172.89 168.165 168.712 170.274C138.66 185.447 147.795 183.022 132.84 187.986C130.968 188.608 119.218 185.025 117.198 184.879C110.235 184.377 91.6697 175.297 66.6646 168.891C58.8677 166.894 57.8718 168.096 25.9294 157.02C20.624 155.181 10.6917 152.962 6.6683 151.093C12.1749 147.208 30.4439 142.559 30.4701 142.548C86.4255 124.432 76.4832 124.218 87.0715 126.72ZM204.406 148.163C209.912 139.608 217.887 81.4801 222.227 64.0905C222.268 63.9251 223.41 55.6874 224.346 45.8205C225.279 47.1711 227.036 51.8757 226.396 55.966C225.011 64.8255 213.604 128.739 210.309 142.242C209.463 145.71 208.242 149.226 205.024 150.799C204.77 150.697 204.653 150.421 204.481 150.201C203.739 149.245 203.724 149.222 204.406 148.163ZM198.557 148.911C185.341 147.039 163.712 140.537 155.026 139.068C146.844 137.685 154.192 139.255 142.974 137.148C134.486 135.554 132.586 134.32 123.276 133.043C118.52 132.39 89.4768 125.599 86.1956 124.813C83.4417 124.153 80.729 123.874 80.8177 121.15C80.879 119.267 94.2349 41.346 96.6914 35.8417C97.6411 33.7151 99.1817 32.326 106.076 31.8621C125.994 30.524 216.209 39.1273 218.571 39.6559C223.695 40.8025 225.126 40.3486 210.425 117.337C205.114 145.157 203.832 149.659 198.557 148.911ZM6.07104 152.721C9.04111 154.142 32.4331 160.501 42.2417 164.201C49.9549 167.111 64.283 170.083 64.8103 170.208C77.3216 173.201 109.08 184.523 110.285 184.894C111.885 185.389 130.797 190.088 132.72 189.533C134.393 189.049 136.125 188.903 137.794 188.285C138.519 188.016 187.378 163.267 203.534 153.41C204.857 162.615 198.166 161.131 182.662 169.925C161.729 181.797 149.633 187.915 146.969 189.415C131.366 198.2 133.651 196.276 117.758 191.385C117.734 191.377 10.0707 157.913 7.33179 156.251C5.70618 155.264 5.55874 154.724 6.07104 152.721Z" fill="#0A0430"/>
<path d="M188.598 154.673C188.548 154.156 188.351 153.681 187.733 153.51C180.051 151.409 155.033 146.377 152.833 145.996C140.94 143.956 84.1589 129.069 80.4954 129.122C76.6594 128.755 51.5294 139.173 50.4748 139.862C48.7692 140.98 48.8254 141.625 50.451 142.834C52.8926 144.649 63.932 147.39 66.9945 148.026C74.2279 149.521 73.8168 149.941 83.7641 152.657C153.415 171.672 147.229 178.737 167.671 166.995C188.727 154.898 188.735 156.151 188.598 154.673ZM185.358 155.562C182.791 156.407 170.668 163.713 156.964 170.106C153.054 171.932 149.665 170.794 144 169.466C140.72 168.697 132.755 166.363 129.806 165.082C117.653 159.814 70.653 147.275 70.6293 147.269C67.8829 146.807 52.2453 143.504 50.9059 141.232C60.8807 136.684 66.7533 134.832 76.9893 131.344C80.353 130.2 81.0639 130.62 90.9625 132.824C90.9862 132.829 141.639 145.013 142.265 145.167C148.075 146.627 171.749 151.442 176.426 152.222C177.88 152.466 183.322 153.536 185.375 154.357C186.171 154.676 185.921 155.376 185.356 155.562H185.358Z" fill="#0A0430"/>
<path d="M127.244 38.6773C135.492 39.4558 149.404 40.064 150.789 40.1908C150.815 40.1933 204.54 45.3966 206.623 45.4588C208.935 45.5272 212.747 45.7672 213.684 47.8751C214.201 49.0379 214.535 50.2492 214.335 51.5799C212.27 65.3319 211.32 65.9151 210.769 69.5452C207.809 89.0427 205.305 98.6343 205.189 99.3369C198.957 137.215 197.458 140.221 194.607 140.221C190.518 140.221 106.409 122.785 106.277 122.743C94.9648 119.157 89.4432 120.618 89.5482 114.143C89.9305 109.206 98.4646 57.7781 98.9607 55.4065C101.453 43.4827 102.002 40.0714 104.325 38.9696C107.462 37.4822 123.781 38.3503 127.244 38.6773ZM113.594 36.5955C106.569 36.5955 104.562 37.1614 103.663 37.5879C100.815 38.9372 100.155 42.1209 97.9598 52.6631C96.8928 57.7856 88.0313 111.207 88.0075 114.142C87.945 121.904 94.5312 120.629 105.797 124.202C106.148 124.314 190.367 141.754 194.607 141.754C197.535 141.754 198.804 139.166 200.121 134.391C202.429 126.02 205.977 102.717 206.892 98.7835C210.653 82.6157 211.824 71.06 212.982 66.6799C213.579 64.419 214.479 61.0028 215.859 51.805C216.143 49.9122 215.56 48.3005 215.093 47.2533C213.704 44.1318 208.775 43.9888 206.671 43.9254C205.099 43.8782 149.215 38.5567 147.24 38.451C126.618 37.3504 124.031 36.593 113.596 36.593L113.594 36.5955Z" fill="#0A0430"/>
<path d="M107.872 40.8671C107.682 41.4205 106.475 41.6642 107.266 42.4626C107.901 43.1031 107.006 44.1229 106.409 43.2362C105.956 42.5646 105.623 43.2225 104.874 43.5931C104.328 43.863 103.941 43.123 104.268 42.7723C104.692 42.3184 105.676 42.0821 105.125 41.4839C104.414 40.7129 105.228 39.9493 105.919 40.6805C106.501 41.2974 106.812 40.4604 107.276 40.4231C107.858 40.3758 107.796 40.4803 107.872 40.8671Z" fill="#0A0430"/>
<path d="M209.869 53.7724L103.604 46.7422C103.25 46.7186 102.983 46.4139 103.007 46.0632C103.029 45.7113 103.336 45.4451 103.689 45.4687L209.912 52.4977C210.731 52.5524 210.691 53.7724 209.869 53.7724Z" fill="#0A0430"/>
<path d="M170.296 158.608L159.447 155.643L162.722 153.879C163.033 153.711 163.149 153.324 162.98 153.013C162.812 152.703 162.422 152.588 162.111 152.756L157.659 155.156L139.612 150.225L142.08 148.56C142.373 148.362 142.45 147.965 142.251 147.673C142.052 147.381 141.654 147.305 141.36 147.503L137.985 149.78L119.264 144.665L122.234 142.434C122.516 142.222 122.572 141.822 122.36 141.539C122.146 141.258 121.745 141.201 121.462 141.414L117.702 144.237L103.366 140.319L105.565 138.791C105.857 138.59 105.927 138.192 105.724 137.902C105.522 137.612 105.122 137.541 104.831 137.744L101.758 139.879L87.3725 135.948L89.4567 134.498C89.7466 134.297 89.8179 133.897 89.6143 133.609C89.4106 133.32 89.0119 133.249 88.7208 133.451L85.7645 135.509L76.7292 133.04C76.3869 132.947 76.0345 133.147 75.9408 133.487C75.8471 133.828 76.047 134.178 76.3894 134.272L84.3975 136.46L77.7251 141.103L69.3796 138.638C69.0385 138.537 68.6824 138.73 68.5812 139.068C68.4813 139.407 68.6737 139.762 69.0135 139.862L76.3806 142.038L74.3877 143.425C74.0965 143.626 74.0266 144.024 74.2302 144.314C74.4302 144.599 74.8287 144.676 75.1236 144.471L77.9539 142.501L92.0121 146.652L90.1178 147.969C89.8267 148.17 89.7553 148.568 89.959 148.858C90.1627 149.148 90.5626 149.218 90.8525 149.016L93.5851 147.117L108.141 151.415L106.169 152.895C105.885 153.108 105.829 153.508 106.043 153.79C106.259 154.074 106.661 154.126 106.941 153.915L109.67 151.866L127.211 157.046L124.878 158.619C124.584 158.817 124.508 159.214 124.707 159.506C124.905 159.798 125.304 159.874 125.598 159.676L128.801 157.515L144.613 162.183L141.141 164.054C140.829 164.222 140.714 164.61 140.881 164.919C141.054 165.235 141.449 165.341 141.751 165.177L146.353 162.697L158.321 166.23C158.661 166.331 159.017 166.138 159.118 165.8C159.219 165.462 159.026 165.106 158.686 165.007L147.95 161.837L157.819 156.519L169.959 159.836C170.301 159.929 170.653 159.729 170.747 159.389C170.841 159.048 170.64 158.698 170.297 158.604L170.296 158.608ZM79.297 141.568L86.0045 136.901L100.389 140.832L93.3552 145.72L79.297 141.568ZM94.9297 146.184L101.999 141.271L116.409 145.208L109.413 150.461L94.9297 146.184ZM110.942 150.913L117.971 145.635L136.587 150.721L128.583 156.121L110.943 150.911L110.942 150.913ZM146.207 161.327L130.172 156.592L138.215 151.166L156.028 156.034L146.207 161.327Z" fill="#0A0430"/>
<path d="M163.725 90.8858C163.229 95.4238 164.444 94.7958 155.617 93.5695C153.364 93.2562 153.859 93.577 154.216 88.4645C164.082 89.4842 163.93 88.9992 163.724 90.8846L163.725 90.8858Z" fill="white"/>
<path d="M152.567 93.2433C143.657 91.7721 134.791 90.8033 125.821 90.5235C125.985 89.3682 126.32 88.387 126.306 87.3598C126.285 85.8587 125.991 86.2455 152.141 88.229C153.367 88.3223 153.024 88.7986 152.567 93.2433Z" fill="white"/>
<path d="M130.309 85.1649C125.418 85.1649 125.345 84.1053 124.548 90.689C124.353 92.2983 125.827 91.6093 136.637 92.4799C145.711 93.2099 156.64 95.3128 162.654 95.7692C164.558 95.9135 164.543 95.4272 165.068 90.592C165.377 87.7466 165.514 87.7242 130.311 85.1661L130.309 85.1649ZM152.567 93.2434C143.657 91.7722 134.791 90.8035 125.821 90.5236C125.985 89.3683 126.32 88.3871 126.306 87.3599C126.285 85.8588 125.991 86.2456 152.141 88.2292C153.366 88.3224 153.024 88.7987 152.567 93.2434ZM163.725 90.8855C163.229 95.4235 164.443 94.7955 155.617 93.5693C153.364 93.2559 153.859 93.5767 154.216 88.4642C164.082 89.484 163.93 88.999 163.724 90.8843L163.725 90.8855Z" fill="#0A0430"/>
<path d="M172.214 102.329C172.02 103.717 171.578 105.042 171.5 106.413C171.463 106.416 113.369 99.1008 113.342 99.0958C113.733 96.0825 113.579 95.4197 114.588 95.5279C114.615 95.5303 166.121 100.454 172.214 102.329Z" fill="white"/>
<path d="M167.953 100.262C127.123 95.351 113.373 92.5118 112.645 95.5723C111.528 100.263 111.699 100.219 115.16 100.549C115.373 100.569 138.375 103.352 154.416 105.362C172.789 107.664 172.484 108.787 172.855 106.432C173.797 100.449 175.053 101.116 167.953 100.262ZM171.501 106.412C171.463 106.414 113.37 99.0992 113.342 99.0943C113.733 96.081 113.58 95.4181 114.588 95.5263C114.615 95.5288 166.121 100.452 172.214 102.328C172.02 103.716 171.578 105.04 171.501 106.412Z" fill="#0A0430"/>
<path d="M158.506 63.1418C157.376 62.0275 156.735 60.7018 155.763 59.6186C155.902 59.1535 156.33 59.013 156.608 58.7319C157.152 58.181 157.527 58.2531 158.058 58.8351C159.337 60.2379 159.547 59.4383 162.844 56.4151C163.069 56.2086 163.288 55.8256 163.659 56.0581C164.092 56.3305 164.48 56.6911 164.661 57.1911C164.738 57.405 164.749 57.2993 158.506 63.1418Z" fill="white"/>
<path d="M163.554 67.9956C161.356 69.8934 159.894 72.3645 157.301 73.7685C156.484 72.5 155.262 71.5947 154.535 70.3138C154.585 69.9519 154.901 69.8922 155.1 69.7342C155.899 69.0987 155.907 69.1087 156.721 69.7691C157.857 70.6906 158.498 69.8959 160.97 67.5392C162.074 66.4859 161.969 66.5443 163.552 67.9956H163.554Z" fill="white"/>
<path d="M113.978 57.8339C113.857 58.5067 114.014 59.3884 113.52 59.7976C113.014 60.2154 112.195 59.7715 111.509 59.7478C110.833 59.7242 109.962 60.1072 109.534 59.5464C109.173 59.075 109.74 58.3264 109.722 57.6735C109.66 55.2335 110.232 55.3355 111.985 55.3815C114.674 55.4511 114.447 55.2372 113.978 57.8339Z" fill="white"/>
<path d="M112.61 65.8903C112.098 71.0252 112.93 70.1546 108.425 69.7169C108.094 69.6846 107.948 69.4632 107.969 69.1349C108.241 64.7412 108.307 65.3891 112.61 65.8903Z" fill="white"/>
<path d="M146.303 71.4228C121.28 69.326 116.377 69.6705 116.653 68.1869C116.774 67.5365 117.357 67.7118 117.809 67.7802C120.418 68.1732 146.843 70.0187 147.607 70.0424C148.271 70.0635 148.981 70.1655 148.884 70.7624C148.741 71.6516 147.692 71.4228 146.303 71.4228Z" fill="#0A0430"/>
<path d="M164.462 55.0197C163.256 53.8967 163.499 54.0434 159.956 57.395C158.176 59.0801 158.673 55.598 156.538 57.2147C154.182 58.998 154.101 59.2691 154.842 60.3834C157.797 64.8269 158.176 65.2398 159.714 63.7934C167.215 56.7384 167.463 57.8141 164.462 55.0197ZM158.506 63.1405C157.376 62.0262 156.735 60.7005 155.763 59.6174C155.902 59.1522 156.33 59.0117 156.608 58.7307C157.152 58.1797 157.527 58.2519 158.058 58.8339C159.337 60.2367 159.546 59.437 162.844 56.4138C163.069 56.2073 163.288 55.8243 163.659 56.0569C164.092 56.3292 164.48 56.6899 164.661 57.1898C164.738 57.4037 164.749 57.298 158.506 63.1405Z" fill="#0A0430"/>
<path d="M164.722 67.1673C161.584 64.3343 162.185 64.6365 157.691 68.9195C156.501 67.513 156.124 67.1138 153.867 69.1931C152.252 70.6793 154.711 72.4365 155.902 74.0445C157.219 75.8216 157.764 75.0493 159.353 73.9487C161.447 72.4999 162.718 70.2154 164.77 68.7081C165.386 68.2567 165.311 67.6995 164.722 67.1673ZM157.301 73.7684C156.484 72.4999 155.262 71.5946 154.535 70.3136C154.585 69.9517 154.901 69.892 155.1 69.7341C155.9 69.0986 155.907 69.1086 156.722 69.7689C157.857 70.6904 158.498 69.8958 160.97 67.5391C162.075 66.4858 161.97 66.5442 163.553 67.9955C161.355 69.8933 159.894 72.3644 157.301 73.7684Z" fill="#0A0430"/>
<path d="M109.83 54.1266C108.594 54.1465 108.907 54.8753 108.268 59.5003C108.023 61.2699 109.385 60.9964 111.81 60.9964C114.757 61.3458 114.749 61.8545 115.458 55.905C115.615 54.5793 115.304 54.0408 109.83 54.1266ZM113.978 57.8338C113.857 58.5066 114.015 59.3884 113.52 59.7975C113.014 60.2154 112.195 59.7714 111.509 59.7478C110.833 59.7241 109.962 60.1072 109.534 59.5463C109.173 59.075 109.74 58.3263 109.722 57.6734C109.66 55.2334 110.232 55.3354 111.985 55.3814C114.674 55.4511 114.447 55.2371 113.978 57.8338Z" fill="#0A0430"/>
<path d="M108.684 64.3281C107.181 64.2174 107.629 65.1165 106.709 69.4381C106.381 70.9727 107.09 70.7887 110.987 71.2762C113.708 71.3309 113.152 71.5858 113.802 66.2146C114.021 64.4114 113.348 64.6713 108.684 64.3281ZM108.424 69.7167C108.093 69.6843 107.947 69.463 107.968 69.1347C108.239 64.741 108.307 65.3889 112.61 65.8901C112.098 71.025 112.93 70.1544 108.425 69.7167H108.424Z" fill="#0A0430"/>
<path d="M142.993 60.2749C133.039 59.5039 133.086 59.6544 133.105 58.9691C133.137 57.7566 133.731 58.5948 146.617 58.8833C147.305 58.8982 148.706 59.0686 148.59 59.7451C148.466 60.4602 148.374 60.2749 142.993 60.2749Z" fill="#0A0430"/>
<path d="M127.725 59.3086C124.274 58.8335 117.649 59.2737 117.919 57.7516C118.056 56.9855 118.86 57.3362 119.36 57.3996C125.91 58.2328 129.906 57.4295 129.905 58.6631C129.905 59.5088 128.585 59.3484 127.725 59.3086Z" fill="#0A0430"/>
<path d="M215.859 21.679C202.169 21.6043 191.794 32.695 191.83 45.3724C191.869 58.5088 202.61 69.1928 215.872 69.046C229.152 68.8993 239.66 58.3347 239.543 45.2991C239.415 31.271 228.013 21.7449 215.859 21.679Z" fill="#F1A93D"/>
<path d="M216.005 19.9206C201.732 19.8124 190.864 30.908 190.651 44.6376C190.436 58.54 201.297 69.8569 215.371 70.1579C229.112 70.4514 240.985 59.3508 241 44.9671C241.014 31.9638 230.829 20.0325 216.005 19.9206ZM216.025 68.683C202.765 68.8297 192.022 58.1458 191.983 45.0094C191.946 32.3319 202.322 21.2413 216.012 21.3159C228.166 21.3818 239.569 30.9067 239.695 44.9348C239.813 57.9704 229.305 68.5362 216.025 68.683Z" fill="#0A0430"/>
<path d="M226.548 40.423H221.049V34.9241C221.049 34.1949 220.759 33.4956 220.243 32.98C219.728 32.4644 219.028 32.1747 218.299 32.1747H213.903C213.542 32.1742 213.184 32.245 212.85 32.383C212.516 32.521 212.213 32.7235 211.957 32.9789C211.702 33.2342 211.499 33.5375 211.36 33.8713C211.222 34.205 211.151 34.5628 211.151 34.9241V40.423H205.652C205.291 40.4228 204.933 40.4938 204.6 40.6319C204.266 40.7701 203.963 40.9726 203.708 41.2279C203.452 41.4833 203.25 41.7864 203.112 42.12C202.973 42.4536 202.903 42.8112 202.903 43.1724V47.5772C202.903 47.9383 202.973 48.2958 203.112 48.6296C203.25 48.9632 203.452 49.2663 203.708 49.5217C203.963 49.777 204.266 49.9795 204.6 50.1176C204.933 50.2558 205.291 50.3267 205.652 50.3266H211.151V55.8255C211.152 56.5541 211.443 57.2526 211.959 57.7671C212.475 58.2817 213.174 58.5702 213.903 58.5694H218.301C219.031 58.5694 219.73 58.2797 220.246 57.7641C220.761 57.2485 221.051 56.5491 221.051 55.8199V50.3211H226.55C227.278 50.3205 227.976 50.0313 228.491 49.5169C229.006 49.0026 229.296 48.305 229.297 47.5772V43.1724C229.297 42.4431 229.008 41.7439 228.492 41.2282C227.976 40.7126 227.277 40.423 226.548 40.423Z" fill="white"/>
<path d="M191.329 85.7878C190.111 85.5777 189.982 86.8201 190.703 87.1173C192.913 88.0313 191.423 90.0895 192.874 90.1194C194.438 90.1517 193.517 86.1609 191.329 85.7878Z" fill="#0A0430"/>
<path d="M170.551 82.5722C170.067 82.2638 169.871 82.2414 166.356 81.8522C166.05 81.8261 165.051 81.7888 164.962 82.4491C164.871 83.1107 165.066 83.1754 169.543 83.7562C170.822 83.9228 171.198 82.9814 170.552 82.571L170.551 82.5722Z" fill="#0A0430"/>
<path d="M133.662 78.2608C133.196 78.0183 133.116 78.0494 129.727 77.6502C129.701 77.649 129.692 77.6502 129.656 77.6502C129.256 77.6664 128.589 77.6888 128.536 78.3243C128.48 79.0033 128.801 79.0443 132.72 79.5567C133.239 79.6251 133.299 79.6375 133.394 79.6375C134.145 79.6375 134.526 78.7135 133.663 78.2596L133.662 78.2608Z" fill="#0A0430"/>
<path d="M123.277 79.0498C124.187 79.0498 124.358 78.2228 124.073 77.8597C123.723 77.4157 122.643 77.4281 120.049 77.152C118.481 77.0811 118.338 78.3484 119.451 78.5847C120.77 78.8657 122.827 79.0498 123.277 79.0498Z" fill="#0A0430"/>
<path d="M160.221 82.1707C160.235 82.1757 160.25 82.1794 160.266 82.1794C161.429 82.1794 161.554 81.6758 161.566 81.5203C161.593 81.1186 161.165 80.743 160.588 80.6634C157.205 80.1996 156.12 79.8277 156 80.7965C155.903 81.575 156.431 81.5215 160.221 82.1707Z" fill="#0A0430"/>
<path d="M143.432 78.7603C143.087 78.6011 140.359 78.3598 139.727 78.2927C139.352 78.2529 138.655 78.1745 138.559 78.953C138.532 79.162 138.571 79.3336 138.672 79.4617C138.901 79.7514 139.367 79.7315 139.672 79.7862C140.007 79.8459 142.978 80.3023 143.344 80.1668C144.22 79.8435 144.154 79.096 143.432 78.7603Z" fill="#0A0430"/>
<path d="M153.413 80.6038C153.661 79.4087 150.878 79.3079 149.671 79.2321C149.796 79.2321 148.494 79.1027 148.114 79.6897C147.854 80.0902 148.175 80.6958 149.078 80.7207C151.659 80.7903 153.184 81.7056 153.413 80.6038Z" fill="#0A0430"/>
<path d="M115.481 78.1524C115.718 77.9621 115.833 77.5082 115.528 77.2035C114.808 76.4834 112.029 76.4673 111.153 76.5431C110.292 76.6165 110.18 77.875 111.143 77.9832C113.164 78.2096 114.985 78.5528 115.483 78.1536L115.481 78.1524Z" fill="#0A0430"/>
<path d="M179.54 83.4783L179.315 83.4323C176.159 82.7869 175.098 82.4536 174.929 83.39C174.769 84.273 177.577 84.6847 178.649 84.8774C178.671 84.8811 179.205 84.9794 179.226 84.9806C180.751 84.9645 180.666 83.7084 179.54 83.4783Z" fill="#0A0430"/>
<path d="M193.426 94.2525C193.431 93.7302 193.436 93.2365 192.792 93.1917C192.141 93.1469 192.047 93.7787 192.007 94.0473C191.453 97.6271 191.221 98.2763 191.951 98.4404C193.058 98.6891 192.991 97.0787 193.424 94.5672C193.426 94.551 193.426 94.2687 193.426 94.2525Z" fill="#0A0430"/>
<path d="M187.337 120.724C186.626 120.487 186.567 120.906 185.612 124.855C185.425 125.631 186.466 126.03 186.931 125.339C187.174 124.976 187.082 125.3 187.877 121.64C187.897 121.159 187.715 120.85 187.337 120.724Z" fill="#0A0430"/>
<path d="M180.518 127.025C179.943 126.898 179.311 127.158 179.342 127.767C179.369 128.274 179.688 128.333 180.753 128.529C181.678 128.7 181.553 128.688 181.678 128.704C182.725 128.771 184.964 127.909 184.562 127.003C184.029 125.806 183.352 127.639 180.518 127.025Z" fill="#0A0430"/>
<path d="M190.426 107.738C190.197 107.659 190.012 107.666 189.857 107.758C189.468 107.991 189.361 108.713 189.147 110.145C188.967 111.353 188.523 112.743 189.56 112.743C190.733 112.743 190.478 109.931 190.783 108.708C190.842 108.474 190.978 107.929 190.426 107.738Z" fill="#0A0430"/>
<path d="M107.891 77.5516C107.903 77.5565 107.915 77.5615 107.929 77.5628C108.388 77.6287 108.821 77.6909 109.101 77.4832C109.427 77.2407 109.529 76.5243 108.871 76.1948C107.654 75.5842 104.263 76.4062 104.909 77.7207C105.488 78.8997 106.57 77.1524 107.891 77.5516Z" fill="#0A0430"/>
<path d="M101.84 113.208C99.9299 112.981 99.7849 111.064 98.8528 111.735C97.0523 113.033 102.102 115.789 102.525 114.124C102.655 113.611 102.366 113.274 101.84 113.208Z" fill="#0A0430"/>
<path d="M166.92 125.382C166.491 125.344 166.215 125.273 165.97 125.475C165.848 125.577 165.777 125.727 165.763 125.907C165.71 126.579 166.06 126.642 168.005 126.991C169.85 127.323 169.454 127.3 169.783 127.281C170.132 127.263 170.462 127.245 170.546 126.81C170.752 125.684 168.079 125.49 166.92 125.382Z" fill="#0A0430"/>
<path d="M104.173 78.8112C104.037 78.7092 103.742 78.5774 103.304 78.8286C102.879 79.0724 102.84 79.29 102.588 80.7053C102.364 81.9613 101.968 83.1017 102.851 83.3281C103.512 83.4997 103.58 83.0159 104.448 79.448C104.491 79.2726 104.398 78.9791 104.173 78.8112Z" fill="#0A0430"/>
<path d="M191.485 100.966C191.062 100.897 190.754 101.134 190.663 101.605L190.617 101.834C190.402 102.878 189.838 105.513 190.887 105.642C191.073 105.667 191.272 105.642 191.42 105.527C191.734 105.282 191.708 104.821 191.896 103.381C192.139 101.526 192.196 101.083 191.485 100.966Z" fill="#0A0430"/>
<path d="M184.4 85.1529C185.495 85.5023 187.077 86.0483 187.735 86.0483C188.129 86.0483 188.325 85.8941 188.434 85.5595C188.494 85.378 188.484 85.2138 188.406 85.072C188.124 84.5646 186.988 84.3955 185.086 83.8956C183.976 83.7302 183.864 84.1368 183.808 84.3109C183.656 84.7748 183.938 85.0024 184.4 85.1504V85.1529Z" fill="#0A0430"/>
<path d="M99.7699 103.057C100.266 103.179 100.438 102.849 100.57 102.395C100.796 101.578 101.297 99.5784 100.859 98.8559C100.658 98.5238 100.196 98.5014 99.9385 98.6967C99.4537 99.0648 99.5012 100.164 99.3125 102C99.2963 102.496 99.2563 102.931 99.7699 103.057Z" fill="#0A0430"/>
<path d="M102.887 85.058C102.195 84.9449 102.049 85.6525 101.988 85.9547C101.618 87.7492 101.297 88.8386 101.582 89.2316C101.698 89.3921 101.895 89.4418 102.093 89.4418C102.659 89.4418 102.796 88.8909 103.13 87.5515C103.137 87.5229 103.425 86.3875 103.427 86.3626C103.414 85.7806 103.562 85.17 102.887 85.058Z" fill="#0A0430"/>
<path d="M188.759 114.758C187.618 114.485 187.394 117.433 187.449 118.538C187.493 119.415 188.84 119.444 188.86 118.507C188.897 116.377 189.896 115.029 188.759 114.758Z" fill="#0A0430"/>
<path d="M100.877 96.5626C101.877 96.6932 101.969 94.5598 102.228 92.9829C102.385 92.0253 101.55 91.8734 101.177 92.1333C100.694 92.4704 100.657 93.5473 100.307 95.5011V95.5297C100.331 96.391 100.714 96.539 100.877 96.5626Z" fill="#0A0430"/>
<path d="M99.6526 109.312C100.282 107.055 100.085 105.924 99.6876 105.62C99.5314 105.499 99.3365 105.492 99.1503 105.599C98.5756 105.929 98.107 107.309 98.3706 109.213C98.4694 109.93 99.4315 110.109 99.6526 109.312Z" fill="#0A0430"/>
<path d="M162.219 124.559L161.496 124.392C159.49 123.928 158.739 123.754 158.548 124.495C158.31 125.426 159.437 125.492 160.74 125.694C162.013 125.893 161.887 125.888 162.012 125.9C162.725 125.873 162.825 125.453 162.837 125.325C162.869 124.982 162.599 124.646 162.219 124.559Z" fill="#0A0430"/>
<path d="M176.876 126.69C176.059 126.435 175.213 126.388 174.371 126.276C173.437 126.153 173.316 126.98 173.547 127.29C173.796 127.623 174.511 127.637 175.91 127.843C176.028 127.843 176.039 127.858 176.337 127.858C178.009 127.858 177.703 126.948 176.877 126.69H176.876Z" fill="#0A0430"/>
<path d="M144.975 122.063C144.569 122.024 144.269 121.953 144.025 122.156C143.903 122.258 143.832 122.406 143.818 122.588C143.755 123.403 144.269 123.319 147.634 123.962C147.649 123.968 147.665 123.971 147.681 123.971L147.839 123.962C148.189 123.943 148.518 123.926 148.601 123.491C148.806 122.365 146.149 122.171 144.975 122.063Z" fill="#0A0430"/>
<path d="M140.274 121.24L139.551 121.073C137.546 120.609 136.794 120.435 136.604 121.176C136.368 122.106 137.494 122.172 138.796 122.374C140.068 122.572 139.943 122.568 140.068 122.579C141.172 122.538 141.099 121.426 140.275 121.238L140.274 121.24Z" fill="#0A0430"/>
<path d="M154.931 123.371C154.097 123.111 153.224 123.065 152.425 122.957C151.494 122.834 151.369 123.661 151.602 123.972C151.852 124.304 152.565 124.319 153.965 124.525C153.965 124.525 154.185 124.54 154.392 124.54C156.084 124.54 155.735 123.621 154.931 123.371Z" fill="#0A0430"/>
<path d="M122.564 118.537C122.16 118.5 121.859 118.427 121.613 118.631C121.49 118.733 121.419 118.882 121.405 119.062C121.354 119.734 121.704 119.797 123.647 120.147C125.48 120.476 125.104 120.455 125.426 120.438C125.776 120.418 126.106 120.401 126.188 119.966C126.395 118.839 123.731 118.645 122.564 118.537Z" fill="#0A0430"/>
<path d="M107.989 115.489C107.573 115.451 107.284 115.38 107.039 115.582C106.917 115.684 106.846 115.834 106.832 116.014C106.78 116.686 107.129 116.749 109.074 117.098C110.919 117.431 110.523 117.407 110.852 117.388C111.202 117.37 111.531 117.352 111.614 116.917C111.824 115.79 109.136 115.595 107.989 115.489Z" fill="#0A0430"/>
<path d="M117.862 117.715L117.138 117.549C115.134 117.085 114.382 116.911 114.192 117.652C113.954 118.582 115.081 118.647 116.383 118.849C117.655 119.047 117.53 119.043 117.655 119.055C118.76 119.014 118.686 117.902 117.863 117.714L117.862 117.715Z" fill="#0A0430"/>
<path d="M132.518 119.846C131.702 119.592 130.863 119.543 130.013 119.431C129.079 119.307 128.959 120.138 129.19 120.445C129.44 120.778 130.151 120.792 131.553 120.998C131.668 120.998 131.67 121.013 131.98 121.013C133.654 121.013 133.342 120.103 132.518 119.846Z" fill="#0A0430"/>
</g>
<defs>
<filter id="filter0_d_842_406" x="3.60956" y="0" width="237.781" height="236.837" filterUnits="userSpaceOnUse" color-interpolation-filters="sRGB">
<feFlood flood-opacity="0" result="BackgroundImageFix"/>
<feColorMatrix in="SourceAlpha" type="matrix" values="0 0 0 0 0 0 0 0 0 0 0 0 0 0 0 0 0 0 127 0" result="hardAlpha"/>
<feOffset dy="4"/>
<feGaussianBlur stdDeviation="2"/>
<feComposite in2="hardAlpha" operator="out"/>
<feColorMatrix type="matrix" values="0 0 0 0 0 0 0 0 0 0 0 0 0 0 0 0 0 0 0.25 0"/>
<feBlend mode="normal" in2="BackgroundImageFix" result="effect1_dropShadow_842_406"/>
<feBlend mode="normal" in="SourceGraphic" in2="effect1_dropShadow_842_406" result="shape"/>
</filter>
<filter id="filter1_d_842_406" x="0" y="19.9198" width="245" height="184.954" filterUnits="userSpaceOnUse" color-interpolation-filters="sRGB">
<feFlood flood-opacity="0" result="BackgroundImageFix"/>
<feColorMatrix in="SourceAlpha" type="matrix" values="0 0 0 0 0 0 0 0 0 0 0 0 0 0 0 0 0 0 127 0" result="hardAlpha"/>
<feOffset dy="4"/>
<feGaussianBlur stdDeviation="2"/>
<feComposite in2="hardAlpha" operator="out"/>
<feColorMatrix type="matrix" values="0 0 0 0 0 0 0 0 0 0 0 0 0 0 0 0 0 0 0.25 0"/>
<feBlend mode="normal" in2="BackgroundImageFix" result="effect1_dropShadow_842_406"/>
<feBlend mode="normal" in="SourceGraphic" in2="effect1_dropShadow_842_406" result="shape"/>
</filter>
</defs>
</svg>
