<svg width="231" height="232" viewBox="0 0 231 232" fill="none" xmlns="http://www.w3.org/2000/svg">
<g filter="url(#filter0_d_840_152)">
<path d="M7 110.959C7 139.592 18.4281 167.052 38.7701 187.298C59.1122 207.544 86.702 218.918 115.47 218.918C144.238 218.918 171.828 207.544 192.17 187.298C212.512 167.052 223.94 139.592 223.94 110.959C223.94 82.3266 212.512 54.8668 192.17 34.6205C171.828 14.3742 144.238 3 115.47 3C86.702 3 59.1122 14.3742 38.7701 34.6205C18.4281 54.8668 7 82.3266 7 110.959Z" fill="#FFBBA2"/>
<path d="M5.5 110.959C5.5 139.992 17.0878 167.834 37.712 188.361C58.3359 208.888 86.3064 220.418 115.47 220.418C144.634 220.418 172.604 208.888 193.228 188.361C213.852 167.834 225.44 139.992 225.44 110.959C225.44 81.9265 213.852 54.0844 193.228 33.5573C172.604 13.0306 144.634 1.5 115.47 1.5C86.3064 1.5 58.3359 13.0306 37.712 33.5573C17.0878 54.0844 5.5 81.9265 5.5 110.959Z" stroke="white" stroke-width="3"/>
</g>
<g filter="url(#filter1_d_840_152)">
<path d="M127.81 220.865C125.434 220.548 119.562 218.239 117.604 216.861C115.784 215.579 114.363 212.374 113.166 207.457C109.546 192.601 96.4311 80.0231 94.9584 40.0004C94.8043 35.7936 101.519 30.9649 104.835 28.6636C105.603 30.8937 99.1521 33.3923 103.559 57.4495C104.565 62.9412 103.727 58.5083 108.402 91.9216C117.493 156.894 117.51 193.345 121.411 208.153C124.05 218.163 128.092 219.907 127.81 220.865Z" fill="#F46432"/>
<path d="M221.79 194.869C220.96 200.394 218.309 207.124 212.206 208.884C189.389 215.465 151.491 221.17 140.211 221.58C129.386 221.972 124.997 218.54 122.146 202.481C120.431 192.821 105.574 66.1603 104.012 48.7578C103.074 38.3168 104.111 32.3333 108.746 26.5266C114.161 19.7445 167.092 16.0185 179.465 16.3391C191.248 16.6445 196.974 22.254 198.612 29.7827C202.827 49.1468 197.62 33.1429 215.357 149.052C218.385 168.839 222.76 188.405 221.788 194.869H221.79Z" fill="white"/>
<path d="M208.33 199.28C200.342 203.109 178.095 207.376 175.01 207.933C131.778 215.742 132.357 218.372 128.787 198.227C125.774 181.231 121.98 122.936 118.833 100.653C111.839 51.1014 111.024 44.2193 111.374 36.1153C111.515 32.8428 115.066 30.4031 117.957 29.7483C130.151 26.9853 131.785 27.0525 133.11 29.0387C135.853 33.1469 140.467 31.7647 146.741 31.4113C156.069 30.8853 153.328 31.3154 166.008 29.5086C171.537 28.7209 169.277 24.2032 172.558 23.6772C176.883 22.984 181.228 22.5073 185.603 23.1964C192.227 24.2402 192.262 31.988 197.558 71.6888C213.938 194.479 220.16 193.61 208.329 199.281L208.33 199.28Z" fill="white"/>
<path d="M157.799 169.683C154.315 170.535 150.748 170.931 147.22 171.487C144.725 171.881 144.485 172.26 144.099 169.192C143.148 161.652 143.953 162.248 146.668 161.655C152.035 160.483 157.532 160.129 162.888 158.919C171.662 156.937 180.329 154.847 189.191 154.181C191.597 154 191.535 157.948 191.802 162.207C191.959 164.723 172.96 165.978 157.799 169.683Z" fill="#F46432"/>
<path d="M219.51 163.271C217.387 151.288 215.03 132.381 213.957 125.777C204.171 65.574 206.972 79.6546 202.498 41.6839C199.924 19.8377 195.591 15.1487 173.131 14.6912C161.544 14.4542 118.02 19.5829 111.209 22.891C105.897 25.4705 101.058 28.7992 96.8013 32.9087C93.6412 35.9593 93.0687 38.0881 93.549 47.0948C94.1009 57.4672 106.598 184.137 110.584 203.884C111.432 208.085 112.392 211.539 113.522 214.087C116.809 221.506 129.935 223.65 138.08 223.45C151.198 223.126 190.111 217.213 212.992 210.469C220.406 208.284 223.516 199.224 223.784 192.95C224.056 186.587 222.208 178.489 219.512 163.274L219.51 163.271ZM127.809 220.865C125.433 220.548 119.56 218.239 117.603 216.861C115.131 215.12 113.698 209.316 112.259 201.01C109.513 185.167 99.1135 85.897 95.1042 43.499C94.84 40.7004 94.4849 38.6648 96.6333 35.7676C98.0138 33.9046 100.483 31.6827 104.833 28.6622C105.601 30.8923 99.0447 33.4018 103.45 57.4577C104.339 62.3138 115.678 164.474 119.721 198.751C122.281 220.447 128.326 219.103 127.807 220.862L127.809 220.865ZM128.124 220.925C128.011 220.878 128.027 220.914 128.116 220.777C128.217 220.87 128.206 220.832 128.124 220.925ZM221.79 194.869C220.96 200.394 218.309 207.124 212.206 208.884C189.39 215.465 151.491 221.17 140.211 221.58C128.555 222.002 123.889 217.232 121.728 197.712C120.557 187.124 106.7 67.7589 104.538 50.0454C103.163 38.7853 103.896 32.6032 108.746 26.528C114.161 19.7459 167.092 16.0199 179.465 16.3404C191.248 16.6459 196.974 22.2554 198.612 29.7841C202.827 49.1482 197.62 33.1443 215.357 149.053C218.385 168.841 222.76 188.406 221.788 194.871L221.79 194.869Z" fill="#0A0430"/>
<path d="M205.868 121.085C204.815 113.032 203.154 96.1377 200.997 82.7353C193.827 38.1743 195.926 22.5937 185.375 21.3403C181.291 20.8554 174.399 21.4376 172.678 21.7609C167.769 22.6841 169.774 26.1992 167.067 27.2827C164.697 28.2306 152.397 29.3923 150.91 29.4443C138.909 29.8635 136.826 31.4032 134.375 27.9402C133.366 26.5142 131.781 25.5238 130.154 25.8033C108.673 29.506 107.241 28.8621 110.65 54.6193C110.84 56.0576 125.176 179.4 128.438 202.48C129.696 211.383 132.181 215.759 141.255 215.243C151.33 214.669 203.12 205.751 211.051 199.655C220.256 192.582 214.535 187.345 205.868 121.085ZM208.329 199.28C202.909 201.877 197.074 203.276 191.212 204.507C170.166 208.931 156.534 211.799 147.662 212.848C135.475 214.291 131.658 211.206 130.67 205.083C128.345 190.68 117.141 89.3489 114.83 71.1492C109.754 31.1553 106.251 30.9265 130.571 27.7813C133.725 27.3731 132.792 31.8059 138.79 31.9059C139.133 31.9114 155.4 31.0936 159.72 30.3799C165.662 29.3991 169.257 30.0498 170.436 25.706C170.74 24.5869 171.453 23.854 172.558 23.6773C176.883 22.9841 181.228 22.5074 185.603 23.1965C188.316 23.6239 189.888 25.3964 190.634 27.8676C192.788 35.0031 193.889 42.3441 194.629 49.7358C195.704 60.4809 199.664 83.9298 202.575 109.81C210.798 182.936 220.159 193.61 208.329 199.281V199.28Z" fill="#0A0430"/>
<path d="M148.897 24.5197C148.836 27.0991 145.175 27.1539 145.32 24.7704C145.486 22.0074 148.942 22.6471 148.897 24.5197Z" fill="#0A0430"/>
<path d="M154.801 24.847C152.933 24.8319 153.295 22.1977 154.834 22.1936C156.806 22.1895 156.431 24.8593 154.801 24.847Z" fill="#0A0430"/>
<path d="M192.212 154.315C191.413 152.329 190.943 152.062 184.053 153.031C178.296 153.841 172.572 154.852 166.944 156.323C159.342 158.309 151.429 158.711 143.846 160.814C142 161.326 142.314 163.019 142.243 165.186C142.183 167.056 142.439 168.898 142.716 170.735C142.972 172.438 143.602 173.119 144.975 173.263C145.686 173.337 146.44 173.397 147.123 173.241C150.617 172.438 154.217 172.26 157.712 171.439C177.596 166.775 193.161 166.785 193.298 162.742C193.396 159.879 193.302 157.022 192.212 154.318V154.315ZM157.797 169.683C154.314 170.535 150.746 170.931 147.219 171.487C144.724 171.881 144.484 172.26 144.097 169.191C143.146 161.652 143.951 162.248 146.667 161.655C152.033 160.483 157.53 160.129 162.887 158.919C171.661 156.937 180.328 154.847 189.19 154.181C191.596 154 191.534 157.948 191.801 162.207C191.958 164.723 172.959 165.978 157.797 169.683Z" fill="#0A0430"/>
<path d="M120.422 39.9073C121.626 40.884 122.704 40.1854 122.591 41.5731C122.514 42.5114 120.904 42.3292 120.041 41.6826C119.061 40.9484 119.083 41.7895 117.386 43.5634C116.618 44.3662 115.631 43.4799 116.242 42.573C117.494 40.7155 118.319 40.5717 117.189 39.9717C116.194 39.4443 115.049 38.8635 115.554 37.9923C116.016 37.195 117.525 38.2032 118.275 38.7347C118.787 39.0964 119.091 38.9895 119.394 38.4923C119.782 37.8539 120.261 37.269 120.609 36.6115C121.177 35.5389 122.605 35.954 122.126 37.3183C121.786 38.2868 121.122 38.8841 120.422 39.9073Z" fill="#0A0430"/>
</g>
<path d="M160.448 135.024C160.415 135.03 146.76 138.223 136.189 139.615C134.206 139.877 134.045 138.733 132.13 125.696C130.155 112.243 127.367 115.933 157.273 110.999C159.08 110.701 159.11 111.72 159.851 117.529C160.942 126.094 161.633 125.926 160.394 126.141C158.535 126.465 157.355 126.981 157.093 125.555C155.305 115.873 155.134 114.191 153.211 114.535C147.756 115.509 142.173 115.827 136.854 117.54C135.075 118.113 135.082 118.137 135.113 120.444C135.637 124.687 136.263 129.358 137.342 133.954C137.802 135.911 137.491 135.478 160.795 131.919C161.659 131.788 161.908 132.032 161.999 132.813C162.213 134.636 162.244 134.684 160.447 135.024H160.448Z" fill="#F46432"/>
<path d="M156.318 94.9419C154.314 95.2324 153.843 95.8091 153.608 94.5707C152.946 91.0956 152.223 87.5203 152.039 85.4039C151.765 82.2724 146.312 84.1559 132.911 86.16C131.907 86.3107 131.135 87.1422 130.916 88.134C130.721 89.0189 131.413 97.1145 132.649 102.239C133.502 105.777 133.472 105.091 146.36 103.025C147.783 102.797 147.977 102.916 148.186 104.095C148.843 107.791 147.672 105.842 133.541 108.512C129.723 109.234 129.767 105.991 128.687 100.658C124.865 81.7971 126.556 84.2902 138.522 82.0327C146.76 80.4779 153.777 80.4341 153.805 80.43C156.318 79.9697 155.895 81.8025 156.415 87.9011C156.589 89.9298 156.531 91.9764 156.934 93.9831C157.047 94.5461 156.932 94.8529 156.318 94.9419Z" fill="#F46432"/>
<path d="M189.9 98.4418C183.39 99.587 183.065 100.282 182.936 98.7802C182.818 97.4186 182.562 96.9514 184.864 96.7131C188.233 96.3638 187.368 96.8117 185.451 82.2258C185.349 81.4477 184.945 80.8148 184.611 80.1505C184.283 79.4984 183.63 79.4984 183.012 79.5285C174.951 79.9189 167.814 81.4162 166.745 81.7504C165.148 82.249 165.337 82.6162 166.441 91.8064C166.799 94.7816 167.196 97.7569 167.675 100.716C167.884 102.006 166.918 101.824 166.269 102.027C164.612 102.545 164.587 101.235 163.863 96.2501C161.372 79.1244 160.926 79.3724 162.921 79.0395C172.996 77.3628 165.294 77.8423 183.738 76.482C189.709 76.0423 187.322 77.7628 190.949 96.9282C191.126 97.8624 190.831 98.2802 189.902 98.4432L189.9 98.4418Z" fill="#F46432"/>
<path d="M179.875 126.502C173.059 127.932 173.125 128.041 173.051 130.261C172.975 132.515 173.673 133.17 172.642 133.277C169.837 133.566 169.628 134.628 169.006 131.154C168.105 126.12 168.092 126.035 169.006 125.896C176.957 124.696 177.055 124.802 176.774 122.833C175.885 116.577 175.542 116.692 176.442 116.547C179.086 116.122 179.597 115.657 179.652 116.613C180.23 126.492 181.484 126.162 179.874 126.5L179.875 126.502Z" fill="#F46432"/>
<path d="M193.03 128.999C186.495 130.121 185.537 130.132 185.222 128.061C185.159 127.643 185.416 127.666 185.639 127.621C187.19 127.31 188.59 126.521 190.151 126.235C191.808 125.932 191.585 124.72 191.36 122.478C191.152 120.399 189.676 120.489 187.498 121.144C186.612 121.411 186.227 121.111 186.001 120.221C185.759 119.265 185.744 118.809 186.974 118.668C197.178 117.491 192.768 114.328 194.988 126.573C195.31 128.347 195.043 128.654 193.03 128.999Z" fill="#F46432"/>
<path d="M177.056 110.524C169.258 112.244 169.548 111.253 169.681 114.957C169.813 118.661 170.961 119.781 168.663 120.102C167.491 120.265 167.315 120.058 167.18 119.42C165.589 111.879 166.598 114.637 165.619 110.133C165.402 109.132 165.508 109.65 176.436 107.546C177.652 107.312 177.425 107.888 177.753 109.929C177.845 110.502 177.358 110.457 177.056 110.524Z" fill="#F46432"/>
<path d="M145.673 97.6967C140.24 97.7501 139.147 99.6405 138.781 97.1241C137.992 91.7106 137.794 91.438 139.093 91.3695C146.964 90.9503 147.058 90.1901 146.765 92.4065C146.455 94.757 148.191 97.672 145.673 97.6967Z" fill="#F46432"/>
<path d="M149.626 128.036C142.678 128.867 142.837 129.284 142.484 127.214C141.707 122.636 141.581 122.514 142.314 122.462C148.82 122.01 150.139 120.433 150.256 122.044C150.617 126.98 151.53 127.809 149.626 128.036Z" fill="#F46432"/>
<path d="M187.859 113.106C185.728 113.321 184.67 113.546 184.688 110.868C184.692 110.254 185.039 110.502 186.073 110.335C188.235 109.983 188.454 110.179 188.407 112.428C188.489 112.832 188.31 113.062 187.86 113.107L187.859 113.106Z" fill="#F46432"/>
<path d="M192.149 107.672C189.372 108.275 189.07 108.362 188.845 107.631C187.719 103.972 189.585 105.043 190.306 104.691C190.685 104.506 192.155 104.131 192.259 104.658C192.825 107.499 192.953 107.498 192.149 107.672Z" fill="#F46432"/>
<path d="M178.731 92.5572C173.42 93.2476 172.569 93.8214 172.393 92.2161C171.976 88.4161 171.093 87.3449 172.429 87.1326C178.251 86.2052 179.073 85.5847 179.225 87.2915C179.56 91.012 180.399 92.3407 178.731 92.5572Z" fill="#F46432"/>
<path d="M158.257 103.801C158.147 104.472 156.696 104.609 156.014 104.625C154.779 104.655 154.732 104.57 154.467 103.028C154.296 102.039 154.659 101.616 155.599 101.56C156.662 101.497 158.754 100.76 158.257 103.801Z" fill="#F46432"/>
<path d="M177.223 99.75C177.212 100.308 175.544 101.199 174.689 100.982C173.664 100.72 174.083 99.6418 173.874 98.9336C173.75 98.5131 175.385 97.8281 176.526 98.0131C177.59 98.1857 176.85 99.2733 177.223 99.75Z" fill="#F46432"/>
<path d="M163.66 134.726C163.282 130.685 162.967 130.055 161.774 130.266C160.707 130.454 148.57 132.228 139.893 133.711C138.527 133.944 138.406 134.107 136.793 122.273C136.316 118.768 135.824 119.332 139.503 118.331C143.39 117.273 147.432 117.132 151.369 116.343C154.725 115.669 153.558 115.373 155.686 125.987C156.219 128.645 158.228 128.092 160.678 127.619C163.666 127.043 162.427 126.63 161.451 118.614C160.371 109.747 159.863 109.064 157.095 109.485C133.062 113.147 129.555 112.585 129.632 117.787C129.656 119.392 131.494 133.662 132.967 138.73C133.659 141.115 134.061 140.991 136.584 140.925C139.253 140.855 141.767 139.833 144.436 139.712C146.917 139.6 149.285 138.781 151.71 138.318C163.137 136.137 163.799 136.202 163.66 134.726ZM160.448 135.023C160.415 135.03 146.761 138.223 136.189 139.615C134.206 139.877 134.045 138.733 132.13 125.696C130.155 112.243 127.367 115.933 157.273 110.999C159.08 110.701 159.11 111.72 159.851 117.529C160.942 126.093 161.633 125.926 160.394 126.141C158.535 126.465 157.356 126.981 157.093 125.555C155.305 115.873 155.134 114.191 153.211 114.535C147.756 115.509 142.173 115.826 136.854 117.54C135.076 118.113 135.082 118.137 135.113 120.444C135.637 124.687 136.263 129.358 137.342 133.954C137.802 135.911 137.491 135.478 160.795 131.919C161.659 131.788 161.908 132.032 161.999 132.813C162.213 134.636 162.244 134.684 160.447 135.023H160.448Z" fill="#0A0430"/>
<path d="M158.483 93.5145C157.406 82.849 158.154 78.7011 154.151 78.7573C145.943 78.8723 137.879 80.1025 129.95 82.1394C125.551 83.2695 125.721 85.3709 125.633 88.8818C125.536 92.7146 127.782 104.901 128.461 107.035C130.022 111.94 132.083 110.101 144.231 108.659C148.499 108.153 149.914 107.879 149.853 105.365C149.782 102.395 149.245 101.321 147.363 101.32C145.822 101.32 136.96 102.809 135.594 103.146C134.755 103.353 134.281 103.086 134.144 102.131C133.91 100.509 133.479 98.9157 133.252 97.2939C132.09 89.001 131.843 87.9708 133.34 87.7393C156.791 84.1147 148.356 83.5161 152.245 95.4966C152.969 97.7254 154.774 96.6637 157.301 96.313C158.56 96.1377 158.612 94.7925 158.483 93.5145ZM156.316 94.9418C154.313 95.2322 153.842 95.8089 153.606 94.5706C152.944 91.0954 152.222 87.5202 152.037 85.4038C151.764 82.2723 146.311 84.1558 132.909 86.1599C131.906 86.3106 131.134 87.1421 130.915 88.1339C130.72 89.0188 131.412 97.1144 132.648 102.239C133.501 105.777 133.471 105.091 146.359 103.025C147.782 102.797 147.976 102.916 148.185 104.095C148.842 107.791 147.67 105.842 133.54 108.512C129.722 109.233 129.766 105.991 128.685 100.658C124.863 81.797 126.555 84.2901 138.521 82.0326C146.759 80.4778 153.776 80.434 153.803 80.4298C156.316 79.971 155.894 81.8024 156.414 87.901C156.588 89.9297 156.53 91.9763 156.933 93.9829C157.046 94.5459 156.93 94.8528 156.316 94.9418Z" fill="#0A0430"/>
<path d="M192.522 97.1268C188.156 70.2079 192.212 74.727 173.31 75.8064C169.561 76.0201 165.94 76.8626 162.29 77.5968C160.577 77.9406 160.081 78.6721 160.293 80.3926C160.619 83.046 162.502 98.8062 163.153 101.401C163.911 104.428 166.238 104.224 168.946 102.649C169.36 102.408 169.541 102.576 166.741 84.5063C166.564 83.3679 166.935 82.9748 167.972 82.7871C172.668 81.9406 177.393 81.2981 182.158 81.0269C184.454 80.8967 183.825 80.5926 185.741 94.6433C185.793 95.0309 185.771 95.2433 185.296 95.2186C184.232 95.1624 183.28 95.6912 182.255 95.8241C180.917 95.9967 181.21 97.0583 181.818 100.391C181.931 101.013 182.315 101.243 182.998 101.145C191.908 99.8637 192.906 99.5035 192.521 97.1268H192.522ZM189.9 98.4405C183.39 99.5856 183.065 100.28 182.936 98.7788C182.817 97.4172 182.561 96.9501 184.864 96.7117C188.233 96.3624 187.368 96.8103 185.45 82.2241C185.349 81.4461 184.945 80.8132 184.611 80.1488C184.283 79.4968 183.63 79.4968 183.012 79.5269C174.95 79.9173 167.814 81.4145 166.745 81.7488C165.148 82.2474 165.337 82.6145 166.441 91.8048C166.798 94.7802 167.196 97.7555 167.675 100.714C167.884 102.005 166.918 101.823 166.269 102.025C164.611 102.543 164.587 101.234 163.863 96.2487C161.372 79.1228 160.926 79.3707 162.921 79.0379C172.996 77.3612 165.294 77.8406 183.738 76.4804C189.709 76.0407 187.322 77.7612 190.949 96.9268C191.126 97.861 190.83 98.2788 189.901 98.4418L189.9 98.4405Z" fill="#0A0430"/>
<path d="M182.059 125.661C180.855 114.968 181.349 114.28 179.52 114.474C175.705 115.195 174.18 115.033 174.492 116.944C175.542 123.38 175.586 123.262 174.644 123.411C167.901 124.484 166.805 124.591 166.95 126.169C167.723 134.67 168.249 135.426 169.953 135.166C173.918 134.559 174.884 134.795 174.635 133.013C174.24 130.191 174.105 129.358 175.373 129.089C177.051 128.734 178.694 128.162 180.384 127.935C181.879 127.733 182.278 127.61 182.058 125.661H182.059ZM179.874 126.502C173.058 127.932 173.124 128.041 173.05 130.261C172.974 132.515 173.672 133.17 172.641 133.277C169.836 133.566 169.627 134.628 169.005 131.154C168.103 126.119 168.091 126.035 169.005 125.896C176.956 124.696 177.053 124.802 176.773 122.833C175.884 116.577 175.541 116.692 176.441 116.547C179.085 116.122 179.596 115.657 179.651 116.613C180.229 126.492 181.482 126.162 179.872 126.5L179.874 126.502Z" fill="#0A0430"/>
<path d="M195.533 117.28C195.323 114.585 189.369 116.832 185.163 117.55C183.718 117.796 184.351 119.535 184.936 121.524C185.517 123.495 187.101 122.681 188.425 122.478C189.808 122.266 189.76 122.285 189.974 123.641C190.102 124.447 189.881 124.791 189.072 124.952C187.527 125.261 186.113 126.018 184.546 126.287C184.165 126.352 183.789 126.5 183.649 126.952C183.526 127.345 184.149 131.307 185.749 131.319C188.681 131.34 190.086 131.144 194.644 130.008C197.586 129.276 196.453 129.061 195.533 117.283V117.28ZM193.03 128.999C186.495 130.121 185.537 130.132 185.222 128.061C185.159 127.643 185.416 127.666 185.639 127.621C187.19 127.31 188.59 126.521 190.151 126.235C191.808 125.932 191.585 124.72 191.36 122.478C191.153 120.399 189.676 120.489 187.498 121.144C186.612 121.411 186.227 121.111 186.001 120.221C185.759 119.265 185.744 118.809 186.974 118.668C197.178 117.491 192.768 114.328 194.988 126.573C195.311 128.347 195.043 128.654 193.03 128.999Z" fill="#0A0430"/>
<path d="M179.112 110.351C179.112 103.89 178.04 106.046 167.141 107.758C164.02 108.249 163.923 108.629 164.492 111.695C165.018 114.527 165.04 117.442 165.89 120.225C166.589 122.515 167.838 121.429 170.202 121.14C172.172 120.899 171.869 121.166 171.02 114.106C170.85 112.701 171.39 113.251 177.614 111.955C178.708 111.728 179.399 111.395 179.111 110.35L179.112 110.351ZM177.058 110.524C169.259 112.244 169.55 111.253 169.682 114.957C169.814 118.661 170.962 119.781 168.665 120.102C167.492 120.265 167.316 120.058 167.181 119.42C165.59 111.879 166.599 114.637 165.62 110.133C165.403 109.132 165.509 109.65 176.437 107.546C177.654 107.312 177.426 107.888 177.754 109.929C177.846 110.502 177.359 110.457 177.058 110.524Z" fill="#0A0430"/>
<path d="M148.59 94.7789C147.863 91.2722 149.709 89.0462 145.515 89.2572C137.213 89.6777 136.595 89.7599 136.702 92.1859C137.18 102.969 138.26 99.6336 146.811 99.1788C147.538 99.1405 148.228 98.7884 148.408 97.9638C148.637 96.9159 148.815 95.8625 148.59 94.7803V94.7789ZM145.672 97.6967C140.238 97.7501 139.145 99.6405 138.779 97.1241C137.991 91.7106 137.792 91.438 139.092 91.3695C146.963 90.9503 147.056 90.1901 146.763 92.4065C146.454 94.757 148.189 97.672 145.672 97.6967Z" fill="#0A0430"/>
<path d="M152.251 126.61C151.126 116.78 152.394 120.157 143.59 120.844C139.678 121.15 140.15 121.225 141.222 128.596C141.478 130.358 142.111 130.246 144.242 130.246C152.044 129.309 152.581 129.492 152.251 126.61ZM149.626 128.037C142.678 128.869 142.837 129.285 142.484 127.215C141.707 122.637 141.582 122.515 142.314 122.463C148.82 122.011 150.139 120.435 150.256 122.046C150.617 126.981 151.53 127.81 149.626 128.037Z" fill="#0A0430"/>
<path d="M193.509 104.024C193.351 103.125 192.777 102.828 191.965 102.938C187.664 103.516 186.923 103.565 187.075 104.838C187.49 108.323 187.988 108.414 187.132 108.607C184.972 109.094 182.915 108.649 183.284 110.764C183.792 113.683 183.909 115.109 185.662 114.844C188.385 114.432 190.018 114.648 189.848 112.983C189.538 109.95 189.149 109.627 190.113 109.491C195.37 108.747 194.247 108.22 193.509 104.024ZM187.859 113.106C185.728 113.321 184.67 113.546 184.688 110.868C184.692 110.254 185.039 110.502 186.073 110.335C188.235 109.983 188.454 110.179 188.407 112.428C188.489 112.832 188.31 113.062 187.86 113.107L187.859 113.106ZM192.149 107.673C189.372 108.276 189.07 108.364 188.844 107.632C187.719 103.973 189.585 105.045 190.306 104.692C190.685 104.508 192.155 104.132 192.259 104.66C192.825 107.501 192.953 107.499 192.149 107.673Z" fill="#0A0430"/>
<path d="M181.098 90.8503C180.322 83.6079 181.282 83.9134 170.638 85.9449C170.1 86.0476 170.194 86.4723 170.23 86.7887C171.108 94.4885 171.271 94.9186 173.39 94.7405C181.357 94.0693 181.152 93.6789 181.097 90.8503H181.098ZM178.731 92.5585C173.42 93.2489 172.569 93.8227 172.393 92.2174C171.976 88.4175 171.093 87.3462 172.429 87.1339C178.251 86.2065 179.072 85.586 179.225 87.2928C179.56 91.0133 180.399 92.3421 178.731 92.5585Z" fill="#0A0430"/>
<path d="M119.339 79.1284C119.112 75.5846 118.755 76.0134 126.875 74.4038C127.414 74.297 128.066 74.0901 128.244 74.9531C128.421 75.8161 127.716 75.9572 127.149 76.0805C121.377 77.3367 120.795 76.8969 121 78.2093C121.319 80.2476 121.238 82.3284 121.691 84.3571C121.798 84.8407 121.873 85.4982 121.091 85.6133C120.422 85.7119 120.242 85.2174 120.126 84.7092C119.692 82.7955 119.292 80.8777 119.339 79.1284Z" fill="#0A0430"/>
<path d="M190.141 65.3629C188.959 65.6902 182.679 66.6478 182.623 66.6519C181.671 66.73 181.634 65.4368 182.396 65.2711C194.05 62.7478 192.858 62.3478 193.521 71.1915C193.557 71.6669 193.419 72.0066 192.855 72.1011C190.636 72.4778 193.173 64.5218 190.14 65.3615L190.141 65.3629Z" fill="#0A0430"/>
<path d="M192.064 139.211C191.534 139.288 191.031 139.258 190.961 138.556C190.829 137.248 195.723 137.519 198.777 136.728C200.137 136.376 200.313 136.263 200.245 134.863C200.096 131.83 198.887 131.159 199.96 130.788C200.607 130.565 201.041 130.854 201.202 131.445C203.381 139.426 200.221 138.029 192.064 139.211Z" fill="#0A0430"/>
<path d="M127.389 141.551C127.206 140.306 128.629 140.393 128.795 141.319C129.843 147.175 129.563 147.541 131.37 147.112C136.111 145.988 136.676 145.6 136.974 146.555C137.23 147.38 136.595 147.606 135.984 147.762C127.799 149.862 128.577 149.643 127.389 141.551Z" fill="#0A0430"/>
<path d="M159.511 102.438C159.194 100.164 158.602 99.6281 156.326 99.9705C153.221 100.439 152.602 100.353 153.367 104.046C153.729 105.792 153.956 106.207 156.688 105.965C159.471 105.718 159.893 105.181 159.511 102.438ZM158.257 103.802C158.147 104.473 156.696 104.61 156.014 104.627C154.779 104.657 154.732 104.572 154.467 103.029C154.296 102.04 154.659 101.617 155.599 101.561C156.662 101.498 158.754 100.761 158.257 103.802Z" fill="#0A0430"/>
<path d="M178.679 100.158C177.828 95.157 178.378 96.657 173.932 97.0049C172.741 97.0981 172.525 97.8323 172.569 98.746C172.748 102.364 173.515 102.849 175.131 102.414C177.68 101.73 178.828 101.862 178.678 100.16L178.679 100.158ZM174.689 100.983C173.664 100.721 174.083 99.6432 173.874 98.935C173.75 98.5145 175.385 97.8296 176.526 98.0145C177.59 98.1871 176.85 99.2761 177.223 99.7528C177.212 100.31 175.544 101.201 174.689 100.983Z" fill="#0A0430"/>
<g filter="url(#filter2_d_840_152)">
<path d="M89.6404 150.554L26.5689 162.086C20.8062 163.563 15.1096 159.777 14.6293 154.271C10.2622 104.264 8.4234 88.5176 8.64637 82.4478C8.82804 77.4972 12.0707 75.1328 16.4598 74.3342C22.9381 73.1548 38.2153 72.3808 80.0625 69.0439C85.3366 68.6233 89.8399 72.3055 90.2982 77.0725L96.6032 141.156C97.0175 145.451 94.0886 149.4 89.6417 150.555L89.6404 150.554Z" fill="#F46432"/>
<path d="M51.3716 144.581C51.3359 144.589 36.3449 147.949 24.7508 149.36C22.5775 149.625 22.4124 148.37 20.4553 134.073C18.4348 119.316 15.3436 123.342 48.1483 118.24C50.1316 117.932 50.1522 119.049 50.9023 125.42C52.0075 134.811 52.7645 134.635 51.4074 134.857C49.365 135.189 48.0698 135.746 47.7959 134.18C45.9379 123.558 45.7741 121.713 43.6628 122.068C37.6758 123.076 31.5581 123.366 25.7169 125.185C23.7612 125.795 23.7722 125.821 23.7805 128.347C24.3103 132.999 24.9462 138.121 26.0789 143.165C26.5606 145.311 26.2234 144.828 51.7859 141.182C52.7328 141.047 53.004 141.317 53.0948 142.176C53.3068 144.174 53.3315 144.158 51.3716 144.581Z" fill="white"/>
<path d="M47.2715 100.647C45.0749 100.945 44.5519 101.567 44.3069 100.21C43.6202 96.3968 42.8646 92.4737 42.6856 90.1519C42.42 86.7177 36.4289 88.7313 21.7283 90.7792C20.6286 90.9327 19.774 91.8354 19.5235 92.9217C19.3005 93.89 19.9721 102.762 21.27 108.388C22.166 112.275 22.1426 111.516 36.2802 109.395C37.841 109.161 38.0515 109.291 38.269 110.586C38.9489 114.635 37.6937 112.497 22.1825 115.268C17.9916 116.017 18.0756 112.466 16.9497 106.614C12.9694 85.9149 14.7889 88.6683 27.9204 86.319C36.9601 84.7026 44.6483 84.7286 44.6758 84.7245C47.4312 84.2341 46.9522 86.2478 47.4546 92.9354C47.6225 95.1599 47.5358 97.4009 47.957 99.6036C48.0753 100.223 47.9459 100.556 47.2715 100.647Z" fill="white"/>
<path d="M84.0139 104.83C76.8708 106.013 76.5102 106.773 76.3863 105.13C76.2735 103.639 75.9955 103.123 78.5196 102.886C82.2151 102.539 81.2737 103.019 79.3152 87.0228C79.2106 86.1708 78.777 85.4721 78.4178 84.7406C78.0641 84.0228 77.3511 84.0174 76.6712 84.042C67.8352 84.3735 60.0067 85.9488 58.8327 86.305C57.0792 86.8351 57.2816 87.2392 58.3936 97.3146C58.7529 100.576 59.1575 103.839 59.6502 107.084C59.8649 108.498 58.8107 108.29 58.095 108.506C56.2755 109.055 56.2617 107.621 55.5199 102.154C52.9723 83.3708 52.4809 83.6379 54.6721 83.2941C65.7212 81.5571 57.2857 82.0092 77.497 80.7119C84.0415 80.2914 81.4223 82.1503 85.1769 103.183C85.36 104.209 85.0338 104.661 84.0139 104.83Z" fill="white"/>
<path d="M72.7364 135.462C65.2575 136.954 65.3263 137.073 65.2217 139.504C65.1157 141.971 65.8713 142.699 64.7413 142.804C61.6666 143.092 61.4258 144.251 60.783 140.443C59.8513 134.919 59.8361 134.826 60.8381 134.685C69.5612 133.456 69.6658 133.572 69.3809 131.413C68.4726 124.551 68.0968 124.673 69.085 124.525C71.9822 124.092 72.5479 123.583 72.5988 124.632C73.1232 135.458 74.5022 135.11 72.7364 135.462Z" fill="white"/>
<path d="M87.1204 138.335C79.9428 139.498 78.9037 139.492 78.5775 137.224C78.5114 136.765 78.7936 136.792 79.0386 136.746C80.7411 136.418 82.2812 135.57 83.9947 135.274C85.8156 134.959 85.5803 133.629 85.36 131.174C85.155 128.895 83.5364 128.977 81.1444 129.673C80.1685 129.957 79.7515 129.624 79.5148 128.644C79.2602 127.594 79.2492 127.095 80.598 126.954C91.7889 125.774 86.9924 122.258 89.2922 135.698C89.6253 137.644 89.3307 137.976 87.1204 138.335Z" fill="white"/>
<path d="M69.8214 117.929C61.2606 119.732 61.5923 118.647 61.6969 122.706C61.8002 126.759 63.0499 128.003 60.5284 128.329C57.773 128.685 58.8383 124.837 57.2982 117.38C57.0711 116.28 57.1798 116.844 69.1718 114.661C70.504 114.418 70.2522 115.047 70.5894 117.287C70.6843 117.914 70.1503 117.859 69.8214 117.929Z" fill="white"/>
<path d="M35.5824 103.551C29.6285 103.551 28.4159 105.61 28.0402 102.853C27.2323 96.9159 27.0203 96.6159 28.4434 96.5529C37.0689 96.1734 37.1776 95.3447 36.8335 97.7679C36.4674 100.343 38.331 103.55 35.5824 103.55V103.551Z" fill="white"/>
<path d="M39.589 136.821C31.9697 137.655 32.1417 138.118 31.7783 135.844C30.9759 130.82 30.8397 130.685 31.6407 130.639C38.7715 130.225 40.2317 128.499 40.3432 130.265C40.6859 135.673 41.6741 136.592 39.589 136.819V136.821Z" fill="white"/>
<path d="M81.6232 120.868C79.2848 121.077 78.1287 121.321 78.1727 118.384C78.1824 117.713 78.5595 117.988 79.6949 117.814C82.0677 117.451 82.3058 117.669 82.2287 120.129C82.3141 120.572 82.1159 120.824 81.6232 120.868Z" fill="white"/>
<path d="M86.3797 114.965C83.3311 115.595 82.9995 115.688 82.76 114.886C81.5639 110.866 83.5968 112.06 84.3923 111.683C84.8093 111.486 86.4224 111.09 86.5311 111.666C87.116 114.786 87.2606 114.784 86.3797 114.966V114.965Z" fill="white"/>
<path d="M71.8484 98.2721C66.0266 98.9762 65.0852 99.5885 64.909 97.8296C64.492 93.6639 63.5368 92.4804 65.0026 92.2612C71.3887 91.3092 72.2944 90.6338 72.4457 92.5091C72.7719 96.5872 73.6776 98.0515 71.8484 98.2721Z" fill="white"/>
<path d="M49.303 110.368C49.1764 111.099 47.584 111.236 46.8353 111.247C45.481 111.266 45.4314 111.173 45.1589 109.482C44.9828 108.395 45.3846 107.936 46.4155 107.884C47.5813 107.825 49.8756 107.04 49.303 110.368Z" fill="white"/>
<path d="M70.1157 106.131C70.0964 106.742 68.2618 107.701 67.3286 107.454C66.2097 107.157 66.6804 105.98 66.4588 105.202C66.3267 104.74 68.1241 104.005 69.3738 104.22C70.5368 104.42 69.7124 105.606 70.1157 106.131Z" fill="white"/>
<path d="M54.8882 144.297C54.518 139.869 54.1808 139.171 52.8719 139.389C51.7007 139.584 38.3902 141.407 28.8702 142.933C27.7182 143.118 27.5517 142.818 27.3728 141.844C26.6722 138.036 26.0818 134.214 25.5959 130.373C25.1101 126.529 24.5664 127.142 28.6073 126.084C32.8767 124.966 37.3043 124.855 41.6246 124.033C45.3076 123.332 44.0345 122.994 46.2518 134.641C46.8078 137.559 49.0155 136.976 51.7021 136.484C54.9791 135.885 53.6275 135.418 52.6435 126.629C51.5548 116.907 51.0056 116.151 47.9695 116.584C21.6073 120.342 17.7756 119.687 17.8004 125.385C17.8087 127.143 19.6708 142.792 21.2288 148.359C21.9624 150.98 22.4028 150.847 25.1651 150.8C28.0884 150.752 30.8535 149.659 33.7768 149.555C36.495 149.458 39.0977 148.586 41.7581 148.106C54.2964 145.841 55.0231 145.914 54.8882 144.297ZM51.3717 144.581C51.3359 144.589 36.345 147.949 24.7509 149.36C22.5776 149.625 22.4125 148.37 20.4553 134.073C18.4349 119.316 15.3437 123.342 48.1484 118.24C50.1317 117.932 50.1523 119.048 50.9024 125.42C52.0076 134.811 52.7646 134.635 51.4075 134.856C49.3651 135.189 48.0699 135.746 47.796 134.18C45.938 123.558 45.7742 121.713 43.6629 122.068C37.6759 123.076 31.5582 123.366 25.717 125.185C23.7613 125.795 23.7723 125.821 23.7805 128.347C24.3104 132.999 24.9463 138.121 26.079 143.165C26.5607 145.311 26.2235 144.828 51.786 141.182C52.7329 141.047 53.0041 141.317 53.0949 142.176C53.3068 144.174 53.3316 144.158 51.3717 144.581Z" fill="#0A0430"/>
<path d="M49.6595 99.1022C48.6011 87.4078 49.4571 82.8764 45.0708 82.8956C36.0806 82.9339 27.235 84.1969 18.5297 86.3435C13.7002 87.5339 13.8626 89.8379 13.7277 93.6817C13.5805 97.8775 15.912 111.249 16.6345 113.595C18.293 118.981 20.5695 116.992 33.8868 115.542C38.6131 115.027 40.1174 114.714 40.0775 111.992C40.0293 108.739 39.4554 107.56 37.395 107.535C35.7077 107.516 25.9853 109.055 24.4851 109.41C23.563 109.628 23.0482 109.331 22.9078 108.283C22.6697 106.503 22.2128 104.754 21.9829 102.976C20.8021 93.8817 20.5378 92.7502 22.1825 92.5105C47.9019 88.7736 38.6681 88.0476 42.8054 101.205C43.5761 103.654 45.5608 102.513 48.3341 102.154C49.7159 101.975 49.7875 100.505 49.6595 99.1022ZM47.2729 100.647C45.0763 100.945 44.5533 101.567 44.3083 100.21C43.6215 96.3967 42.8659 92.4735 42.687 90.1516C42.4214 86.7174 36.4302 88.7311 21.7297 90.779C20.63 90.9324 19.7753 91.8352 19.5248 92.9215C19.3019 93.8899 19.9735 102.762 21.2714 108.388C22.1674 112.275 22.144 111.516 36.2816 109.395C37.8423 109.161 38.0529 109.291 38.2704 110.586C38.9503 114.635 37.6951 112.497 22.1839 115.268C17.993 116.017 18.0769 112.466 16.9511 106.614C12.9708 85.9147 14.7903 88.6681 27.9218 86.3188C36.9615 84.7024 44.6496 84.7284 44.6772 84.7243C47.4326 84.2339 46.9536 86.2476 47.456 92.9351C47.6239 95.1598 47.5372 97.4008 47.9583 99.6035C48.0767 100.223 47.9473 100.556 47.2729 100.647Z" fill="#0A0430"/>
<path d="M86.9028 103.416C82.4146 73.8861 86.801 78.8833 66.0887 79.8655C61.9803 80.06 58.0055 80.9463 53.999 81.7107C52.1203 82.0696 51.5684 82.8654 51.7804 84.7517C52.1079 87.6613 54.0031 104.942 54.6899 107.791C55.491 111.114 58.0358 110.91 61.0224 109.218C61.478 108.96 61.683 109.145 58.801 89.3242C58.6193 88.0763 59.0309 87.6489 60.1691 87.4544C65.3207 86.5736 70.5012 85.9202 75.7257 85.675C78.243 85.5572 77.5727 85.2175 79.5051 100.625C79.5588 101.051 79.5326 101.283 79.011 101.25C77.848 101.176 76.7978 101.746 75.6734 101.88C74.2062 102.054 74.5131 103.223 75.1463 106.879C75.2646 107.561 75.6816 107.817 76.4304 107.717C86.205 106.423 87.3006 106.027 86.9042 103.417L86.9028 103.416ZM84.0139 104.83C76.8708 106.013 76.5102 106.773 76.3863 105.13C76.2735 103.639 75.9955 103.123 78.5196 102.886C82.2151 102.539 81.2737 103.019 79.3152 87.0229C79.2106 86.1709 78.777 85.4723 78.4178 84.7408C78.0641 84.023 77.3511 84.0175 76.6712 84.0421C67.8352 84.3736 60.0067 85.949 58.8327 86.3051C57.0792 86.8352 57.2816 87.2394 58.3936 97.3145C58.7529 100.576 59.1575 103.839 59.6502 107.084C59.8649 108.498 58.8107 108.29 58.095 108.506C56.2755 109.055 56.2617 107.621 55.5199 102.154C52.9723 83.3709 52.4809 83.638 54.672 83.2942C65.7212 81.5572 57.2857 82.0093 77.497 80.712C84.0414 80.2915 81.4223 82.1504 85.1769 103.183C85.36 104.209 85.0338 104.661 84.0139 104.83Z" fill="#0A0430"/>
<path d="M75.1392 134.562C73.9267 122.839 74.4814 122.09 72.4788 122.284C68.2934 123.035 66.6239 122.84 66.9446 124.935C68.0305 132.005 68.0746 131.866 67.0409 132.021C59.6473 133.131 58.4458 133.228 58.5848 134.961C59.3335 144.278 59.9088 145.113 61.7779 144.845C66.1271 144.224 67.1827 144.491 66.9308 142.536C66.5303 139.44 66.3899 138.526 67.7814 138.247C69.6216 137.876 71.4273 137.266 73.2812 137.035C74.919 136.829 75.3581 136.699 75.1379 134.562H75.1392ZM72.7376 135.462C65.2586 136.954 65.3274 137.073 65.2228 139.504C65.1168 141.971 65.8724 142.699 64.7425 142.804C61.6678 143.092 61.4269 144.251 60.7842 140.443C59.8524 134.92 59.8373 134.826 60.8392 134.685C69.5624 133.457 69.667 133.572 69.3821 131.413C68.4737 124.551 68.098 124.673 69.0862 124.525C71.9833 124.092 72.549 123.583 72.5999 124.632C73.1243 135.458 74.5034 135.11 72.7376 135.462Z" fill="#0A0430"/>
<path d="M89.9885 125.526C89.7862 122.573 83.2418 124.968 78.6228 125.71C77.04 125.965 77.7117 127.877 78.3324 130.061C78.949 132.225 80.6914 131.351 82.1448 131.141C83.6643 130.922 83.6106 130.943 83.8295 132.431C83.9602 133.313 83.7138 133.688 82.8261 133.858C81.1332 134.181 79.5739 134.993 77.8562 135.272C77.4392 135.339 77.0221 135.499 76.8639 135.992C76.7262 136.421 77.3662 140.766 79.1183 140.796C82.3279 140.851 83.8694 140.651 88.8764 139.454C92.1053 138.682 90.8707 138.435 89.9885 125.526ZM87.1202 138.335C79.9427 139.498 78.9036 139.492 78.5774 137.224C78.5113 136.765 78.7935 136.792 79.0385 136.746C80.741 136.418 82.2811 135.57 83.9946 135.274C85.8155 134.959 85.5801 133.629 85.3599 131.174C85.1549 128.895 83.5363 128.977 81.1442 129.673C80.1684 129.957 79.7514 129.624 79.5147 128.644C79.2601 127.594 79.249 127.095 80.5978 126.954C91.7887 125.774 86.9923 122.258 89.2921 135.698C89.6252 137.644 89.3306 137.976 87.1202 138.335Z" fill="#0A0430"/>
<path d="M72.0755 117.758C72.1444 110.68 70.9442 113.033 58.9922 114.794C55.5665 115.298 55.4592 115.714 56.0496 119.077C56.5946 122.184 56.5891 125.377 57.4892 128.435C58.2297 130.951 59.6102 129.774 62.2018 129.483C64.3585 129.239 64.0227 129.528 63.1721 121.787C63.0028 120.247 63.5877 120.855 70.4184 119.502C71.62 119.263 72.3797 118.905 72.0755 117.758ZM69.8211 117.928C61.2604 119.731 61.5921 118.646 61.6967 122.705C61.8013 126.763 63.0496 128.002 60.5282 128.328C57.7728 128.684 58.838 124.836 57.2979 117.379C57.0708 116.279 57.1796 116.843 69.1715 114.659C70.5038 114.417 70.2519 115.046 70.5891 117.285C70.6841 117.913 70.1501 117.858 69.8211 117.928Z" fill="#0A0430"/>
<path d="M38.8126 100.386C38.0557 96.5378 40.0968 94.1173 35.4998 94.3063C26.4023 94.6817 25.7238 94.7625 25.816 97.4214C26.2275 109.239 27.4428 105.603 36.8142 105.187C37.6097 105.151 38.3695 104.775 38.5773 103.873C38.8402 102.73 39.0466 101.576 38.8126 100.386ZM35.5824 103.55C29.6284 103.55 28.4159 105.609 28.0401 102.851C27.2322 96.9145 27.0203 96.6145 28.4434 96.5515C37.0688 96.1721 37.1776 95.3433 36.8335 97.7666C36.4674 100.342 38.3309 103.55 35.5824 103.55Z" fill="#0A0430"/>
<path d="M42.4847 135.285C41.7043 127.811 42.1668 127.563 39.4375 127.82C37.285 128.022 35.2219 128.73 33.0583 128.878C28.771 129.172 29.2885 129.259 30.3841 137.341C30.6456 139.274 31.3406 139.159 33.6749 139.181C42.2287 138.239 42.815 138.444 42.4847 135.285ZM39.5889 136.821C31.9696 137.655 32.1416 138.118 31.7783 135.844C30.9759 130.82 30.8396 130.685 31.6407 130.639C38.7714 130.225 40.2317 128.499 40.3432 130.265C40.6859 135.673 41.6741 136.592 39.5889 136.819V136.821Z" fill="#0A0430"/>
<path d="M87.9047 110.983C87.7409 109.995 87.1174 109.665 86.2283 109.776C81.4979 110.361 80.6996 110.409 80.8524 111.805C81.2694 115.625 81.8172 115.732 80.8744 115.935C78.5044 116.444 76.2555 115.935 76.6367 118.255C77.1624 121.458 77.2836 123.073 79.198 122.748C82.1957 122.405 83.9698 122.581 83.8005 120.755C83.4922 117.428 83.071 117.073 84.1294 116.933C89.8935 116.175 88.6685 115.587 87.9047 110.983ZM81.6217 120.868C79.2834 121.077 78.1273 121.321 78.1713 118.384C78.1809 117.713 78.558 117.988 79.6935 117.814C82.0663 117.451 82.3044 117.669 82.2273 120.129C82.3127 120.572 82.1145 120.824 81.6217 120.868ZM86.3797 114.964C83.3311 115.594 82.9995 115.687 82.76 114.884C81.5639 110.865 83.5968 112.058 84.3923 111.681C84.8093 111.484 86.4224 111.088 86.5311 111.665C87.116 114.784 87.2606 114.781 86.3797 114.964Z" fill="#0A0430"/>
<path d="M74.4567 96.4269C73.6859 88.5162 74.7416 88.8395 63.0524 90.9408C62.462 91.0476 62.5611 91.5161 62.5969 91.8613C63.475 100.304 63.6525 100.778 65.973 100.605C74.7058 99.9583 74.487 99.5255 74.4567 96.4269ZM71.8485 98.2721C66.0267 98.9762 65.0853 99.5885 64.9091 97.8296C64.4921 93.6639 63.5369 92.4805 65.0027 92.2613C71.3888 91.3093 72.2945 90.6339 72.4459 92.5093C72.7721 96.5872 73.6777 98.0515 71.8485 98.2721Z" fill="#0A0430"/>
<path d="M50.689 108.888C50.3669 106.394 49.7228 105.801 47.2275 106.153C43.8211 106.632 43.144 106.532 43.9422 110.586C44.3207 112.502 44.5643 112.959 47.5592 112.722C50.6105 112.481 51.0771 111.896 50.689 108.888ZM49.3017 110.368C49.175 111.099 47.5826 111.236 46.8339 111.247C45.4796 111.266 45.4301 111.173 45.1575 109.481C44.9814 108.395 45.3833 107.936 46.4141 107.884C47.5799 107.825 49.8742 107.04 49.3017 110.368Z" fill="#0A0430"/>
<path d="M71.7082 106.592C70.8301 101.104 71.4177 102.751 66.5442 103.09C65.2408 103.18 64.9931 103.98 65.033 104.982C65.1899 108.946 66.0253 109.486 67.798 109.027C70.5975 108.302 71.854 108.461 71.7068 106.594L71.7082 106.592ZM67.3287 107.454C66.2097 107.157 66.6804 105.98 66.4589 105.202C66.3267 104.74 68.1242 104.005 69.3739 104.22C70.5369 104.42 69.7139 105.606 70.1171 106.131C70.0979 106.742 68.2618 107.701 67.3287 107.454Z" fill="#0A0430"/>
<path d="M98.2575 140.999L91.9498 76.9121C91.3979 71.1765 86.0068 66.9095 79.929 67.4013C37.0234 70.8683 21.7889 71.5779 15.2788 72.9409C9.96761 74.0532 7.22459 77.6956 7.02915 82.001C6.73737 88.3886 8.62982 104.434 12.9776 154.418C13.4194 159.501 17.6516 163.49 22.8954 164.003C25.2875 164.237 23.0454 164.829 89.9734 152.171C94.6226 151.292 98.7874 146.526 98.2575 140.999ZM89.6403 150.553L26.5688 162.086C20.8062 163.563 15.1096 159.777 14.6292 154.271C10.1025 102.43 8.29262 87.4078 8.67937 81.8175C8.90371 78.5847 11.1568 75.4641 15.5789 74.508C21.5205 73.2231 36.188 72.5409 80.0638 69.0423C85.3379 68.6218 89.8413 72.3039 90.2996 77.071L96.6045 141.155C97.0188 145.449 94.09 149.399 89.6431 150.553H89.6403Z" fill="#0A0430"/>
</g>
<defs>
<filter id="filter0_d_840_152" x="0" y="0" width="230.94" height="229.918" filterUnits="userSpaceOnUse" color-interpolation-filters="sRGB">
<feFlood flood-opacity="0" result="BackgroundImageFix"/>
<feColorMatrix in="SourceAlpha" type="matrix" values="0 0 0 0 0 0 0 0 0 0 0 0 0 0 0 0 0 0 127 0" result="hardAlpha"/>
<feOffset dy="4"/>
<feGaussianBlur stdDeviation="2"/>
<feComposite in2="hardAlpha" operator="out"/>
<feColorMatrix type="matrix" values="0 0 0 0 0 0 0 0 0 0 0 0 0 0 0 0 0 0 0.25 0"/>
<feBlend mode="normal" in2="BackgroundImageFix" result="effect1_dropShadow_840_152"/>
<feBlend mode="normal" in="SourceGraphic" in2="effect1_dropShadow_840_152" result="shape"/>
</filter>
<filter id="filter1_d_840_152" x="89.3994" y="14.6832" width="138.411" height="216.779" filterUnits="userSpaceOnUse" color-interpolation-filters="sRGB">
<feFlood flood-opacity="0" result="BackgroundImageFix"/>
<feColorMatrix in="SourceAlpha" type="matrix" values="0 0 0 0 0 0 0 0 0 0 0 0 0 0 0 0 0 0 127 0" result="hardAlpha"/>
<feOffset dy="4"/>
<feGaussianBlur stdDeviation="2"/>
<feComposite in2="hardAlpha" operator="out"/>
<feColorMatrix type="matrix" values="0 0 0 0 0 0 0 0 0 0 0 0 0 0 0 0 0 0 0.25 0"/>
<feBlend mode="normal" in2="BackgroundImageFix" result="effect1_dropShadow_840_152"/>
<feBlend mode="normal" in="SourceGraphic" in2="effect1_dropShadow_840_152" result="shape"/>
</filter>
<filter id="filter2_d_840_152" x="3" y="67.3627" width="99.3031" height="104.724" filterUnits="userSpaceOnUse" color-interpolation-filters="sRGB">
<feFlood flood-opacity="0" result="BackgroundImageFix"/>
<feColorMatrix in="SourceAlpha" type="matrix" values="0 0 0 0 0 0 0 0 0 0 0 0 0 0 0 0 0 0 127 0" result="hardAlpha"/>
<feOffset dy="4"/>
<feGaussianBlur stdDeviation="2"/>
<feComposite in2="hardAlpha" operator="out"/>
<feColorMatrix type="matrix" values="0 0 0 0 0 0 0 0 0 0 0 0 0 0 0 0 0 0 0.25 0"/>
<feBlend mode="normal" in2="BackgroundImageFix" result="effect1_dropShadow_840_152"/>
<feBlend mode="normal" in="SourceGraphic" in2="effect1_dropShadow_840_152" result="shape"/>
</filter>
</defs>
</svg>
